G04*
G04 #@! TF.GenerationSoftware,Altium Limited,Altium Designer,18.1.7 (191)*
G04*
G04 Layer_Color=8421504*
%FSLAX25Y25*%
%MOIN*%
G70*
G01*
G75*
G04:AMPARAMS|DCode=15|XSize=65.35mil|YSize=50.39mil|CornerRadius=2.52mil|HoleSize=0mil|Usage=FLASHONLY|Rotation=180.000|XOffset=0mil|YOffset=0mil|HoleType=Round|Shape=RoundedRectangle|*
%AMROUNDEDRECTD15*
21,1,0.06535,0.04535,0,0,180.0*
21,1,0.06032,0.05039,0,0,180.0*
1,1,0.00504,-0.03016,0.02268*
1,1,0.00504,0.03016,0.02268*
1,1,0.00504,0.03016,-0.02268*
1,1,0.00504,-0.03016,-0.02268*
%
%ADD15ROUNDEDRECTD15*%
G04:AMPARAMS|DCode=16|XSize=47.24mil|YSize=15.75mil|CornerRadius=0.79mil|HoleSize=0mil|Usage=FLASHONLY|Rotation=180.000|XOffset=0mil|YOffset=0mil|HoleType=Round|Shape=RoundedRectangle|*
%AMROUNDEDRECTD16*
21,1,0.04724,0.01417,0,0,180.0*
21,1,0.04567,0.01575,0,0,180.0*
1,1,0.00158,-0.02284,0.00709*
1,1,0.00158,0.02284,0.00709*
1,1,0.00158,0.02284,-0.00709*
1,1,0.00158,-0.02284,-0.00709*
%
%ADD16ROUNDEDRECTD16*%
%ADD17R,0.00906X0.01024*%
%ADD18R,0.02362X0.01575*%
%ADD19R,0.03543X0.05118*%
%ADD20R,0.01575X0.02362*%
%ADD21R,0.10630X0.10630*%
%ADD22O,0.00984X0.03150*%
%ADD23O,0.03150X0.00984*%
%ADD24R,0.02362X0.04134*%
%ADD25R,0.01575X0.03543*%
G04:AMPARAMS|DCode=26|XSize=38.58mil|YSize=133.86mil|CornerRadius=1.93mil|HoleSize=0mil|Usage=FLASHONLY|Rotation=270.000|XOffset=0mil|YOffset=0mil|HoleType=Round|Shape=RoundedRectangle|*
%AMROUNDEDRECTD26*
21,1,0.03858,0.13000,0,0,270.0*
21,1,0.03472,0.13386,0,0,270.0*
1,1,0.00386,-0.06500,-0.01736*
1,1,0.00386,-0.06500,0.01736*
1,1,0.00386,0.06500,0.01736*
1,1,0.00386,0.06500,-0.01736*
%
%ADD26ROUNDEDRECTD26*%
%ADD27R,0.03543X0.06693*%
%ADD28R,0.03051X0.00787*%
%ADD29R,0.11221X0.06221*%
%ADD30O,0.00945X0.02362*%
D15*
X10551Y-1634D02*
D03*
Y4783D02*
D03*
D16*
X18110Y295D02*
D03*
Y-2264D02*
D03*
Y2854D02*
D03*
Y5413D02*
D03*
X7874D02*
D03*
Y2854D02*
D03*
Y295D02*
D03*
Y-2264D02*
D03*
D17*
X18101Y-15204D02*
D03*
X15542D02*
D03*
Y-10716D02*
D03*
X18101D02*
D03*
D18*
X11627Y-11188D02*
D03*
Y-14732D02*
D03*
X-23819Y18701D02*
D03*
Y15157D02*
D03*
Y12008D02*
D03*
Y8465D02*
D03*
X-23819Y5315D02*
D03*
Y1772D02*
D03*
X-26772Y-12008D02*
D03*
Y-8465D02*
D03*
X-30315Y-5315D02*
D03*
Y-1772D02*
D03*
X-26772D02*
D03*
Y-5315D02*
D03*
X-33858D02*
D03*
Y-1772D02*
D03*
D19*
X-1378Y33071D02*
D03*
X-8858Y33071D02*
D03*
X-8858Y2756D02*
D03*
X-16339Y2756D02*
D03*
D20*
X12787Y-18110D02*
D03*
X16331D02*
D03*
X-15945Y-32283D02*
D03*
X-12402D02*
D03*
X-15945Y-28741D02*
D03*
X-12402D02*
D03*
X-16330Y-18110D02*
D03*
X-12787D02*
D03*
Y-14961D02*
D03*
X-16330D02*
D03*
X-1772Y-36221D02*
D03*
X1772D02*
D03*
X12403Y-32283D02*
D03*
X15947D02*
D03*
X27756Y-18110D02*
D03*
X24213D02*
D03*
X28150Y2362D02*
D03*
X24606D02*
D03*
X28150Y22048D02*
D03*
X24606D02*
D03*
X-13583Y9449D02*
D03*
X-17126D02*
D03*
X-13583Y12992D02*
D03*
X-17126D02*
D03*
X-7283Y12992D02*
D03*
X-10827D02*
D03*
X-27953Y15748D02*
D03*
X-31496D02*
D03*
D21*
X0Y-24016D02*
D03*
D22*
X-3937Y-16142D02*
D03*
X-1969D02*
D03*
X0D02*
D03*
X1969D02*
D03*
X3937D02*
D03*
Y-31890D02*
D03*
X1969D02*
D03*
X0D02*
D03*
X-1969D02*
D03*
X-3937D02*
D03*
D23*
X7874Y-20079D02*
D03*
Y-22047D02*
D03*
Y-24016D02*
D03*
Y-25984D02*
D03*
Y-27953D02*
D03*
X-7874D02*
D03*
Y-25984D02*
D03*
Y-24016D02*
D03*
Y-22047D02*
D03*
Y-20079D02*
D03*
D24*
X32087Y-2559D02*
D03*
X28346D02*
D03*
X24606D02*
D03*
Y-13189D02*
D03*
X32087D02*
D03*
D25*
X24606Y8661D02*
D03*
X27165D02*
D03*
X29724D02*
D03*
Y17323D02*
D03*
X24606D02*
D03*
X-33071Y2756D02*
D03*
X-30512D02*
D03*
X-27953D02*
D03*
Y11417D02*
D03*
X-33071D02*
D03*
X-30512D02*
D03*
D26*
X11024Y26713D02*
D03*
Y17382D02*
D03*
D27*
X-8858Y-5512D02*
D03*
X-20276D02*
D03*
D28*
X-738Y24764D02*
D03*
Y22953D02*
D03*
Y21142D02*
D03*
Y19331D02*
D03*
X-15010D02*
D03*
Y21142D02*
D03*
Y22953D02*
D03*
Y24764D02*
D03*
D29*
X-7874Y22047D02*
D03*
D30*
X-13780Y27559D02*
D03*
X-11811D02*
D03*
X-9843D02*
D03*
X-7874D02*
D03*
X-5906D02*
D03*
X-3937D02*
D03*
X-1969D02*
D03*
Y16535D02*
D03*
X-3937D02*
D03*
X-5906D02*
D03*
X-7874D02*
D03*
X-9843D02*
D03*
X-11811D02*
D03*
X-13780D02*
D03*
M02*
