G04*
G04 #@! TF.GenerationSoftware,Altium Limited,Altium Designer,18.1.7 (191)*
G04*
G04 Layer_Physical_Order=1*
G04 Layer_Color=255*
%FSLAX25Y25*%
%MOIN*%
G70*
G01*
G75*
%ADD12C,0.01000*%
%ADD14C,0.00700*%
G04:AMPARAMS|DCode=15|XSize=65.35mil|YSize=50.39mil|CornerRadius=2.52mil|HoleSize=0mil|Usage=FLASHONLY|Rotation=180.000|XOffset=0mil|YOffset=0mil|HoleType=Round|Shape=RoundedRectangle|*
%AMROUNDEDRECTD15*
21,1,0.06535,0.04535,0,0,180.0*
21,1,0.06032,0.05039,0,0,180.0*
1,1,0.00504,-0.03016,0.02268*
1,1,0.00504,0.03016,0.02268*
1,1,0.00504,0.03016,-0.02268*
1,1,0.00504,-0.03016,-0.02268*
%
%ADD15ROUNDEDRECTD15*%
G04:AMPARAMS|DCode=16|XSize=47.24mil|YSize=15.75mil|CornerRadius=0.79mil|HoleSize=0mil|Usage=FLASHONLY|Rotation=180.000|XOffset=0mil|YOffset=0mil|HoleType=Round|Shape=RoundedRectangle|*
%AMROUNDEDRECTD16*
21,1,0.04724,0.01417,0,0,180.0*
21,1,0.04567,0.01575,0,0,180.0*
1,1,0.00158,-0.02284,0.00709*
1,1,0.00158,0.02284,0.00709*
1,1,0.00158,0.02284,-0.00709*
1,1,0.00158,-0.02284,-0.00709*
%
%ADD16ROUNDEDRECTD16*%
%ADD17R,0.00906X0.01024*%
%ADD18R,0.02362X0.01575*%
%ADD19R,0.03543X0.05118*%
%ADD20R,0.01575X0.02362*%
%ADD21R,0.10630X0.10630*%
%ADD22O,0.00984X0.03150*%
%ADD23O,0.03150X0.00984*%
%ADD24R,0.02362X0.04134*%
%ADD25R,0.01575X0.03543*%
G04:AMPARAMS|DCode=26|XSize=38.58mil|YSize=133.86mil|CornerRadius=1.93mil|HoleSize=0mil|Usage=FLASHONLY|Rotation=270.000|XOffset=0mil|YOffset=0mil|HoleType=Round|Shape=RoundedRectangle|*
%AMROUNDEDRECTD26*
21,1,0.03858,0.13000,0,0,270.0*
21,1,0.03472,0.13386,0,0,270.0*
1,1,0.00386,-0.06500,-0.01736*
1,1,0.00386,-0.06500,0.01736*
1,1,0.00386,0.06500,0.01736*
1,1,0.00386,0.06500,-0.01736*
%
%ADD26ROUNDEDRECTD26*%
%ADD27R,0.03543X0.06693*%
%ADD28R,0.03051X0.00787*%
%ADD29R,0.11221X0.06221*%
%ADD30O,0.00945X0.02362*%
G04:AMPARAMS|DCode=31|XSize=55mil|YSize=47.24mil|CornerRadius=2.36mil|HoleSize=0mil|Usage=FLASHONLY|Rotation=0.000|XOffset=0mil|YOffset=0mil|HoleType=Round|Shape=RoundedRectangle|*
%AMROUNDEDRECTD31*
21,1,0.05500,0.04252,0,0,0.0*
21,1,0.05028,0.04724,0,0,0.0*
1,1,0.00472,0.02514,-0.02126*
1,1,0.00472,-0.02514,-0.02126*
1,1,0.00472,-0.02514,0.02126*
1,1,0.00472,0.02514,0.02126*
%
%ADD31ROUNDEDRECTD31*%
%ADD32C,0.03347*%
%ADD55R,0.00906X0.00906*%
%ADD56R,0.01024X0.00906*%
%ADD57R,0.00906X0.00906*%
G04:AMPARAMS|DCode=58|XSize=78.74mil|YSize=78.74mil|CornerRadius=15.75mil|HoleSize=0mil|Usage=FLASHONLY|Rotation=0.000|XOffset=0mil|YOffset=0mil|HoleType=Round|Shape=RoundedRectangle|*
%AMROUNDEDRECTD58*
21,1,0.07874,0.04724,0,0,0.0*
21,1,0.04724,0.07874,0,0,0.0*
1,1,0.03150,0.02362,-0.02362*
1,1,0.03150,-0.02362,-0.02362*
1,1,0.03150,-0.02362,0.02362*
1,1,0.03150,0.02362,0.02362*
%
%ADD58ROUNDEDRECTD58*%
%ADD59C,0.04724*%
%ADD60C,0.00600*%
%ADD61C,0.00800*%
%ADD62C,0.01200*%
%ADD63C,0.01400*%
%ADD64C,0.02000*%
G36*
X1673Y42651D02*
X2790Y42592D01*
X3905Y42504D01*
X5017Y42388D01*
X6126Y42241D01*
X7231Y42067D01*
X8330Y41863D01*
X9424Y41630D01*
X10512Y41369D01*
X11592Y41080D01*
X12664Y40762D01*
X13728Y40416D01*
X14782Y40043D01*
X15826Y39642D01*
X16860Y39214D01*
X17881Y38759D01*
X18891Y38278D01*
X19887Y37770D01*
X20870Y37237D01*
X21839Y36677D01*
X22792Y36093D01*
X23730Y35484D01*
X24652Y34850D01*
X25557Y34193D01*
X26444Y33512D01*
X27313Y32809D01*
X28163Y32082D01*
X28995Y31334D01*
X29806Y30564D01*
X30597Y29773D01*
X31367Y28962D01*
X32115Y28131D01*
X32841Y27280D01*
X33545Y26411D01*
X34226Y25524D01*
X34883Y24619D01*
X35517Y23697D01*
X36126Y22760D01*
X36710Y21806D01*
X37269Y20837D01*
X37803Y19855D01*
X38311Y18858D01*
X38792Y17849D01*
X39247Y16827D01*
X39675Y15794D01*
X40076Y14750D01*
X40449Y13695D01*
X40795Y12632D01*
X41112Y11559D01*
X41402Y10479D01*
X41663Y9392D01*
X41895Y8298D01*
X42099Y7198D01*
X42274Y6093D01*
X42420Y4985D01*
X42537Y3872D01*
X42625Y2757D01*
X42683Y1641D01*
X42713Y523D01*
Y-596D01*
X42683Y-1714D01*
X42625Y-2831D01*
X42537Y-3946D01*
X42420Y-5058D01*
X42274Y-6167D01*
X42099Y-7271D01*
X41895Y-8371D01*
X41663Y-9465D01*
X41402Y-10552D01*
X41112Y-11633D01*
X40795Y-12705D01*
X40449Y-13769D01*
X40076Y-14823D01*
X39675Y-15867D01*
X39247Y-16900D01*
X38792Y-17922D01*
X38311Y-18931D01*
X37803Y-19928D01*
X37269Y-20911D01*
X36710Y-21879D01*
X36126Y-22833D01*
X35517Y-23771D01*
X34883Y-24692D01*
X34226Y-25597D01*
X33545Y-26484D01*
X32841Y-27354D01*
X32115Y-28204D01*
X31367Y-29035D01*
X30597Y-29846D01*
X29806Y-30637D01*
X28995Y-31407D01*
X28163Y-32155D01*
X27313Y-32882D01*
X26444Y-33586D01*
X25557Y-34266D01*
X24652Y-34924D01*
X23730Y-35557D01*
X22792Y-36166D01*
X21839Y-36751D01*
X20870Y-37310D01*
X19887Y-37843D01*
X18891Y-38351D01*
X17881Y-38833D01*
X16860Y-39287D01*
X15826Y-39715D01*
X14782Y-40116D01*
X13728Y-40490D01*
X12664Y-40835D01*
X11592Y-41153D01*
X10512Y-41442D01*
X9424Y-41703D01*
X8330Y-41936D01*
X7231Y-42140D01*
X6126Y-42315D01*
X5017Y-42461D01*
X3905Y-42578D01*
X2790Y-42665D01*
X1673Y-42724D01*
X555Y-42753D01*
X-563D01*
X-1681Y-42724D01*
X-2798Y-42665D01*
X-3913Y-42578D01*
X-5025Y-42461D01*
X-6134Y-42315D01*
X-7239Y-42140D01*
X-8338Y-41936D01*
X-9432Y-41703D01*
X-10520Y-41442D01*
X-11600Y-41153D01*
X-12672Y-40835D01*
X-13736Y-40490D01*
X-14790Y-40116D01*
X-15834Y-39715D01*
X-16868Y-39287D01*
X-17889Y-38833D01*
X-18899Y-38351D01*
X-19895Y-37843D01*
X-20878Y-37310D01*
X-21847Y-36751D01*
X-22800Y-36166D01*
X-23738Y-35557D01*
X-24660Y-34924D01*
X-25565Y-34266D01*
X-26452Y-33586D01*
X-27321Y-32882D01*
X-28171Y-32155D01*
X-29002Y-31407D01*
X-29814Y-30637D01*
X-30604Y-29846D01*
X-31374Y-29035D01*
X-32123Y-28204D01*
X-32849Y-27354D01*
X-33553Y-26484D01*
X-34234Y-25597D01*
X-34891Y-24692D01*
X-35524Y-23771D01*
X-36134Y-22833D01*
X-36718Y-21879D01*
X-37277Y-20911D01*
X-37811Y-19928D01*
X-38318Y-18931D01*
X-38800Y-17922D01*
X-39255Y-16900D01*
X-39683Y-15867D01*
X-40084Y-14823D01*
X-40457Y-13769D01*
X-40803Y-12705D01*
X-41120Y-11633D01*
X-41410Y-10552D01*
X-41671Y-9465D01*
X-41903Y-8371D01*
X-42107Y-7271D01*
X-42282Y-6167D01*
X-42428Y-5058D01*
X-42545Y-3946D01*
X-42633Y-2831D01*
X-42691Y-1714D01*
X-42720Y-596D01*
Y523D01*
X-42691Y1641D01*
X-42633Y2757D01*
X-42545Y3872D01*
X-42428Y4985D01*
X-42282Y6093D01*
X-42107Y7198D01*
X-41903Y8298D01*
X-41671Y9392D01*
X-41410Y10479D01*
X-41120Y11559D01*
X-40803Y12632D01*
X-40457Y13695D01*
X-40084Y14750D01*
X-39683Y15794D01*
X-39255Y16827D01*
X-38800Y17849D01*
X-38318Y18858D01*
X-37811Y19855D01*
X-37277Y20837D01*
X-36718Y21806D01*
X-36134Y22760D01*
X-35524Y23697D01*
X-34891Y24619D01*
X-34234Y25524D01*
X-33553Y26411D01*
X-32849Y27280D01*
X-32123Y28131D01*
X-31374Y28962D01*
X-30604Y29773D01*
X-29814Y30564D01*
X-29002Y31334D01*
X-28171Y32082D01*
X-27321Y32809D01*
X-26452Y33512D01*
X-25565Y34193D01*
X-24660Y34850D01*
X-23738Y35484D01*
X-22800Y36093D01*
X-21847Y36677D01*
X-20878Y37237D01*
X-19895Y37770D01*
X-18899Y38278D01*
X-17889Y38759D01*
X-16868Y39214D01*
X-15834Y39642D01*
X-14790Y40043D01*
X-13736Y40416D01*
X-12672Y40762D01*
X-11600Y41080D01*
X-10520Y41369D01*
X-9432Y41630D01*
X-8338Y41863D01*
X-7239Y42067D01*
X-6134Y42241D01*
X-5025Y42388D01*
X-3913Y42504D01*
X-2798Y42592D01*
X-1681Y42651D01*
X-563Y42680D01*
X555D01*
X1673Y42651D01*
D02*
G37*
%LPC*%
G36*
X8Y39373D02*
X0Y39372D01*
X-8Y39373D01*
X-1096Y39358D01*
X-1104Y39357D01*
X-1113Y39357D01*
X-2199Y39311D01*
X-2208Y39310D01*
X-2216Y39310D01*
X-3301Y39234D01*
X-3309Y39233D01*
X-3318D01*
X-4400Y39126D01*
X-4408Y39125D01*
X-4417Y39124D01*
X-5496Y38987D01*
X-5504Y38985D01*
X-5512Y38985D01*
X-5512Y38985D01*
X-6587Y38818D01*
X-6595Y38816D01*
X-6604Y38815D01*
X-7138Y38717D01*
X-7138Y38717D01*
X-7138D01*
X-7673Y38618D01*
X-7681Y38616D01*
X-7690Y38615D01*
X-7878Y38574D01*
X-7878Y38574D01*
X-7878D01*
X-7904Y38569D01*
X-8720Y38394D01*
X-8722Y38394D01*
X-8726Y38393D01*
X-8733Y38391D01*
X-8734Y38391D01*
X-8735Y38391D01*
D01*
D01*
D01*
X-8737Y38390D01*
X-8741Y38390D01*
X-8744Y38389D01*
X-8744Y38389D01*
X-8749Y38388D01*
X-8749D01*
X-8750Y38388D01*
X-8751Y38388D01*
X-8751Y38387D01*
X-8771Y38381D01*
X-8782Y38379D01*
X-8785Y38378D01*
X-8787Y38378D01*
X-8789Y38377D01*
X-8794Y38376D01*
X-8794Y38376D01*
X-8799Y38375D01*
X-8800Y38375D01*
X-8801Y38375D01*
X-8804Y38373D01*
X-8805Y38373D01*
X-8815Y38369D01*
X-8833Y38365D01*
X-8845Y38361D01*
X-8853Y38357D01*
X-8862Y38355D01*
X-8862Y38354D01*
X-8877Y38347D01*
X-8882Y38345D01*
X-8884Y38344D01*
X-8885Y38344D01*
X-8898Y38339D01*
X-8899Y38339D01*
X-8907Y38334D01*
X-8915Y38331D01*
X-8928Y38323D01*
X-8933Y38320D01*
X-8938Y38317D01*
X-8940Y38317D01*
X-8940Y38317D01*
X-8952Y38311D01*
X-8959Y38306D01*
X-8968Y38301D01*
X-8976Y38295D01*
X-8979Y38294D01*
X-8986Y38288D01*
X-8991Y38285D01*
D01*
X-8998Y38281D01*
X-8999Y38280D01*
X-8999Y38280D01*
X-9001Y38279D01*
X-9001Y38278D01*
D01*
X-9002Y38278D01*
X-9003Y38278D01*
X-9003Y38277D01*
X-9004Y38277D01*
X-9004Y38277D01*
X-9004Y38276D01*
X-9008Y38274D01*
X-9012Y38270D01*
X-9015Y38268D01*
X-9021Y38263D01*
X-9028Y38258D01*
X-9030Y38256D01*
X-9031Y38255D01*
X-9033Y38254D01*
X-9034Y38253D01*
X-9035Y38253D01*
X-9036Y38252D01*
X-9036Y38252D01*
X-9037Y38250D01*
X-9038Y38250D01*
X-9044Y38244D01*
X-9047Y38242D01*
X-9048Y38241D01*
X-9049Y38240D01*
X-9054Y38236D01*
X-9061Y38229D01*
X-9061Y38229D01*
X-9063Y38227D01*
X-9065Y38225D01*
X-9074Y38217D01*
X-9077Y38213D01*
X-9082Y38209D01*
X-9082Y38209D01*
X-9085Y38207D01*
X-9090Y38201D01*
X-9096Y38195D01*
X-9096Y38195D01*
X-9104Y38184D01*
X-9113Y38176D01*
X-9114Y38174D01*
X-9115Y38173D01*
D01*
X-9117Y38171D01*
X-9117Y38171D01*
X-9119Y38168D01*
X-9121Y38167D01*
X-9121Y38167D01*
X-9121Y38166D01*
X-9122Y38165D01*
X-9127Y38158D01*
X-9131Y38154D01*
X-9133Y38151D01*
X-9133Y38151D01*
X-9134Y38150D01*
X-9134Y38150D01*
X-9142Y38137D01*
X-9150Y38127D01*
X-9151Y38125D01*
X-9156Y38119D01*
X-9160Y38113D01*
D01*
X-9160Y38113D01*
X-9161Y38111D01*
X-9163Y38109D01*
X-9166Y38104D01*
X-9168Y38101D01*
X-9174Y38088D01*
X-9181Y38079D01*
X-9184Y38074D01*
X-9184Y38074D01*
X-9185Y38070D01*
X-9188Y38067D01*
D01*
X-9192Y38061D01*
X-9202Y38035D01*
D01*
X-9203Y38034D01*
D01*
X-9216Y38009D01*
X-9217Y38006D01*
X-9218Y38004D01*
X-9218Y38004D01*
X-9226Y37977D01*
X-9237Y37951D01*
X-9243Y37923D01*
X-9251Y37896D01*
X-9251Y37894D01*
X-9252Y37891D01*
X-9254Y37863D01*
X-9260Y37836D01*
X-9260Y37835D01*
X-9261Y37819D01*
X-9261Y37790D01*
X-9264Y37761D01*
X-9264Y37734D01*
X-9264Y37734D01*
X-9264Y37733D01*
Y36291D01*
Y36289D01*
X-9264Y36287D01*
Y36287D01*
X-9264Y36287D01*
X-9264Y36286D01*
X-9264Y36259D01*
X-9261Y36232D01*
Y36230D01*
X-9261Y36230D01*
X-9262Y36205D01*
X-9262Y36205D01*
X-9261Y36202D01*
Y36200D01*
X-9255Y36171D01*
X-9252Y36141D01*
X-9245Y36115D01*
X-9239Y36089D01*
X-9238Y36086D01*
X-9238Y36084D01*
X-9237Y36080D01*
X-9225Y36053D01*
X-9217Y36025D01*
X-9215Y36019D01*
X-9206Y36004D01*
X-9204Y35996D01*
X-9204Y35996D01*
X-9197Y35984D01*
X-9195Y35979D01*
X-9195Y35979D01*
X-9193Y35974D01*
X-9189Y35966D01*
X-9187Y35962D01*
X-9187Y35961D01*
X-9185Y35957D01*
X-9174Y35942D01*
X-9166Y35925D01*
X-9159Y35916D01*
X-9159Y35915D01*
X-9157Y35913D01*
X-9154Y35908D01*
X-9151Y35904D01*
X-9145Y35893D01*
X-9134Y35881D01*
X-9129Y35872D01*
X-9128Y35871D01*
X-9123Y35864D01*
X-9121Y35861D01*
D01*
X-9119Y35859D01*
X-9106Y35846D01*
X-9095Y35831D01*
X-9094Y35831D01*
X-9086Y35823D01*
X-9080Y35816D01*
X-9080Y35816D01*
X-9080Y35816D01*
X-9074Y35811D01*
X-9072Y35809D01*
X-9068Y35804D01*
X-9060Y35798D01*
D01*
X-9055Y35794D01*
X-9048Y35786D01*
X-9046Y35785D01*
X-9041Y35779D01*
X-9039Y35778D01*
X-9036Y35776D01*
X-9036Y35775D01*
X-9029Y35771D01*
D01*
X-9022Y35766D01*
X-9021Y35765D01*
X-9018Y35763D01*
X-9006Y35752D01*
X-8999Y35748D01*
D01*
X-8999Y35748D01*
X-8989Y35740D01*
X-8982Y35735D01*
X-8975Y35732D01*
X-8975Y35731D01*
X-8973Y35730D01*
X-8966Y35726D01*
X-8966Y35726D01*
X-8958Y35722D01*
X-8952Y35718D01*
X-8951Y35717D01*
X-8946Y35714D01*
X-8942Y35711D01*
X-8940Y35710D01*
D01*
X-8940Y35710D01*
X-8938Y35709D01*
X-8928Y35704D01*
X-8925Y35703D01*
X-8922Y35701D01*
X-8917Y35698D01*
X-8907Y35694D01*
X-8903Y35693D01*
X-8886Y35683D01*
X-8884Y35682D01*
X-8884Y35682D01*
X-8884Y35682D01*
X-8878Y35679D01*
X-8873Y35677D01*
X-8872Y35677D01*
X-8872Y35677D01*
X-8872Y35677D01*
X-8870Y35676D01*
X-8863Y35674D01*
X-8862Y35673D01*
X-8851Y35670D01*
X-8848Y35669D01*
X-8846Y35668D01*
X-8834Y35662D01*
X-8833Y35662D01*
X-8830Y35661D01*
X-8829Y35661D01*
X-8827Y35660D01*
X-8822Y35658D01*
X-8821Y35658D01*
X-8817Y35657D01*
X-8814Y35656D01*
X-8811Y35655D01*
X-8810Y35655D01*
X-8791Y35651D01*
X-8773Y35645D01*
X-8771Y35645D01*
X-8769Y35644D01*
X-8766Y35644D01*
X-8765Y35644D01*
X-8765Y35644D01*
X-8749Y35639D01*
X-8727Y35637D01*
X-8706Y35632D01*
X-8669Y35631D01*
X-8665Y35631D01*
X-8663Y35630D01*
X-8662Y35630D01*
X-8660D01*
X-8631Y35627D01*
X-8604Y35627D01*
X-8604D01*
X-8603Y35627D01*
X-8602Y35627D01*
X-7090D01*
Y30515D01*
X-8164D01*
X-8193Y30512D01*
X-8222Y30512D01*
X-8628Y30473D01*
X-8649Y30469D01*
X-8649D01*
X-8656Y30468D01*
X-8665Y30466D01*
X-8687Y30464D01*
X-8707Y30460D01*
X-8707D01*
X-8723Y30455D01*
X-8755Y30450D01*
X-8763Y30447D01*
X-8772Y30445D01*
X-8813Y30428D01*
X-8820Y30426D01*
X-8826Y30423D01*
X-8866Y30408D01*
X-8873Y30404D01*
X-8882Y30400D01*
X-8924Y30372D01*
X-8966Y30346D01*
X-8972Y30340D01*
X-8980Y30334D01*
X-9015Y30299D01*
X-9052Y30265D01*
X-9057Y30257D01*
X-9064Y30251D01*
X-9091Y30209D01*
X-9121Y30169D01*
X-9124Y30160D01*
X-9129Y30153D01*
X-9145Y30114D01*
X-9149Y30109D01*
X-9151Y30101D01*
X-9169Y30061D01*
X-9171Y30052D01*
X-9175Y30044D01*
X-9181Y30013D01*
X-9186Y29997D01*
X-9186Y29996D01*
X-9191Y29976D01*
X-9194Y29954D01*
X-9196Y29946D01*
X-9197Y29939D01*
X-9199Y29938D01*
X-9216Y29808D01*
X-9743Y29628D01*
X-9847Y29732D01*
X-10530Y30415D01*
X-10638Y30507D01*
X-10758Y30581D01*
X-10889Y30635D01*
X-11027Y30668D01*
X-11168Y30680D01*
X-14318D01*
X-14459Y30668D01*
X-14570Y30642D01*
X-14597Y30635D01*
X-14651Y30613D01*
X-14728Y30581D01*
X-14761Y30560D01*
X-14848Y30507D01*
X-14956Y30415D01*
X-19930Y25442D01*
X-20022Y25334D01*
X-20096Y25213D01*
X-20150Y25082D01*
X-20183Y24944D01*
X-20194Y24803D01*
Y21240D01*
X-21549Y19886D01*
X-21576Y19858D01*
X-22038Y20050D01*
Y20088D01*
X-25600D01*
Y19013D01*
X-28832D01*
X-28973Y19002D01*
X-29111Y18969D01*
X-29242Y18915D01*
X-29363Y18841D01*
X-29471Y18749D01*
X-30447Y17772D01*
X-30539Y17664D01*
X-30613Y17544D01*
X-30619Y17529D01*
X-32884D01*
Y15921D01*
X-33851Y14954D01*
X-33964Y14822D01*
X-34054Y14674D01*
X-34120Y14514D01*
X-34161Y14346D01*
X-34174Y14174D01*
Y13789D01*
X-34458D01*
Y13780D01*
Y9046D01*
X-34174D01*
Y8441D01*
X-34226Y8289D01*
X-34267Y8083D01*
X-34281Y7874D01*
X-34267Y7665D01*
X-34226Y7459D01*
X-34209Y7408D01*
X-34398Y7018D01*
X-34605Y6808D01*
X-34646D01*
X-34787Y6797D01*
X-34925Y6764D01*
X-35056Y6710D01*
X-35176Y6636D01*
X-35284Y6544D01*
X-38059Y3769D01*
X-38151Y3661D01*
X-38225Y3541D01*
X-38279Y3410D01*
X-38312Y3272D01*
X-38323Y3131D01*
Y-6691D01*
X-38312Y-6832D01*
X-38279Y-6970D01*
X-38225Y-7101D01*
X-38151Y-7221D01*
X-38059Y-7329D01*
X-32939Y-12449D01*
X-32831Y-12541D01*
X-32710Y-12615D01*
X-32579Y-12670D01*
X-32441Y-12703D01*
X-32300Y-12714D01*
X-31083D01*
X-26940Y-16856D01*
X-26979Y-16915D01*
X-27072Y-17103D01*
X-27139Y-17301D01*
X-27180Y-17507D01*
X-27180Y-17509D01*
X-27456Y-17780D01*
X-27527Y-17823D01*
X-27783Y-17905D01*
X-27911Y-17859D01*
X-28193Y-17788D01*
X-28481Y-17745D01*
X-28772Y-17731D01*
X-29062Y-17745D01*
X-29350Y-17788D01*
X-29633Y-17859D01*
X-29907Y-17957D01*
X-30170Y-18081D01*
X-30419Y-18231D01*
X-30653Y-18404D01*
X-30869Y-18600D01*
X-31064Y-18815D01*
X-31238Y-19049D01*
X-31387Y-19299D01*
X-31512Y-19562D01*
X-31610Y-19836D01*
X-31680Y-20118D01*
X-31723Y-20406D01*
X-31737Y-20697D01*
X-31723Y-20988D01*
X-31680Y-21275D01*
X-31610Y-21558D01*
X-31512Y-21832D01*
X-31387Y-22095D01*
X-31238Y-22344D01*
X-31064Y-22578D01*
X-30869Y-22794D01*
X-30653Y-22989D01*
X-30419Y-23163D01*
X-30170Y-23312D01*
X-29907Y-23437D01*
X-29633Y-23535D01*
X-29350Y-23606D01*
X-29062Y-23648D01*
X-28772Y-23663D01*
X-28481Y-23648D01*
X-28319Y-23624D01*
X-28181Y-23702D01*
X-28075Y-23806D01*
X-27875Y-24145D01*
X-27893Y-24194D01*
X-27964Y-24476D01*
X-28006Y-24764D01*
X-28021Y-25055D01*
X-28006Y-25346D01*
X-27964Y-25634D01*
X-27893Y-25916D01*
X-27795Y-26190D01*
X-27670Y-26453D01*
X-27521Y-26703D01*
X-27347Y-26936D01*
X-27152Y-27152D01*
X-26936Y-27347D01*
X-26703Y-27521D01*
X-26453Y-27670D01*
X-26190Y-27795D01*
X-25916Y-27893D01*
X-25634Y-27964D01*
X-25346Y-28006D01*
X-25055Y-28021D01*
X-24764Y-28006D01*
X-24476Y-27964D01*
X-24194Y-27893D01*
X-24144Y-27875D01*
X-23694Y-28195D01*
X-23624Y-28319D01*
X-23652Y-28539D01*
X-23661Y-28830D01*
X-23641Y-29121D01*
X-23592Y-29408D01*
X-23516Y-29689D01*
X-23413Y-29961D01*
X-23283Y-30221D01*
X-23128Y-30468D01*
X-22951Y-30698D01*
X-22751Y-30910D01*
X-22531Y-31101D01*
X-22294Y-31270D01*
X-22042Y-31414D01*
X-21776Y-31534D01*
X-21500Y-31626D01*
X-21217Y-31692D01*
X-20928Y-31729D01*
X-20637Y-31737D01*
X-20347Y-31717D01*
X-20060Y-31669D01*
X-19779Y-31593D01*
X-19507Y-31489D01*
X-19246Y-31360D01*
X-19000Y-31205D01*
X-18769Y-31027D01*
X-18557Y-30828D01*
X-18366Y-30608D01*
X-18198Y-30371D01*
X-18053Y-30118D01*
X-17933Y-29853D01*
X-17841Y-29577D01*
X-17776Y-29293D01*
X-17739Y-29005D01*
X-17730Y-28714D01*
X-17750Y-28423D01*
X-17798Y-28136D01*
X-17875Y-27856D01*
X-17880Y-27842D01*
X-17530Y-27322D01*
X-17458Y-27281D01*
X-13789D01*
Y-27933D01*
X-13795Y-27936D01*
X-13916Y-28010D01*
X-14024Y-28102D01*
X-14780Y-28858D01*
X-14872Y-28966D01*
X-14946Y-29086D01*
X-15000Y-29217D01*
X-15033Y-29355D01*
X-15044Y-29496D01*
Y-30502D01*
X-17332D01*
Y-34064D01*
X-14558D01*
Y-33532D01*
X-14389Y-33387D01*
X-13789Y-33663D01*
Y-34064D01*
X-11014D01*
Y-33452D01*
X-10436Y-33046D01*
X-10277Y-33054D01*
X-9952Y-33241D01*
X-9859Y-33364D01*
X-9814Y-33455D01*
X-9697Y-33630D01*
X-9559Y-33787D01*
X-9401Y-33926D01*
X-9227Y-34042D01*
X-9038Y-34135D01*
X-8840Y-34202D01*
X-8634Y-34243D01*
X-8425Y-34257D01*
X-8216Y-34243D01*
X-8010Y-34202D01*
X-7811Y-34135D01*
X-7623Y-34042D01*
X-7485Y-33950D01*
X-6431Y-35003D01*
X-6324Y-35095D01*
X-6203Y-35169D01*
X-6072Y-35223D01*
X-5934Y-35256D01*
X-5793Y-35267D01*
X-3262D01*
X-3121Y-35256D01*
X-2983Y-35223D01*
X-2852Y-35169D01*
X-2732Y-35095D01*
X-2624Y-35003D01*
X-1637Y-34016D01*
X-1630Y-34014D01*
X-1471Y-33949D01*
X-1325Y-33859D01*
X-1194Y-33747D01*
X-1082Y-33616D01*
X-992Y-33470D01*
X-927Y-33311D01*
X-886Y-33144D01*
X-873Y-32972D01*
Y-30807D01*
X-886Y-30636D01*
X-927Y-30469D01*
X-992Y-30310D01*
X-1082Y-30163D01*
X-1194Y-30033D01*
X-1325Y-29921D01*
X-1471Y-29831D01*
X-1630Y-29765D01*
X-1797Y-29725D01*
X-1969Y-29712D01*
X-2140Y-29725D01*
X-2307Y-29765D01*
X-2466Y-29831D01*
X-2612Y-29921D01*
X-2814Y-30033D01*
X-3091D01*
X-3293Y-29921D01*
X-3440Y-29831D01*
X-3599Y-29765D01*
X-3766Y-29725D01*
X-3937Y-29712D01*
X-4108Y-29725D01*
X-4276Y-29765D01*
X-4434Y-29831D01*
X-4581Y-29921D01*
X-4712Y-30033D01*
X-4823Y-30163D01*
X-4846Y-30200D01*
X-5491D01*
X-5497Y-30106D01*
X-5538Y-29900D01*
X-5605Y-29701D01*
X-5698Y-29513D01*
X-5815Y-29339D01*
X-5821Y-29332D01*
X-5834Y-29311D01*
X-5996Y-28794D01*
X-5905Y-28597D01*
X-5905Y-28597D01*
X-5877Y-28551D01*
X-5815Y-28450D01*
X-5750Y-28291D01*
X-5709Y-28124D01*
X-5696Y-27953D01*
X-5709Y-27781D01*
X-5750Y-27614D01*
X-5815Y-27455D01*
X-5905Y-27309D01*
X-6017Y-27107D01*
Y-26830D01*
X-5905Y-26628D01*
X-5815Y-26482D01*
X-5750Y-26323D01*
X-5709Y-26156D01*
X-5696Y-25984D01*
X-5709Y-25813D01*
X-5750Y-25646D01*
X-5815Y-25487D01*
X-5905Y-25340D01*
X-6017Y-25138D01*
Y-24862D01*
X-5905Y-24660D01*
X-5815Y-24513D01*
X-5750Y-24354D01*
X-5709Y-24187D01*
X-5696Y-24016D01*
X-5709Y-23844D01*
X-5750Y-23677D01*
X-5815Y-23518D01*
X-5905Y-23372D01*
X-6017Y-23170D01*
Y-22893D01*
X-5905Y-22691D01*
X-5815Y-22545D01*
X-5750Y-22386D01*
X-5709Y-22219D01*
X-5696Y-22047D01*
X-5709Y-21876D01*
X-5750Y-21709D01*
X-5815Y-21550D01*
X-5905Y-21403D01*
X-6017Y-21201D01*
Y-20925D01*
X-5905Y-20723D01*
X-5815Y-20576D01*
X-5750Y-20417D01*
X-5709Y-20250D01*
X-5696Y-20079D01*
X-5709Y-19907D01*
X-5750Y-19740D01*
X-5815Y-19581D01*
X-5905Y-19435D01*
X-6017Y-19304D01*
X-6147Y-19193D01*
X-6294Y-19103D01*
X-6453Y-19037D01*
X-6620Y-18997D01*
X-6791Y-18983D01*
X-7780D01*
X-8010Y-18429D01*
X-6625Y-17044D01*
X-5032D01*
Y-17224D01*
X-5019Y-17396D01*
X-4979Y-17563D01*
X-4913Y-17722D01*
X-4823Y-17868D01*
X-4712Y-17999D01*
X-4581Y-18111D01*
X-4434Y-18201D01*
X-4276Y-18266D01*
X-4108Y-18306D01*
X-3937Y-18320D01*
X-3766Y-18306D01*
X-3599Y-18266D01*
X-3440Y-18201D01*
X-3293Y-18111D01*
X-3091Y-17999D01*
X-2814D01*
X-2612Y-18111D01*
X-2466Y-18201D01*
X-2307Y-18266D01*
X-2140Y-18306D01*
X-1969Y-18320D01*
X-1797Y-18306D01*
X-1630Y-18266D01*
X-1471Y-18201D01*
X-1325Y-18111D01*
X-1123Y-17999D01*
X-846D01*
X-644Y-18111D01*
X-497Y-18201D01*
X-338Y-18266D01*
X-171Y-18306D01*
X0Y-18320D01*
X171Y-18306D01*
X338Y-18266D01*
X497Y-18201D01*
X644Y-18111D01*
X846Y-17999D01*
X1123D01*
X1325Y-18111D01*
X1471Y-18201D01*
X1630Y-18266D01*
X1797Y-18306D01*
X1969Y-18320D01*
X2140Y-18306D01*
X2307Y-18266D01*
X2466Y-18201D01*
X2612Y-18111D01*
X2814Y-17999D01*
X3091D01*
X3293Y-18111D01*
X3440Y-18201D01*
X3599Y-18266D01*
X3766Y-18306D01*
X3937Y-18320D01*
X4108Y-18306D01*
X4276Y-18266D01*
X4434Y-18201D01*
X4581Y-18111D01*
X4712Y-17999D01*
X5317Y-18141D01*
X5875Y-18698D01*
X6017Y-19304D01*
X5905Y-19435D01*
X5815Y-19581D01*
X5750Y-19740D01*
X5709Y-19907D01*
X5696Y-20079D01*
X5709Y-20250D01*
X5750Y-20417D01*
X5815Y-20576D01*
X5905Y-20723D01*
X6017Y-20925D01*
Y-21201D01*
X5905Y-21403D01*
X5815Y-21550D01*
X5750Y-21709D01*
X5709Y-21876D01*
X5696Y-22047D01*
X5709Y-22219D01*
X5750Y-22386D01*
X5815Y-22545D01*
X5905Y-22691D01*
X6017Y-22893D01*
Y-23170D01*
X5905Y-23372D01*
X5815Y-23518D01*
X5750Y-23677D01*
X5709Y-23844D01*
X5696Y-24016D01*
X5709Y-24187D01*
X5750Y-24354D01*
X5815Y-24513D01*
X5905Y-24660D01*
X6017Y-24862D01*
Y-25138D01*
X5905Y-25340D01*
X5815Y-25487D01*
X5750Y-25646D01*
X5709Y-25813D01*
X5696Y-25984D01*
X5709Y-26156D01*
X5750Y-26323D01*
X5815Y-26482D01*
X5905Y-26628D01*
X6017Y-26830D01*
Y-27107D01*
X5905Y-27309D01*
X5815Y-27455D01*
X5750Y-27614D01*
X5709Y-27781D01*
X5696Y-27953D01*
X5709Y-28124D01*
X5750Y-28291D01*
X5815Y-28450D01*
X5905Y-28597D01*
X6017Y-28727D01*
X6147Y-28839D01*
X5872Y-29374D01*
X5786Y-29481D01*
X5443D01*
X5302Y-29492D01*
X5164Y-29525D01*
X5034Y-29579D01*
X4913Y-29653D01*
X4805Y-29745D01*
X4607Y-29943D01*
X4581Y-29921D01*
X4434Y-29831D01*
X4276Y-29765D01*
X4108Y-29725D01*
X3937Y-29712D01*
X3766Y-29725D01*
X3599Y-29765D01*
X3440Y-29831D01*
X3293Y-29921D01*
X3091Y-30033D01*
X2814D01*
X2612Y-29921D01*
X2466Y-29831D01*
X2307Y-29765D01*
X2140Y-29725D01*
X1969Y-29712D01*
X1797Y-29725D01*
X1630Y-29765D01*
X1471Y-29831D01*
X1325Y-29921D01*
X1194Y-30033D01*
X1082Y-30163D01*
X992Y-30310D01*
X927Y-30469D01*
X886Y-30636D01*
X873Y-30807D01*
Y-32972D01*
X886Y-33144D01*
X927Y-33311D01*
X965Y-33405D01*
Y-34440D01*
X384D01*
Y-38002D01*
X3159D01*
Y-37424D01*
X6693D01*
X6881Y-37410D01*
X7065Y-37366D01*
X7239Y-37293D01*
X7400Y-37195D01*
X7544Y-37072D01*
X8747Y-35868D01*
X14548D01*
X14736Y-35853D01*
X14920Y-35809D01*
X15094Y-35737D01*
X15256Y-35638D01*
X15399Y-35516D01*
X16796Y-34119D01*
X16842Y-34064D01*
X17334D01*
Y-32598D01*
X28607Y-21325D01*
X28730Y-21182D01*
X28828Y-21021D01*
X28858Y-20948D01*
X28901Y-20846D01*
X28945Y-20662D01*
X28960Y-20474D01*
Y-19891D01*
X29143D01*
Y-19314D01*
X29528D01*
X29716Y-19299D01*
X29900Y-19255D01*
X30074Y-19182D01*
X30235Y-19084D01*
X30379Y-18961D01*
X32347Y-16993D01*
X32470Y-16849D01*
X32569Y-16688D01*
X32641Y-16514D01*
X32685Y-16330D01*
X32700Y-16142D01*
Y-15856D01*
X33868D01*
Y-10522D01*
X33868Y-10522D01*
X33868D01*
X34235Y-10097D01*
X37323Y-7008D01*
X37426Y-6889D01*
X37508Y-6755D01*
X37568Y-6609D01*
X37605Y-6456D01*
X37617Y-6299D01*
Y7087D01*
X37605Y7243D01*
X37568Y7397D01*
X37508Y7542D01*
X37426Y7676D01*
X37323Y7796D01*
X30768Y14351D01*
X30826Y14951D01*
X31112D01*
Y19694D01*
X29605D01*
X29537Y20267D01*
X29537D01*
Y23829D01*
X26762D01*
Y20267D01*
X27147D01*
Y18898D01*
X27159Y18741D01*
X27196Y18588D01*
X27256Y18442D01*
X27338Y18308D01*
X27440Y18188D01*
X28337Y17292D01*
Y14951D01*
X28721D01*
Y13976D01*
X28734Y13819D01*
X28770Y13666D01*
X28831Y13521D01*
X28913Y13387D01*
X29015Y13267D01*
X30649Y11633D01*
X30401Y11033D01*
X28337D01*
Y6886D01*
X28337Y6729D01*
X28320Y6507D01*
X27876Y6115D01*
X27693Y6099D01*
X27666Y6101D01*
X27506Y6168D01*
X27338Y6208D01*
X27165Y6222D01*
X24079D01*
X21253Y9048D01*
X21121Y9160D01*
X20973Y9251D01*
X20813Y9317D01*
X20645Y9358D01*
X20472Y9371D01*
X18616D01*
X18589Y9402D01*
X18431Y9540D01*
X18257Y9656D01*
X18069Y9749D01*
X17870Y9816D01*
X17665Y9857D01*
X17455Y9871D01*
X17246Y9857D01*
X17040Y9816D01*
X16842Y9749D01*
X16654Y9656D01*
X16479Y9540D01*
X16322Y9402D01*
X16183Y9244D01*
X15622Y9484D01*
X15514Y9573D01*
Y10784D01*
X15717Y10996D01*
X15828Y11101D01*
X15856Y11122D01*
X15944Y11172D01*
X16014Y11203D01*
X16031Y11208D01*
X19655D01*
X19685Y11211D01*
X19715Y11211D01*
X19744Y11217D01*
X19773Y11220D01*
X19775Y11220D01*
X19797Y11225D01*
X19797Y11225D01*
X19798Y11225D01*
X19824Y11233D01*
X19831Y11234D01*
X19833Y11235D01*
X19839Y11237D01*
X19911Y11259D01*
X20015Y11315D01*
X20015Y11315D01*
X20070Y11360D01*
X20106Y11390D01*
X20106Y11390D01*
X20106Y11390D01*
X20130Y11419D01*
X20181Y11481D01*
X20237Y11585D01*
X20259Y11657D01*
X20261Y11663D01*
X20262Y11665D01*
X20263Y11672D01*
X20271Y11698D01*
X20271Y11699D01*
X20271Y11699D01*
X20276Y11721D01*
X20276Y11723D01*
X20279Y11752D01*
X20285Y11781D01*
X20285Y11811D01*
X20288Y11841D01*
Y19655D01*
X20285Y19685D01*
X20285Y19715D01*
X20279Y19744D01*
X20276Y19773D01*
X20276Y19775D01*
X20271Y19797D01*
X20271Y19797D01*
X20271Y19798D01*
X20263Y19824D01*
X20262Y19831D01*
X20261Y19833D01*
X20259Y19839D01*
X20237Y19911D01*
X20181Y20015D01*
X20181Y20015D01*
X20136Y20070D01*
X20106Y20106D01*
X20106Y20106D01*
X20106Y20106D01*
X20077Y20130D01*
X20015Y20181D01*
X19911Y20237D01*
X19839Y20259D01*
X19833Y20261D01*
X19831Y20262D01*
X19824Y20263D01*
X19798Y20271D01*
X19797Y20271D01*
X19797Y20271D01*
X19775Y20276D01*
X19773Y20276D01*
X19744Y20279D01*
X19715Y20285D01*
X19685Y20285D01*
X19655Y20288D01*
X3967D01*
X3943Y20286D01*
X3920Y20286D01*
X3920Y20286D01*
X3913Y20285D01*
X3905Y20285D01*
X3877Y20279D01*
X3849Y20276D01*
X3848Y20276D01*
X3848Y20276D01*
X3822Y20271D01*
X3805Y20266D01*
X3804Y20266D01*
X3802Y20265D01*
X3793Y20262D01*
X3790Y20261D01*
X3789Y20261D01*
X3786Y20260D01*
X3709Y20236D01*
X3636Y20198D01*
X3634Y20197D01*
X3633Y20196D01*
X3631Y20195D01*
X3628Y20194D01*
X3626Y20192D01*
X3604Y20181D01*
X3582Y20166D01*
X3582Y20166D01*
X3581Y20165D01*
X3559Y20147D01*
X3535Y20131D01*
X3533Y20129D01*
X3530Y20127D01*
X3530Y20127D01*
X3511Y20108D01*
X3490Y20090D01*
X3470Y20071D01*
X3470Y20071D01*
X2112Y18713D01*
X-4492D01*
X-4513Y18711D01*
X-4527Y18712D01*
X-4534Y18711D01*
X-4535Y18711D01*
X-4535Y18711D01*
X-4536Y18711D01*
X-4542Y18710D01*
X-4546Y18710D01*
X-4557Y18710D01*
X-4557Y18710D01*
X-4568Y18707D01*
X-4581Y18707D01*
X-4586Y18706D01*
X-4598Y18703D01*
X-4610Y18702D01*
X-4615Y18700D01*
X-4630Y18699D01*
X-4639Y18696D01*
X-4651Y18694D01*
X-4657Y18692D01*
X-4700Y18677D01*
X-4743Y18664D01*
X-4755Y18657D01*
X-4769Y18653D01*
X-4807Y18629D01*
X-4814Y18626D01*
X-4832Y18638D01*
X-4841Y18641D01*
X-4848Y18646D01*
X-4868Y18654D01*
X-4887Y18664D01*
X-4915Y18672D01*
X-4920Y18674D01*
X-4941Y18683D01*
X-4941Y18683D01*
X-4941Y18683D01*
X-4942Y18684D01*
X-4951Y18685D01*
X-4959Y18688D01*
X-4980Y18692D01*
X-5001Y18698D01*
X-5026Y18701D01*
X-5026Y18701D01*
X-5027Y18701D01*
X-5029Y18701D01*
X-5029Y18701D01*
X-5030Y18702D01*
X-5031Y18702D01*
X-5057Y18707D01*
X-5058Y18707D01*
X-5058D01*
X-5084Y18710D01*
X-5086Y18710D01*
X-5088Y18710D01*
X-5088Y18710D01*
X-5117Y18710D01*
X-5144Y18713D01*
X-5146Y18713D01*
X-5148Y18713D01*
X-8576D01*
X-8601Y18711D01*
D01*
X-8601Y18711D01*
X-8607Y18711D01*
X-8621Y18709D01*
X-8621Y18709D01*
D01*
X-8648Y18709D01*
X-8663Y18707D01*
X-8683Y18703D01*
X-8694Y18702D01*
X-8696Y18701D01*
D01*
D01*
X-8709Y18700D01*
X-8716Y18698D01*
X-8716D01*
X-8717Y18697D01*
X-8725Y18696D01*
X-8727Y18696D01*
X-8727Y18696D01*
X-8727Y18696D01*
X-8727Y18696D01*
X-8728Y18696D01*
X-8729Y18695D01*
X-8729Y18695D01*
X-8754Y18687D01*
X-8755Y18687D01*
D01*
X-8778Y18682D01*
X-8799Y18672D01*
X-8800Y18672D01*
X-8815Y18668D01*
X-8818Y18667D01*
X-8819Y18666D01*
X-8819Y18666D01*
X-8822Y18665D01*
X-8827Y18663D01*
X-8827Y18663D01*
X-8827Y18663D01*
X-8839Y18659D01*
X-8849Y18654D01*
X-8875Y18639D01*
X-8876Y18639D01*
D01*
X-8883Y18637D01*
X-8894Y18630D01*
D01*
X-8895Y18629D01*
X-8921Y18616D01*
X-8934Y18608D01*
X-8943Y18602D01*
X-8952Y18597D01*
X-8967Y18585D01*
X-8967Y18584D01*
X-8983Y18575D01*
X-9020Y18547D01*
X-9029Y18538D01*
X-9040Y18530D01*
X-9047Y18524D01*
X-9067Y18505D01*
X-9088Y18487D01*
X-9102Y18470D01*
X-9106Y18466D01*
X-9110Y18461D01*
D01*
X-9130Y18440D01*
X-9145Y18417D01*
X-9163Y18396D01*
X-9223Y18335D01*
X-9483Y18274D01*
X-9674Y18307D01*
X-9843Y18320D01*
X-10011Y18307D01*
X-10175Y18267D01*
X-10331Y18203D01*
X-10475Y18114D01*
X-10543Y18056D01*
X-10603Y18005D01*
X-10713Y17876D01*
X-10801Y17732D01*
X-10866Y17576D01*
X-10905Y17412D01*
X-10918Y17244D01*
Y15827D01*
X-10905Y15658D01*
X-10866Y15494D01*
X-10801Y15338D01*
X-10761Y15273D01*
X-10879Y14773D01*
X-12214D01*
Y13780D01*
Y11230D01*
X-14970D01*
Y8354D01*
X-15054Y8270D01*
X-18411D01*
X-22038Y11897D01*
Y13395D01*
X-25600D01*
Y10621D01*
X-23661D01*
X-23540Y10452D01*
X-23847Y9852D01*
X-25600D01*
Y9367D01*
X-26565D01*
Y13780D01*
Y13789D01*
X-28811D01*
X-28906Y13892D01*
Y16760D01*
X-28458Y17208D01*
X-24409D01*
X-24268Y17219D01*
X-24130Y17252D01*
X-24000Y17306D01*
X-23987Y17313D01*
X-23651D01*
X-23638Y17306D01*
X-23507Y17252D01*
X-23370Y17219D01*
X-23228Y17208D01*
X-22047D01*
X-21906Y17219D01*
X-21768Y17252D01*
X-21637Y17306D01*
X-21517Y17380D01*
X-21409Y17472D01*
X-18653Y20228D01*
X-18561Y20335D01*
X-18487Y20456D01*
X-18433Y20587D01*
X-18427Y20609D01*
X-18400Y20725D01*
X-18389Y20866D01*
Y24429D01*
X-15410Y27408D01*
X-15317Y27501D01*
X-14855Y27309D01*
Y27178D01*
Y26850D01*
X-14842Y26682D01*
X-14803Y26518D01*
X-14738Y26362D01*
X-14650Y26218D01*
X-14540Y26090D01*
X-14412Y25980D01*
X-14268Y25892D01*
X-14112Y25827D01*
X-13948Y25788D01*
X-13780Y25775D01*
X-13611Y25788D01*
X-13447Y25827D01*
X-13291Y25892D01*
X-13147Y25980D01*
X-13019Y26090D01*
X-12909Y26218D01*
X-12821Y26362D01*
X-12756Y26518D01*
X-12717Y26682D01*
X-12704Y26850D01*
Y28268D01*
X-12712Y28374D01*
X-12681Y28484D01*
X-12437Y28804D01*
X-12329Y28874D01*
X-11542D01*
X-10918Y28250D01*
Y26850D01*
X-10905Y26682D01*
X-10866Y26518D01*
X-10801Y26362D01*
X-10713Y26218D01*
X-10603Y26090D01*
X-10475Y25980D01*
X-10331Y25892D01*
X-10175Y25827D01*
X-10011Y25788D01*
X-9843Y25775D01*
X-9674Y25788D01*
X-9667Y25789D01*
X-9510Y25827D01*
X-9297Y25842D01*
X-9271Y25819D01*
X-9267Y25819D01*
X-9144Y25716D01*
X-9138Y25708D01*
X-9116Y25683D01*
X-9104Y25668D01*
X-9101Y25663D01*
X-9099Y25661D01*
X-9099Y25661D01*
X-9099Y25661D01*
X-9098Y25659D01*
X-9095Y25657D01*
X-9095Y25656D01*
X-9092Y25653D01*
X-9078Y25640D01*
X-9073Y25633D01*
X-9073Y25633D01*
X-9070Y25630D01*
X-9067Y25628D01*
X-9059Y25618D01*
X-9056Y25615D01*
X-9056Y25615D01*
X-9055Y25614D01*
X-9055Y25614D01*
X-9055Y25614D01*
X-9055Y25614D01*
X-9054Y25614D01*
X-9054Y25614D01*
X-9054Y25613D01*
X-9050Y25609D01*
X-9050Y25609D01*
X-9050Y25609D01*
X-9050Y25608D01*
X-9050Y25608D01*
X-9040Y25599D01*
X-9038Y25596D01*
X-9038Y25596D01*
X-9030Y25587D01*
X-9030D01*
X-9023Y25581D01*
X-9018Y25575D01*
X-9016Y25573D01*
X-9016Y25573D01*
X-9015Y25573D01*
X-9015Y25572D01*
X-9014Y25571D01*
X-9014Y25571D01*
X-9014Y25571D01*
X-9013Y25570D01*
X-9013Y25570D01*
X-9012Y25570D01*
X-9004Y25563D01*
X-8999Y25557D01*
X-8995Y25554D01*
X-8991Y25550D01*
X-8986Y25546D01*
X-8982Y25542D01*
X-8980Y25541D01*
X-8976Y25537D01*
X-8976Y25536D01*
X-8970Y25531D01*
X-8965Y25526D01*
X-8965Y25526D01*
X-8958Y25521D01*
X-8938Y25507D01*
X-8935Y25505D01*
X-8933Y25503D01*
X-8925Y25499D01*
X-8898Y25478D01*
X-8878Y25468D01*
X-8860Y25455D01*
X-8843Y25449D01*
X-8843Y25448D01*
X-8838Y25446D01*
X-8829Y25441D01*
X-8815Y25436D01*
X-8793Y25425D01*
X-8788Y25423D01*
X-8767Y25417D01*
X-8752Y25411D01*
X-8738Y25408D01*
X-8719Y25401D01*
X-8698Y25398D01*
X-8677Y25392D01*
X-8674Y25391D01*
X-8654Y25390D01*
X-8651Y25389D01*
X-8651Y25389D01*
X-8643Y25389D01*
X-8635Y25387D01*
X-8635Y25387D01*
X-8625Y25386D01*
X-8625Y25386D01*
X-8620Y25386D01*
X-8598Y25383D01*
X-8593Y25383D01*
X-8575Y25383D01*
X-8554Y25381D01*
X-5707D01*
X-5702Y25382D01*
X-5698Y25381D01*
X-5523Y25384D01*
X-5256Y25388D01*
X-5238Y25390D01*
X-5220Y25390D01*
X-5201Y25391D01*
X-5188Y25393D01*
X-5179Y25393D01*
X-5144Y25401D01*
X-5138Y25401D01*
X-5134Y25403D01*
X-5085Y25411D01*
X-5085Y25411D01*
X-5084Y25411D01*
X-5084Y25411D01*
X-5083Y25412D01*
X-5074Y25415D01*
X-5063Y25418D01*
X-5030Y25432D01*
X-5029Y25432D01*
X-5024Y25434D01*
X-5019Y25437D01*
X-4973Y25454D01*
X-4899Y25487D01*
X-4891Y25490D01*
X-4712Y25535D01*
X-4476Y25562D01*
X-4322Y25541D01*
X-4252Y25505D01*
X-4251Y25504D01*
X-4240Y25499D01*
X-4235Y25497D01*
X-4232Y25495D01*
X-4226Y25492D01*
X-4219Y25487D01*
X-4212Y25484D01*
X-4199Y25476D01*
X-4184Y25469D01*
X-4184Y25469D01*
X-4183Y25469D01*
X-4169Y25461D01*
X-4169Y25461D01*
X-4168Y25461D01*
X-4153Y25453D01*
X-4138Y25447D01*
X-4137Y25447D01*
X-4136Y25446D01*
X-4124Y25442D01*
X-4115Y25437D01*
X-4114Y25437D01*
X-4114Y25437D01*
X-4098Y25429D01*
X-4083Y25424D01*
X-4056Y25416D01*
X-4025Y25405D01*
X-4005Y25401D01*
X-3985Y25395D01*
X-3974Y25394D01*
X-3969Y25393D01*
X-3945Y25391D01*
X-3934Y25389D01*
X-3920Y25386D01*
X-3914Y25386D01*
X-3909Y25385D01*
X-3906Y25385D01*
X-3898Y25384D01*
X-3875D01*
X-3867Y25383D01*
X-3861D01*
X-3839Y25381D01*
X2112D01*
X3468Y24026D01*
X3468Y24025D01*
X3469Y24025D01*
X3477Y24017D01*
X3477Y24017D01*
X3477Y24017D01*
X3479Y24015D01*
X3480Y24014D01*
X3480Y24014D01*
X3483Y24012D01*
X3485Y24010D01*
X3485Y24010D01*
X3489Y24007D01*
X3492Y24003D01*
X3501Y23994D01*
X3511Y23987D01*
X3519Y23979D01*
X3521Y23977D01*
X3524Y23975D01*
X3529Y23970D01*
X3530Y23970D01*
X3535Y23965D01*
X3541Y23960D01*
X3553Y23952D01*
X3554Y23951D01*
X3555Y23950D01*
X3558Y23948D01*
X3564Y23943D01*
X3564Y23943D01*
X3565Y23942D01*
X3566Y23941D01*
X3573Y23937D01*
X3583Y23928D01*
X3594Y23921D01*
X3598Y23919D01*
X3600Y23917D01*
X3601Y23916D01*
X3602Y23916D01*
X3602Y23916D01*
X3602Y23915D01*
X3607Y23913D01*
X3612Y23909D01*
X3613Y23908D01*
X3615Y23907D01*
X3617Y23906D01*
X3618Y23905D01*
X3619Y23904D01*
X3621Y23903D01*
X3621Y23903D01*
X3638Y23895D01*
X3653Y23885D01*
X3660Y23882D01*
X3666Y23878D01*
X3667Y23878D01*
X3668Y23877D01*
X3668Y23877D01*
X3686Y23870D01*
X3696Y23864D01*
X3698Y23864D01*
X3705Y23859D01*
X3711Y23858D01*
X3712Y23857D01*
X3714Y23857D01*
X3718Y23855D01*
X3720Y23854D01*
X3723Y23852D01*
X3725Y23852D01*
X3727Y23851D01*
X3746Y23846D01*
X3751Y23844D01*
X3760Y23840D01*
X3761Y23840D01*
X3761Y23840D01*
X3761Y23839D01*
X3761Y23839D01*
X3762Y23839D01*
X3765Y23838D01*
X3774Y23836D01*
X3779Y23835D01*
X3790Y23833D01*
X3808Y23827D01*
X3809Y23826D01*
X3814Y23826D01*
X3819Y23824D01*
X3820Y23824D01*
X3823Y23824D01*
X3825Y23823D01*
X3825Y23823D01*
X3826Y23823D01*
X3826Y23823D01*
X3848Y23818D01*
X3849Y23818D01*
X3849Y23818D01*
X3871Y23816D01*
X3876Y23815D01*
X3877Y23815D01*
X3877Y23815D01*
X3877Y23815D01*
X3878Y23815D01*
X3878Y23815D01*
X3878Y23815D01*
X3898Y23811D01*
X3899Y23810D01*
X3903Y23810D01*
X3908Y23810D01*
X3908Y23810D01*
X3923Y23810D01*
X3937Y23807D01*
X3951Y23808D01*
X3966Y23807D01*
X3966Y23807D01*
X3967Y23807D01*
X3967D01*
X3967Y23807D01*
X3996D01*
X3996Y23807D01*
X19272D01*
X19273Y23807D01*
X19302D01*
X19306Y23807D01*
X19308Y23807D01*
X19320Y23808D01*
X19332Y23808D01*
X19346Y23810D01*
X19361Y23810D01*
X19388Y23815D01*
X19416Y23818D01*
X19417Y23818D01*
X19418Y23818D01*
X19419Y23818D01*
X19420Y23818D01*
X19420Y23818D01*
X19422Y23819D01*
X19425Y23819D01*
X19425Y23819D01*
X19437Y23823D01*
X19449Y23825D01*
X19463Y23830D01*
X19477Y23832D01*
X19477Y23833D01*
X19480Y23834D01*
X19481Y23834D01*
X19493Y23838D01*
X19496Y23839D01*
X19499Y23839D01*
X19512Y23844D01*
X19536Y23854D01*
X19551Y23858D01*
X19552Y23858D01*
X19553Y23859D01*
X19554Y23859D01*
X19568Y23864D01*
X19594Y23877D01*
X19622Y23889D01*
X19637Y23899D01*
X19639Y23900D01*
X19639Y23900D01*
X19649Y23907D01*
X19672Y23919D01*
X19687Y23929D01*
X19687Y23929D01*
X19687Y23929D01*
X19705Y23944D01*
X19725Y23956D01*
X19725Y23956D01*
X19731Y23962D01*
X19737Y23966D01*
X19757Y23986D01*
X19779Y24004D01*
X19799Y24025D01*
X19800Y24025D01*
X20069Y24294D01*
X20069Y24295D01*
X20070Y24295D01*
X20071Y24296D01*
X20071Y24296D01*
X20071Y24297D01*
X20090Y24316D01*
X20092Y24318D01*
X20095Y24320D01*
X20107Y24336D01*
X20122Y24350D01*
X20122Y24350D01*
X20125Y24355D01*
X20130Y24359D01*
X20135Y24367D01*
X20141Y24373D01*
X20141Y24373D01*
X20151Y24389D01*
X20153Y24392D01*
X20155Y24394D01*
X20165Y24407D01*
X20165Y24407D01*
X20165Y24407D01*
X20166Y24408D01*
X20166Y24408D01*
X20168Y24412D01*
X20169Y24412D01*
X20169Y24412D01*
X20169Y24413D01*
X20178Y24426D01*
X20178Y24427D01*
X20178Y24427D01*
X20179Y24427D01*
X20182Y24434D01*
X20187Y24440D01*
X20190Y24444D01*
X20196Y24456D01*
X20199Y24460D01*
X20202Y24467D01*
X20209Y24478D01*
X20210Y24479D01*
X20212Y24483D01*
X20215Y24490D01*
X20216Y24492D01*
X20221Y24505D01*
X20224Y24511D01*
X20236Y24534D01*
X20237Y24536D01*
X20237Y24537D01*
X20238Y24542D01*
X20243Y24550D01*
X20243Y24550D01*
X20243Y24550D01*
X20245Y24561D01*
X20249Y24567D01*
X20250Y24574D01*
X20252Y24579D01*
X20253Y24581D01*
X20255Y24586D01*
X20256Y24589D01*
X20257Y24592D01*
X20257Y24593D01*
X20263Y24620D01*
X20263Y24622D01*
X20264Y24624D01*
X20271Y24647D01*
X20271Y24648D01*
X20271Y24648D01*
X20271Y24650D01*
X20271Y24650D01*
X20271Y24650D01*
X20271Y24651D01*
X20272Y24652D01*
X20276Y24674D01*
X20276Y24675D01*
X20276Y24675D01*
X20278Y24691D01*
X20279Y24694D01*
X20279Y24698D01*
X20279Y24700D01*
X20279Y24702D01*
X20279Y24702D01*
X20279Y24703D01*
X20285Y24729D01*
X20285Y24734D01*
X20285Y24738D01*
X20285Y24738D01*
X20285Y24766D01*
X20288Y24793D01*
Y24822D01*
X20288Y24822D01*
X20288Y28637D01*
X20288Y28641D01*
X20288Y28645D01*
X20288Y28647D01*
X20288Y28649D01*
X20288Y28651D01*
X20288Y28654D01*
X20288Y28655D01*
X20288Y28656D01*
X20276Y29119D01*
X20273Y29141D01*
X20273Y29148D01*
X20272Y29156D01*
X20272Y29178D01*
X20269Y29200D01*
X20265Y29218D01*
X20261Y29252D01*
X20259Y29259D01*
X20259Y29265D01*
X20245Y29307D01*
X20243Y29315D01*
X20240Y29322D01*
X20227Y29365D01*
X20224Y29371D01*
X20222Y29378D01*
X20196Y29423D01*
X20190Y29435D01*
X20199Y29448D01*
X20209Y29470D01*
X20223Y29496D01*
X20226Y29502D01*
X20226Y29504D01*
X20227Y29506D01*
X20233Y29524D01*
X20235Y29530D01*
X20246Y29557D01*
X20253Y29586D01*
X20262Y29614D01*
X20265Y29637D01*
X20265Y29637D01*
X20266Y29643D01*
X20272Y29672D01*
X20275Y29695D01*
X20275Y29725D01*
X20279Y29755D01*
X20279Y29778D01*
X20279Y29779D01*
X20288Y30210D01*
X20287Y30216D01*
X20288Y30222D01*
Y33378D01*
X20287Y33386D01*
X20288Y33395D01*
X20284Y33424D01*
X20283Y33453D01*
X20279Y33474D01*
X20276Y33495D01*
X20274Y33504D01*
X20273Y33512D01*
X20264Y33540D01*
X20257Y33568D01*
X20248Y33588D01*
X20242Y33608D01*
X20238Y33616D01*
X20235Y33624D01*
X20221Y33650D01*
X20209Y33676D01*
X20196Y33694D01*
X20186Y33713D01*
X20181Y33719D01*
X20177Y33727D01*
X20157Y33749D01*
X20141Y33773D01*
X20125Y33788D01*
X20111Y33804D01*
X20105Y33809D01*
X20099Y33816D01*
X20076Y33834D01*
X20055Y33854D01*
X20037Y33865D01*
X20020Y33879D01*
X20012Y33883D01*
X20006Y33888D01*
X19609Y34138D01*
X19598Y34143D01*
X19587Y34151D01*
X19053Y34456D01*
X19045Y34459D01*
X19038Y34464D01*
X18079Y34977D01*
X18071Y34980D01*
X18064Y34984D01*
X17091Y35470D01*
X17083Y35473D01*
X17076Y35477D01*
X16089Y35935D01*
X16081Y35938D01*
X16074Y35942D01*
X15075Y36373D01*
X15067Y36375D01*
X15059Y36379D01*
X14049Y36781D01*
X14041Y36783D01*
X14033Y36787D01*
X13012Y37161D01*
X13004Y37163D01*
X12996Y37166D01*
X11965Y37511D01*
X11956Y37513D01*
X11949Y37516D01*
X10908Y37832D01*
X10900Y37833D01*
X10892Y37836D01*
X9843Y38123D01*
X9834Y38124D01*
X9826Y38127D01*
X9122Y38298D01*
X9122Y38298D01*
X8770Y38384D01*
X8761Y38385D01*
X8753Y38388D01*
X7689Y38615D01*
X7681Y38616D01*
X7673Y38618D01*
X6604Y38815D01*
X6595Y38816D01*
X6587Y38818D01*
X5512Y38985D01*
X5504Y38985D01*
X5496Y38987D01*
X4417Y39124D01*
X4408Y39125D01*
X4400Y39126D01*
X3415Y39223D01*
X3318Y39233D01*
X3309D01*
X3301Y39234D01*
X2216Y39310D01*
X2208Y39310D01*
X2199Y39311D01*
X1113Y39357D01*
X1104Y39357D01*
X1096Y39358D01*
X552Y39365D01*
X8Y39373D01*
D02*
G37*
G36*
X-13780Y18320D02*
X-13948Y18307D01*
X-14112Y18267D01*
X-14268Y18203D01*
X-14412Y18114D01*
X-14540Y18005D01*
X-14650Y17876D01*
X-14738Y17732D01*
X-14803Y17576D01*
X-14812Y17538D01*
X-14961D01*
X-15118Y17526D01*
X-15271Y17489D01*
X-15373Y17447D01*
X-15416Y17429D01*
X-15550Y17347D01*
X-15670Y17245D01*
X-17835Y15079D01*
X-17937Y14960D01*
X-18020Y14826D01*
X-18037Y14783D01*
X-18041Y14774D01*
X-18513D01*
Y13780D01*
Y11211D01*
X-15739D01*
Y13780D01*
Y14339D01*
X-15175Y14903D01*
X-15102Y14975D01*
X-15034Y15009D01*
X-14540Y15066D01*
D01*
D01*
X-14412Y14956D01*
X-14268Y14868D01*
X-14112Y14804D01*
X-13948Y14764D01*
X-13780Y14751D01*
X-13611Y14764D01*
X-13447Y14804D01*
X-13291Y14868D01*
X-13147Y14956D01*
X-13019Y15066D01*
X-12909Y15194D01*
X-12821Y15338D01*
X-12756Y15494D01*
X-12717Y15658D01*
X-12704Y15827D01*
Y17244D01*
X-12717Y17412D01*
X-12756Y17576D01*
X-12821Y17732D01*
X-12909Y17876D01*
X-13019Y18005D01*
X-13147Y18114D01*
X-13291Y18203D01*
X-13447Y18267D01*
X-13611Y18307D01*
X-13780Y18320D01*
D02*
G37*
%LPD*%
G36*
X544Y38762D02*
X544D01*
X1087Y38755D01*
X2174Y38709D01*
X2716Y38671D01*
X3259Y38633D01*
X3356Y38623D01*
X3356D01*
X3356D01*
X3356Y38623D01*
X4160Y38544D01*
X4341Y38526D01*
X5420Y38389D01*
X6494Y38222D01*
X7564Y38025D01*
X8627Y37798D01*
X8627Y37798D01*
X8979Y37712D01*
X9530Y37578D01*
X9684Y37541D01*
X9684D01*
X10733Y37255D01*
X11773Y36939D01*
X12805Y36594D01*
X12805Y36594D01*
X12805Y36594D01*
X13159Y36465D01*
X13159Y36465D01*
X13159Y36465D01*
X13826Y36221D01*
X13826Y36221D01*
X13826D01*
X14477Y35962D01*
X14837Y35819D01*
X15835Y35389D01*
X16822Y34931D01*
X17795Y34445D01*
X18754Y33932D01*
X19148Y33707D01*
X19288Y33627D01*
X19685Y33378D01*
X19685D01*
X19685Y33378D01*
Y30222D01*
Y30222D01*
X19676Y29791D01*
X19676Y29790D01*
X19676Y29766D01*
X19673Y29743D01*
X19671Y29737D01*
X19670Y29737D01*
X19185D01*
X1181Y29737D01*
X-3091Y29737D01*
X-3091Y29737D01*
X-3091Y29737D01*
X-3104Y29735D01*
X-3122D01*
X-3137Y29734D01*
X-3148Y29734D01*
X-3148Y29734D01*
X-3151Y29733D01*
X-3152D01*
X-3160Y29733D01*
X-3162Y29732D01*
X-3174Y29732D01*
X-3184Y29730D01*
X-3189D01*
X-3201Y29728D01*
X-3229Y29726D01*
X-3234Y29724D01*
X-3240Y29724D01*
X-3258Y29718D01*
X-3258Y29718D01*
X-3260Y29718D01*
X-3261Y29718D01*
X-3262Y29718D01*
X-3272Y29715D01*
X-3290Y29711D01*
X-3290Y29711D01*
X-3294Y29710D01*
X-3301Y29708D01*
X-3303Y29708D01*
X-3303Y29708D01*
X-3305Y29707D01*
X-3318Y29703D01*
X-3339Y29695D01*
X-3360Y29689D01*
X-3364Y29688D01*
X-3368Y29686D01*
X-3372Y29684D01*
X-3372Y29684D01*
X-3373Y29684D01*
X-3375Y29683D01*
X-3381Y29680D01*
X-3384Y29679D01*
X-3385Y29678D01*
X-3386Y29678D01*
X-3386Y29678D01*
X-3396Y29673D01*
X-3396Y29673D01*
X-3400Y29671D01*
X-3413Y29666D01*
X-3413Y29666D01*
X-3416Y29664D01*
X-3419Y29663D01*
X-3422Y29661D01*
X-3429Y29658D01*
X-3433Y29656D01*
X-3435Y29655D01*
X-3436Y29654D01*
X-3440Y29652D01*
X-3442Y29651D01*
X-3444Y29650D01*
X-3446Y29649D01*
X-3459Y29640D01*
X-3470Y29635D01*
X-3475Y29631D01*
X-3493Y29621D01*
X-3495Y29621D01*
X-3497Y29619D01*
X-3500Y29617D01*
X-3501Y29616D01*
X-3503Y29615D01*
X-3505Y29613D01*
X-3508Y29612D01*
X-3511Y29609D01*
X-3534Y29590D01*
X-3544Y29583D01*
X-3555Y29572D01*
X-3558Y29570D01*
X-3565Y29565D01*
X-3573Y29559D01*
X-3578Y29554D01*
X-3587Y29547D01*
X-3588Y29546D01*
X-3595Y29540D01*
X-3609Y29525D01*
X-3610Y29525D01*
X-3618Y29519D01*
X-3803Y29333D01*
X-3937Y29344D01*
X-4105Y29330D01*
X-4269Y29291D01*
X-4425Y29226D01*
X-4569Y29138D01*
X-4698Y29028D01*
X-4807Y28900D01*
X-4896Y28756D01*
X-4960Y28600D01*
X-5000Y28436D01*
X-5013Y28268D01*
Y26850D01*
X-5000Y26682D01*
X-4984Y26618D01*
X-4967Y26500D01*
X-5062Y26232D01*
X-5114Y26117D01*
X-5174Y26050D01*
X-5230Y26000D01*
X-5244Y25993D01*
X-5246Y25992D01*
X-5265Y25991D01*
X-5532Y25987D01*
X-5532D01*
X-5532D01*
X-5707Y25984D01*
X-8554D01*
X-8557Y25985D01*
X-8557Y25985D01*
X-8557D01*
X-8557Y25985D01*
X-8557D01*
X-8571Y25985D01*
X-8576Y25987D01*
X-8583Y25993D01*
X-8591Y25999D01*
X-8593Y26002D01*
X-8593Y26002D01*
X-8594Y26003D01*
X-8594Y26003D01*
X-8599Y26008D01*
X-8600Y26010D01*
X-8600Y26010D01*
X-8601Y26010D01*
X-8602Y26011D01*
X-8602Y26012D01*
X-8603Y26012D01*
X-8603Y26012D01*
X-8603Y26013D01*
X-8603D01*
X-8604Y26013D01*
X-8604Y26013D01*
X-8614Y26025D01*
X-8620Y26031D01*
X-8625Y26036D01*
X-8625Y26037D01*
X-8627Y26039D01*
X-8630Y26041D01*
X-8630Y26041D01*
X-8635Y26046D01*
X-8638Y26050D01*
X-8640Y26052D01*
X-8655Y26068D01*
X-8661Y26077D01*
Y29134D01*
Y29578D01*
X-8661Y29579D01*
X-8644Y29615D01*
X-8640Y29634D01*
X-8633Y29653D01*
X-8627Y29692D01*
X-8618Y29730D01*
X-8604Y29840D01*
X-8599Y29861D01*
X-8598Y29868D01*
X-8591Y29869D01*
X-8570Y29873D01*
X-8164Y29912D01*
X-6487D01*
Y36230D01*
X-8602D01*
X-8603Y36230D01*
X-8631Y36230D01*
X-8639Y36233D01*
X-8639Y36233D01*
X-8639Y36233D01*
X-8640Y36233D01*
X-8640Y36233D01*
X-8644Y36234D01*
X-8651Y36239D01*
X-8652Y36240D01*
X-8652Y36240D01*
X-8653Y36241D01*
X-8653Y36241D01*
X-8653Y36241D01*
X-8655Y36246D01*
X-8658Y36250D01*
X-8660Y36256D01*
X-8661Y36259D01*
X-8661Y36259D01*
X-8661Y36287D01*
X-8661Y36287D01*
Y36287D01*
X-8661Y36289D01*
Y36291D01*
Y37733D01*
X-8661Y37733D01*
X-8661Y37760D01*
X-8660Y37777D01*
X-8660Y37777D01*
X-8656Y37783D01*
X-8655Y37783D01*
X-8655Y37783D01*
X-8655Y37784D01*
X-8654Y37785D01*
X-8654Y37785D01*
X-8654Y37785D01*
X-8654Y37785D01*
X-8654Y37785D01*
X-8654Y37785D01*
X-8654Y37786D01*
X-8653Y37787D01*
X-8652Y37787D01*
X-8648Y37790D01*
X-8648Y37790D01*
X-8648Y37790D01*
X-8647Y37791D01*
X-8646Y37792D01*
X-8646Y37792D01*
X-8646Y37792D01*
X-8645Y37792D01*
X-8634Y37796D01*
X-8634Y37796D01*
X-8632Y37796D01*
X-8632Y37796D01*
X-8631Y37797D01*
X-8626Y37798D01*
X-8623Y37798D01*
X-8623Y37798D01*
X-8619Y37799D01*
X-8619Y37799D01*
X-8617Y37799D01*
X-8615Y37800D01*
X-8608Y37802D01*
X-8597Y37804D01*
X-8594Y37805D01*
X-8143Y37901D01*
X-8143D01*
X-7821Y37970D01*
X-7821Y37970D01*
X-7752Y37985D01*
X-7752Y37985D01*
X-7752D01*
X-7564Y38025D01*
X-7564Y38025D01*
X-7029Y38124D01*
X-7029Y38124D01*
X-7029D01*
X-6494Y38222D01*
X-5420Y38389D01*
X-4341Y38526D01*
X-3259Y38633D01*
X-2174Y38709D01*
X-1087Y38755D01*
X0Y38770D01*
X544Y38762D01*
D02*
G37*
G36*
X19185Y29134D02*
X19670D01*
X19670Y29133D01*
X19671Y29126D01*
X19673Y29104D01*
X19685Y28641D01*
X19685Y28639D01*
X19685Y28637D01*
Y28179D01*
X19685Y25763D01*
Y24822D01*
X19685Y24822D01*
Y24793D01*
X19685Y24792D01*
X19685Y24792D01*
X19680Y24769D01*
X19680Y24769D01*
X19680Y24768D01*
X19680Y24768D01*
Y24768D01*
X19680Y24767D01*
X19680Y24766D01*
X19680Y24766D01*
X19680Y24766D01*
X19677Y24761D01*
X19677Y24761D01*
X19677Y24761D01*
X19665Y24743D01*
X19665Y24743D01*
X19664Y24742D01*
X19664Y24742D01*
X19664Y24742D01*
D01*
X19645Y24723D01*
X19645Y24723D01*
X19644Y24722D01*
X19644Y24722D01*
X19643Y24721D01*
X19373Y24451D01*
X19373Y24451D01*
X19352Y24430D01*
X19352Y24430D01*
X19352Y24430D01*
X19338Y24420D01*
X19324Y24416D01*
X19321Y24415D01*
X19319Y24415D01*
X19306Y24411D01*
X19303Y24410D01*
X19303Y24410D01*
X19303Y24410D01*
X19303Y24410D01*
X19302Y24410D01*
X19302Y24409D01*
X19273D01*
X19272Y24409D01*
X3996D01*
X3996Y24409D01*
X3967D01*
D01*
X3967Y24410D01*
X3967D01*
X3966Y24410D01*
X3966Y24410D01*
X3944Y24414D01*
X3944Y24414D01*
X3944Y24414D01*
X3943Y24414D01*
X3943D01*
X3943Y24414D01*
X3943Y24414D01*
X3943D01*
X3940Y24415D01*
X3939Y24415D01*
X3939Y24416D01*
X3938Y24416D01*
X3938Y24416D01*
X3937Y24417D01*
X3936Y24417D01*
X3935Y24418D01*
X3934Y24418D01*
X3924Y24426D01*
X3918Y24431D01*
X3915Y24433D01*
X3915Y24433D01*
X3914Y24433D01*
X3911Y24437D01*
X3908Y24439D01*
X3908Y24439D01*
X3903Y24443D01*
X3903Y24443D01*
X3903Y24443D01*
X3895Y24452D01*
X3895Y24452D01*
X3894Y24452D01*
X2362Y25984D01*
X-3839D01*
X-3861Y25986D01*
X-3867D01*
X-3869Y25987D01*
X-3884Y25993D01*
X-3899Y26000D01*
X-3900Y26001D01*
X-3914Y26008D01*
X-3918Y26009D01*
X-3920Y26011D01*
X-3920Y26011D01*
X-3921Y26011D01*
X-3936Y26019D01*
X-3936Y26019D01*
X-3937Y26019D01*
X-3937Y28346D01*
X-3191Y29092D01*
X-3184Y29098D01*
X-3177Y29103D01*
X-3173Y29106D01*
X-3162Y29117D01*
X-3161Y29118D01*
X-3160Y29118D01*
X-3158Y29119D01*
X-3157Y29120D01*
X-3153Y29122D01*
X-3152Y29123D01*
X-3152Y29123D01*
X-3151Y29123D01*
X-3151Y29123D01*
X-3151Y29123D01*
X-3147Y29125D01*
X-3147Y29125D01*
X-3147D01*
X-3146Y29125D01*
X-3144Y29126D01*
X-3144Y29126D01*
X-3144Y29127D01*
X-3144Y29127D01*
X-3143Y29127D01*
X-3130Y29131D01*
X-3130Y29131D01*
X-3124Y29131D01*
X-3124Y29132D01*
X-3122Y29133D01*
X-3122D01*
X-3104D01*
D01*
X-3101D01*
X-3093Y29133D01*
X-3091Y29134D01*
X-3091Y29134D01*
X1181Y29134D01*
X19185Y29134D01*
D02*
G37*
G36*
X19658Y19684D02*
X19680Y19680D01*
X19684Y19658D01*
X19685Y19655D01*
Y11841D01*
X19684Y11839D01*
X19680Y11816D01*
X19658Y11812D01*
X19655Y11811D01*
X-1086D01*
X-1087Y11811D01*
X-1101Y11814D01*
X-1102Y11814D01*
X-1102Y11814D01*
X-1114Y11817D01*
X-1117Y11819D01*
X-1117Y11819D01*
X-1118Y11819D01*
X-1136Y11831D01*
X-1137Y11832D01*
X-2723Y13419D01*
X-4114Y14809D01*
X-4114Y14809D01*
X-4115Y14810D01*
X-4121Y14817D01*
X-4121Y14817D01*
X-4122Y14817D01*
X-4122Y14817D01*
X-4222Y14918D01*
X-4222Y14918D01*
X-4222Y14918D01*
X-4223Y14918D01*
X-4245Y14941D01*
X-4245Y14941D01*
X-4246Y14941D01*
X-4258Y14953D01*
X-4258Y14953D01*
X-4258Y14953D01*
X-4258Y14953D01*
X-4335Y15031D01*
X-4336Y15031D01*
X-4336Y15032D01*
X-4337Y15033D01*
X-4337Y15033D01*
X-4352Y15047D01*
X-4352Y15047D01*
X-4352Y15047D01*
X-4352Y15048D01*
X-4352Y15048D01*
X-4353Y15048D01*
X-4365Y15060D01*
X-4365Y15060D01*
X-4366Y15061D01*
X-4366Y15061D01*
X-4515Y15210D01*
X-4515Y15210D01*
X-4515Y15210D01*
D01*
Y17612D01*
Y18025D01*
Y18105D01*
X-4511Y18108D01*
X-4504Y18109D01*
X-4497Y18110D01*
X-4497Y18110D01*
X-4496Y18110D01*
X-4492Y18110D01*
X2362D01*
X2539Y18287D01*
X2539Y18287D01*
X3896Y19644D01*
X3916Y19664D01*
X3916Y19664D01*
X3917Y19665D01*
X3939Y19680D01*
X3965Y19685D01*
X3966Y19685D01*
X3967Y19685D01*
X19655D01*
X19658Y19684D01*
D02*
G37*
G36*
X-5147Y18110D02*
X-5146Y18110D01*
X-5119Y18107D01*
X-5118Y18107D01*
X-5118Y18107D01*
Y18105D01*
Y18025D01*
Y17612D01*
Y15210D01*
Y14961D01*
X-4941Y14784D01*
X-4941Y14784D01*
X-4792Y14635D01*
X-4792Y14634D01*
X-4792Y14634D01*
X-4779Y14621D01*
X-4778Y14621D01*
X-4778Y14621D01*
X-4778D01*
X-4778Y14621D01*
X-4778Y14621D01*
X-4764Y14606D01*
X-4764Y14606D01*
X-4763Y14605D01*
X-4762Y14604D01*
X-4762Y14604D01*
X-4685Y14527D01*
X-4684Y14527D01*
X-4684Y14526D01*
X-4672Y14514D01*
X-4649Y14491D01*
X-4649Y14491D01*
X-4649Y14491D01*
X-4649Y14491D01*
X-4649Y14491D01*
X-4548Y14391D01*
X-4547Y14390D01*
X-4547Y14390D01*
X-4541Y14383D01*
X-4541Y14383D01*
X-3150Y12992D01*
X-3150D01*
Y12992D01*
X-1563Y11406D01*
X-1541Y11387D01*
X-1520Y11366D01*
X-1495Y11350D01*
X-1490Y11346D01*
X-1487Y11343D01*
X-1485Y11341D01*
X-1472Y11331D01*
X-1471Y11330D01*
X-1452Y11318D01*
X-1452Y11318D01*
X-1452Y11318D01*
X-1449Y11315D01*
X-1449Y11315D01*
X-1448Y11315D01*
X-1432Y11306D01*
X-1418Y11297D01*
X-1402Y11289D01*
X-1387Y11280D01*
X-1387Y11280D01*
X-1370Y11273D01*
X-1344Y11260D01*
X-1344Y11260D01*
X-1344Y11259D01*
X-1320Y11252D01*
X-1311Y11248D01*
X-1295Y11244D01*
X-1282Y11239D01*
X-1278Y11238D01*
X-1276Y11237D01*
X-1276Y11237D01*
X-1271Y11236D01*
X-1271Y11235D01*
X-1255Y11232D01*
X-1231Y11225D01*
X-1231Y11225D01*
X-1231Y11225D01*
X-1220Y11223D01*
X-1220D01*
X-1205Y11220D01*
X-1205Y11220D01*
X-1204Y11220D01*
X-1178Y11217D01*
X-1166Y11215D01*
X-1166Y11215D01*
X-1164Y11215D01*
X-1146Y11211D01*
X-1116Y11211D01*
X-1086Y11208D01*
X14719D01*
X14911Y10784D01*
Y9573D01*
Y9573D01*
Y9573D01*
X14911Y6023D01*
X14110Y5221D01*
X14013Y5107D01*
X13983Y5059D01*
X13934Y4980D01*
X13906Y4911D01*
X13877Y4842D01*
X13860Y4769D01*
X13842Y4696D01*
X13830Y4547D01*
Y1930D01*
X13567Y1488D01*
X10637D01*
X10536Y1571D01*
X10419Y1634D01*
X10290Y1673D01*
X10158Y1686D01*
X5591D01*
X5457Y1673D01*
X5330Y1634D01*
X5212Y1571D01*
X5108Y1486D01*
X5023Y1383D01*
X4961Y1265D01*
X4922Y1137D01*
X4908Y1004D01*
Y481D01*
X4908Y480D01*
X4906Y459D01*
X4906Y459D01*
X4906Y459D01*
Y459D01*
X4906Y456D01*
X4905Y454D01*
X4904Y452D01*
X4903Y451D01*
X4889Y435D01*
X4886Y432D01*
X4871Y417D01*
X4870Y416D01*
X4464Y21D01*
X4444Y5D01*
X4441Y2D01*
X4438Y-0D01*
X3748D01*
X3748D01*
X2386D01*
X85Y0D01*
X-11262D01*
X-11417Y436D01*
X-11417Y3150D01*
Y6269D01*
X-11417Y6270D01*
X-11412Y6294D01*
X-11412Y6294D01*
X-11412Y6294D01*
X-11412Y6297D01*
X-11409Y6301D01*
X-11409Y6301D01*
X-11409Y6301D01*
X-11397Y6319D01*
X-11396Y6320D01*
X-11396Y6320D01*
X-8838Y8879D01*
X-8838Y8879D01*
X-8661Y9055D01*
X-8661Y9341D01*
X-8661Y18061D01*
X-8654Y18067D01*
X-8618Y18095D01*
X-8618Y18095D01*
X-8604Y18103D01*
X-8594Y18108D01*
X-8591Y18109D01*
X-8591D01*
X-8576Y18110D01*
X-5148D01*
X-5147Y18110D01*
D02*
G37*
G36*
X-9353Y10434D02*
X-9264Y10300D01*
Y9305D01*
X-11823Y6746D01*
X-11841Y6724D01*
X-11862Y6703D01*
X-11864Y6700D01*
X-11867Y6697D01*
X-11867Y6697D01*
X-11881Y6675D01*
X-11883Y6674D01*
X-11885Y6671D01*
X-11887Y6668D01*
X-11898Y6655D01*
X-11898Y6654D01*
X-11910Y6636D01*
X-11910Y6636D01*
X-11911Y6635D01*
X-11911Y6635D01*
X-11913Y6633D01*
X-11913Y6632D01*
X-11913Y6632D01*
X-11913Y6632D01*
X-11926Y6607D01*
X-11928Y6605D01*
X-11928Y6604D01*
X-11929Y6602D01*
X-11939Y6588D01*
X-11942Y6581D01*
X-11948Y6570D01*
X-11948Y6570D01*
X-11952Y6561D01*
X-11955Y6553D01*
X-11969Y6528D01*
X-11969Y6528D01*
X-11969Y6527D01*
X-11977Y6500D01*
X-11986Y6480D01*
X-11988Y6470D01*
X-11992Y6460D01*
X-11992Y6460D01*
X-11996Y6438D01*
X-12003Y6415D01*
X-12004Y6413D01*
X-12004Y6412D01*
X-12004Y6412D01*
X-12008Y6388D01*
X-12008Y6388D01*
X-12009Y6387D01*
X-12011Y6367D01*
X-12011Y6364D01*
X-12011Y6364D01*
X-12011Y6361D01*
X-12011Y6358D01*
X-12017Y6330D01*
X-12017Y6300D01*
X-12020Y6269D01*
Y3150D01*
X-12020Y436D01*
X-12016Y392D01*
X-12014Y349D01*
X-12010Y334D01*
X-12009Y318D01*
X-11996Y276D01*
X-11985Y234D01*
X-11830Y-202D01*
X-11824Y-216D01*
X-11819Y-231D01*
X-11799Y-269D01*
X-11781Y-306D01*
X-11787Y-317D01*
X-11793Y-326D01*
X-11798Y-337D01*
X-11817Y-372D01*
X-11817Y-372D01*
X-11817Y-372D01*
X-11818Y-375D01*
X-11818Y-376D01*
X-11827Y-405D01*
X-11829Y-409D01*
X-11831Y-418D01*
X-11839Y-435D01*
X-11843Y-451D01*
X-11848Y-476D01*
X-11852Y-489D01*
X-11853Y-493D01*
X-11853Y-497D01*
X-11861Y-523D01*
X-11876Y-614D01*
X-11882Y-635D01*
X-11883Y-640D01*
X-11884Y-643D01*
X-11885Y-644D01*
X-11887Y-649D01*
X-11897Y-668D01*
X-11905Y-683D01*
X-11905Y-683D01*
X-11910Y-694D01*
X-11913Y-698D01*
X-11928Y-720D01*
X-11929Y-723D01*
X-11930Y-724D01*
X-11930Y-725D01*
X-11934Y-734D01*
X-11939Y-742D01*
X-11939Y-744D01*
X-11940Y-746D01*
X-11942Y-748D01*
X-11952Y-777D01*
X-11958Y-788D01*
X-11961Y-795D01*
X-11966Y-814D01*
X-11975Y-834D01*
X-11977Y-843D01*
X-11978Y-845D01*
X-11981Y-854D01*
X-11981Y-855D01*
X-11983Y-866D01*
X-11987Y-876D01*
X-11997Y-917D01*
X-12000Y-931D01*
X-12004Y-946D01*
X-12004Y-951D01*
X-12007Y-964D01*
X-12008Y-978D01*
X-12012Y-991D01*
X-12012Y-991D01*
X-12013Y-1004D01*
X-12013Y-1004D01*
X-12013Y-1009D01*
Y-1009D01*
X-12013Y-1009D01*
X-12014Y-1014D01*
X-12014Y-1028D01*
X-12018Y-1053D01*
X-12019Y-1065D01*
X-12019Y-1069D01*
X-12019Y-1069D01*
X-12019Y-1082D01*
X-12019Y-1082D01*
X-12019Y-1083D01*
X-12019Y-1086D01*
X-12020Y-1102D01*
X-12020Y-3287D01*
Y-4609D01*
X-13386D01*
X-13527Y-4620D01*
X-13665Y-4653D01*
X-13796Y-4707D01*
X-13916Y-4781D01*
X-14024Y-4873D01*
X-14812Y-5661D01*
X-14904Y-5769D01*
X-14978Y-5889D01*
X-15032Y-6020D01*
X-15065Y-6158D01*
X-15076Y-6299D01*
Y-9075D01*
X-16535Y-10533D01*
X-22958D01*
X-23893Y-9598D01*
X-24001Y-9506D01*
X-24122Y-9432D01*
X-24253Y-9378D01*
X-24390Y-9345D01*
X-24532Y-9333D01*
X-24991D01*
Y-7077D01*
X-27276D01*
X-28534Y-5819D01*
Y-3928D01*
X-35318D01*
Y-768D01*
X-34166Y384D01*
X-31683D01*
Y5029D01*
X-31611Y5047D01*
X-31480Y5101D01*
X-31359Y5175D01*
X-31251Y5267D01*
X-29873Y6645D01*
X-29781Y6753D01*
X-29707Y6874D01*
X-29653Y7005D01*
X-29620Y7142D01*
X-29609Y7283D01*
Y9046D01*
X-28760D01*
X-28757Y9039D01*
X-28683Y8918D01*
X-28591Y8811D01*
X-27607Y7826D01*
X-27499Y7734D01*
X-27378Y7660D01*
X-27248Y7606D01*
X-27110Y7573D01*
X-26969Y7562D01*
X-25879D01*
X-25600Y6962D01*
X-25600Y6702D01*
X-25600D01*
Y3928D01*
X-22038D01*
Y6702D01*
X-22038D01*
X-22038Y7077D01*
X-22038D01*
Y8560D01*
X-21484Y8789D01*
X-19423Y6729D01*
X-19316Y6637D01*
X-19195Y6563D01*
X-19064Y6509D01*
X-18926Y6476D01*
X-18785Y6465D01*
X-14680D01*
X-14538Y6476D01*
X-14401Y6509D01*
X-14270Y6563D01*
X-14149Y6637D01*
X-14041Y6729D01*
X-13103Y7668D01*
X-12195D01*
Y8575D01*
X-10188Y10582D01*
X-10132Y10648D01*
X-10065Y10698D01*
X-9834Y10756D01*
X-9353Y10434D01*
D02*
G37*
G36*
X34411Y6044D02*
Y244D01*
X33868Y108D01*
Y108D01*
X33266D01*
X33176Y255D01*
X33064Y387D01*
X30307Y3143D01*
X30176Y3255D01*
X30028Y3346D01*
X29868Y3412D01*
X29700Y3452D01*
X29537Y3465D01*
Y4144D01*
X29252D01*
X29239Y4307D01*
X29199Y4475D01*
X29133Y4635D01*
X29042Y4782D01*
X28930Y4914D01*
X28305Y5539D01*
X28301Y5732D01*
X28837Y6290D01*
X28912Y6290D01*
X31112D01*
Y7759D01*
X32697D01*
X34411Y6044D01*
D02*
G37*
G36*
X-28553Y-8354D02*
Y-9333D01*
X-31804D01*
X-33881Y-7257D01*
X-33651Y-6702D01*
X-30204D01*
X-28553Y-8354D01*
D02*
G37*
G36*
X2386Y-603D02*
X4061D01*
X4341Y-1010D01*
X4341Y-1010D01*
Y-1103D01*
Y-1103D01*
Y-3910D01*
Y-4465D01*
X4341Y-9439D01*
X4341Y-9440D01*
Y-9440D01*
X4341Y-9441D01*
Y-9441D01*
X4341Y-9442D01*
X4341Y-9442D01*
X4341Y-9447D01*
X4341Y-9469D01*
X4340Y-9478D01*
X4337Y-9492D01*
X4337Y-9492D01*
X4337Y-9493D01*
X4337Y-9493D01*
Y-9493D01*
X4337Y-9493D01*
X4336Y-9494D01*
Y-9494D01*
X4335Y-9497D01*
X4335Y-9497D01*
X4335Y-9498D01*
X4335Y-9498D01*
X4335Y-9499D01*
X4334Y-9500D01*
X4334Y-9500D01*
X4333Y-9501D01*
X4332Y-9502D01*
X4332Y-9502D01*
X4330Y-9506D01*
X4324Y-9514D01*
X4319Y-9520D01*
X4318Y-9521D01*
X4318Y-9521D01*
X4318Y-9522D01*
X4318Y-9522D01*
X4317Y-9522D01*
X4316Y-9523D01*
X4316Y-9524D01*
X4305Y-9534D01*
X4300Y-9541D01*
X4299Y-9542D01*
X4030Y-9811D01*
X4030Y-9811D01*
X4029Y-9812D01*
X4009Y-9832D01*
X4007Y-9833D01*
X4007Y-9833D01*
X4007Y-9833D01*
X4007Y-9833D01*
X4007Y-9833D01*
X4007Y-9833D01*
X4007Y-9833D01*
X4007Y-9833D01*
X4007Y-9833D01*
X3994Y-9842D01*
X3994Y-9842D01*
X3994Y-9842D01*
X3980Y-9846D01*
X3979Y-9847D01*
X3979Y-9847D01*
X3977Y-9847D01*
X3975Y-9848D01*
X3971Y-9849D01*
X3971Y-9849D01*
X3968Y-9850D01*
X3962Y-9852D01*
X3960Y-9853D01*
X3960D01*
X3960Y-9853D01*
X3959Y-9853D01*
X3959Y-9853D01*
X3958Y-9853D01*
X3958Y-9853D01*
X3929D01*
X3929Y-9853D01*
X-11358D01*
X-11359Y-9853D01*
X-11388Y-9853D01*
X-11388Y-9853D01*
X-11389Y-9853D01*
X-11389D01*
X-11390Y-9852D01*
X-11393Y-9851D01*
X-11396Y-9850D01*
X-11396Y-9850D01*
X-11397Y-9850D01*
X-11397Y-9849D01*
X-11398Y-9849D01*
X-11399Y-9849D01*
X-11407Y-9844D01*
X-11408Y-9842D01*
X-11409Y-9842D01*
X-11409Y-9842D01*
X-11414Y-9833D01*
X-11416Y-9827D01*
X-11417Y-9824D01*
X-11417Y-9824D01*
X-11417Y-9796D01*
X-11417Y-9796D01*
Y-9796D01*
X-11417Y-9794D01*
Y-9792D01*
Y-9778D01*
Y-9667D01*
Y-9418D01*
Y-8947D01*
Y-8073D01*
Y-8073D01*
X-11417Y-7754D01*
Y-6768D01*
X-11064Y-6415D01*
X-8858D01*
X-8717Y-6403D01*
X-8579Y-6370D01*
X-8448Y-6316D01*
X-8328Y-6242D01*
X-8220Y-6150D01*
X-8128Y-6042D01*
X-8054Y-5922D01*
X-8000Y-5791D01*
X-7967Y-5653D01*
X-7955Y-5512D01*
X-7967Y-5371D01*
X-8000Y-5233D01*
X-8054Y-5102D01*
X-8128Y-4981D01*
X-8220Y-4873D01*
X-8328Y-4781D01*
X-8448Y-4707D01*
X-8579Y-4653D01*
X-8717Y-4620D01*
X-8858Y-4609D01*
X-11417D01*
Y-4009D01*
Y-4009D01*
Y-3287D01*
X-11417Y-1102D01*
X-11417Y-1102D01*
X-11417Y-1098D01*
X-11416Y-1083D01*
X-11416Y-1082D01*
X-11413Y-1068D01*
X-11413Y-1063D01*
Y-1063D01*
X-11413Y-1063D01*
Y-1063D01*
X-11402Y-1023D01*
X-11402Y-1022D01*
X-11399Y-1015D01*
X-11397Y-1006D01*
X-11395Y-1003D01*
X-11394Y-1001D01*
X-11388Y-993D01*
X-11380Y-979D01*
X-11372Y-962D01*
X-11366Y-951D01*
X-11360Y-941D01*
Y-941D01*
X-11352Y-926D01*
X-11342Y-906D01*
X-11336Y-890D01*
X-11321Y-860D01*
X-11319Y-852D01*
X-11316Y-845D01*
X-11308Y-812D01*
X-11301Y-796D01*
X-11295Y-775D01*
X-11292Y-753D01*
X-11289Y-746D01*
X-11288Y-739D01*
X-11288Y-738D01*
X-11282Y-717D01*
X-11266Y-626D01*
X-11262Y-611D01*
X-11261Y-606D01*
X-11260Y-604D01*
X-11260Y-603D01*
X85D01*
X2386Y-603D01*
D02*
G37*
G36*
X13830Y-2167D02*
Y-7398D01*
X13842Y-7547D01*
X13877Y-7693D01*
X13934Y-7831D01*
X14013Y-7958D01*
X14110Y-8072D01*
X16535Y-10498D01*
Y-12371D01*
X16523Y-12452D01*
X16513Y-12492D01*
X16411Y-12865D01*
X16397Y-12867D01*
X16389Y-12867D01*
X16377Y-12868D01*
X16373Y-12868D01*
X16361Y-12869D01*
X16353Y-12871D01*
X16344Y-12872D01*
X16334Y-12874D01*
X16318Y-12878D01*
X16303Y-12880D01*
X16303Y-12880D01*
X16299Y-12882D01*
X16295Y-12882D01*
X16278Y-12888D01*
X16261Y-12892D01*
X16261Y-12892D01*
X16256Y-12894D01*
X16251Y-12895D01*
X16251Y-12895D01*
X16242Y-12899D01*
X16238Y-12900D01*
X16234Y-12902D01*
X16229Y-12903D01*
X16229Y-12903D01*
X16226Y-12904D01*
X16220Y-12906D01*
X16206Y-12913D01*
X16191Y-12918D01*
X16190Y-12919D01*
X16190Y-12919D01*
X16189Y-12919D01*
X16186Y-12921D01*
X16183Y-12922D01*
X16180Y-12923D01*
X16179Y-12924D01*
X16177Y-12925D01*
X16164Y-12933D01*
X16152Y-12938D01*
X16147Y-12941D01*
X16143Y-12943D01*
X16139Y-12946D01*
X16130Y-12950D01*
X16096Y-12970D01*
X16096Y-12970D01*
X16096Y-12970D01*
X16085Y-12977D01*
X16073Y-12983D01*
X16072Y-12983D01*
X16072Y-12983D01*
X16070Y-12984D01*
X16062Y-12987D01*
X16042Y-12991D01*
X16032Y-12992D01*
X16032Y-12992D01*
X16032D01*
X16030Y-12992D01*
X16010Y-12992D01*
X16009Y-12992D01*
X9483D01*
X8096D01*
X6917Y-11813D01*
X6809Y-11721D01*
X6688Y-11647D01*
X6557Y-11593D01*
X6420Y-11560D01*
X6278Y-11549D01*
X1993D01*
X1852Y-11560D01*
X1714Y-11593D01*
X1583Y-11647D01*
X1463Y-11721D01*
X1355Y-11813D01*
X176Y-12992D01*
X-2667D01*
X-2732Y-12937D01*
X-2852Y-12863D01*
X-2983Y-12808D01*
X-3121Y-12775D01*
X-3262Y-12764D01*
X-4755D01*
X-4897Y-12775D01*
X-5034Y-12808D01*
X-5165Y-12863D01*
X-5286Y-12937D01*
X-5351Y-12992D01*
X-11802D01*
X-12681Y-12113D01*
X-12681Y-6863D01*
X-12635Y-6812D01*
X-12518Y-6763D01*
X-12020Y-7096D01*
Y-7754D01*
X-12020Y-8073D01*
Y-9794D01*
X-12020Y-9796D01*
X-12020Y-9797D01*
X-12020Y-9824D01*
X-12017Y-9851D01*
Y-9853D01*
X-12017Y-9855D01*
X-12017Y-9855D01*
Y-9883D01*
X-12015Y-9896D01*
X-12014Y-9909D01*
X-12014Y-9909D01*
X-12010Y-9925D01*
X-12008Y-9942D01*
X-12000Y-9970D01*
X-11994Y-9999D01*
X-11993Y-10002D01*
X-11991Y-10008D01*
X-11991Y-10008D01*
X-11988Y-10013D01*
X-11986Y-10024D01*
X-11979Y-10039D01*
X-11973Y-10058D01*
X-11971Y-10064D01*
X-11957Y-10090D01*
X-11952Y-10102D01*
X-11948Y-10112D01*
X-11947Y-10114D01*
X-11945Y-10117D01*
X-11940Y-10126D01*
X-11924Y-10151D01*
X-11910Y-10177D01*
X-11896Y-10194D01*
X-11885Y-10212D01*
X-11882Y-10215D01*
X-11880Y-10217D01*
X-11877Y-10221D01*
X-11875Y-10225D01*
X-11854Y-10246D01*
X-11837Y-10265D01*
X-11836Y-10267D01*
X-11836Y-10267D01*
X-11835Y-10268D01*
X-11818Y-10282D01*
X-11803Y-10298D01*
X-11800Y-10300D01*
X-11798Y-10302D01*
X-11796Y-10304D01*
X-11793Y-10306D01*
X-11791Y-10308D01*
X-11769Y-10323D01*
X-11745Y-10343D01*
X-11738Y-10347D01*
X-11717Y-10359D01*
X-11707Y-10366D01*
X-11705Y-10367D01*
X-11694Y-10375D01*
X-11689Y-10377D01*
X-11687Y-10378D01*
X-11681Y-10381D01*
X-11681Y-10381D01*
X-11672Y-10385D01*
X-11671Y-10385D01*
X-11664Y-10388D01*
X-11645Y-10399D01*
X-11643Y-10400D01*
X-11642Y-10400D01*
X-11639Y-10402D01*
X-11637Y-10402D01*
X-11637Y-10403D01*
X-11636Y-10403D01*
X-11634Y-10404D01*
X-11627Y-10406D01*
X-11625Y-10408D01*
X-11623Y-10408D01*
X-11621Y-10409D01*
X-11619Y-10410D01*
X-11602Y-10415D01*
X-11587Y-10422D01*
X-11587Y-10422D01*
X-11586Y-10422D01*
X-11585Y-10422D01*
X-11584Y-10423D01*
X-11583Y-10423D01*
X-11579Y-10425D01*
X-11579Y-10425D01*
X-11574Y-10426D01*
X-11572Y-10427D01*
X-11569Y-10428D01*
X-11566Y-10428D01*
X-11562Y-10430D01*
X-11561Y-10430D01*
X-11541Y-10434D01*
X-11526Y-10439D01*
X-11521Y-10440D01*
X-11510Y-10443D01*
X-11508Y-10443D01*
X-11506Y-10444D01*
X-11485Y-10446D01*
X-11463Y-10451D01*
X-11455Y-10451D01*
X-11453Y-10452D01*
X-11453D01*
X-11445Y-10453D01*
X-11417Y-10453D01*
X-11410Y-10454D01*
X-11409Y-10454D01*
X-11409D01*
X-11392Y-10456D01*
X-11391Y-10456D01*
X-11389Y-10456D01*
X-11360Y-10456D01*
X-11359Y-10456D01*
X-11358Y-10456D01*
X3929D01*
X3929Y-10456D01*
X3958D01*
X3982Y-10454D01*
X4002Y-10454D01*
X4010Y-10453D01*
X4019Y-10453D01*
X4045Y-10447D01*
X4070Y-10445D01*
X4071Y-10445D01*
X4071Y-10445D01*
X4071Y-10445D01*
X4072Y-10445D01*
X4073Y-10445D01*
X4073Y-10445D01*
X4075Y-10445D01*
X4075Y-10444D01*
X4075Y-10444D01*
X4077Y-10444D01*
X4078Y-10444D01*
X4078Y-10444D01*
X4078Y-10444D01*
X4079Y-10444D01*
X4099Y-10437D01*
X4118Y-10434D01*
X4127Y-10431D01*
X4135Y-10429D01*
X4135Y-10429D01*
X4139Y-10428D01*
X4142Y-10427D01*
X4144Y-10426D01*
X4145Y-10426D01*
X4145Y-10426D01*
X4149Y-10425D01*
X4152Y-10424D01*
X4156Y-10423D01*
X4169Y-10419D01*
X4172Y-10417D01*
X4176Y-10417D01*
X4190Y-10411D01*
X4197Y-10408D01*
X4199Y-10408D01*
X4203Y-10406D01*
X4208Y-10404D01*
X4209Y-10404D01*
X4211Y-10403D01*
X4224Y-10399D01*
X4250Y-10385D01*
X4278Y-10373D01*
X4279Y-10373D01*
X4279Y-10373D01*
X4281Y-10372D01*
X4284Y-10370D01*
X4284Y-10370D01*
X4301Y-10359D01*
X4306Y-10356D01*
X4307Y-10356D01*
X4308Y-10355D01*
X4312Y-10353D01*
X4314Y-10352D01*
X4317Y-10350D01*
X4317Y-10350D01*
X4320Y-10348D01*
X4329Y-10343D01*
X4341Y-10335D01*
X4341Y-10335D01*
X4342Y-10334D01*
X4342Y-10334D01*
X4343Y-10334D01*
X4343Y-10333D01*
X4344Y-10333D01*
X4350Y-10328D01*
X4357Y-10324D01*
X4358Y-10323D01*
X4366Y-10316D01*
X4376Y-10310D01*
X4376Y-10310D01*
X4377Y-10309D01*
X4389Y-10298D01*
X4403Y-10288D01*
X4405Y-10285D01*
X4407Y-10284D01*
X4409Y-10282D01*
X4412Y-10280D01*
X4416Y-10275D01*
X4422Y-10270D01*
X4426Y-10266D01*
X4434Y-10259D01*
X4435Y-10258D01*
X4435Y-10258D01*
X4455Y-10238D01*
X4456Y-10237D01*
X4725Y-9968D01*
X4732Y-9960D01*
X4733Y-9959D01*
X4743Y-9949D01*
X4755Y-9935D01*
X4757Y-9933D01*
X4767Y-9923D01*
X4768Y-9923D01*
X4769Y-9921D01*
X4771Y-9919D01*
X4771Y-9919D01*
X4772Y-9917D01*
X4774Y-9915D01*
X4776Y-9914D01*
X4776Y-9913D01*
X4778Y-9911D01*
X4781Y-9906D01*
X4786Y-9901D01*
X4795Y-9888D01*
X4800Y-9883D01*
X4802Y-9880D01*
X4803Y-9879D01*
X4804Y-9878D01*
X4806Y-9876D01*
X4806Y-9875D01*
X4806Y-9875D01*
X4807Y-9874D01*
X4808Y-9872D01*
X4810Y-9870D01*
X4814Y-9864D01*
X4822Y-9854D01*
X4828Y-9846D01*
X4829Y-9844D01*
X4830Y-9842D01*
X4830Y-9842D01*
X4833Y-9837D01*
X4835Y-9834D01*
X4835Y-9834D01*
X4836Y-9833D01*
X4838Y-9829D01*
X4840Y-9827D01*
X4842Y-9824D01*
X4842Y-9824D01*
X4844Y-9821D01*
X4845Y-9819D01*
X4856Y-9799D01*
X4866Y-9784D01*
X4866Y-9782D01*
X4868Y-9780D01*
X4870Y-9775D01*
X4873Y-9770D01*
X4873Y-9770D01*
X4880Y-9753D01*
X4887Y-9741D01*
X4887Y-9738D01*
X4891Y-9730D01*
X4892Y-9730D01*
X4892Y-9729D01*
X4894Y-9722D01*
X4897Y-9715D01*
X4898Y-9715D01*
X4898Y-9714D01*
X4898Y-9713D01*
X4904Y-9693D01*
X4907Y-9686D01*
X4911Y-9676D01*
X4911Y-9676D01*
X4911Y-9675D01*
X4911Y-9675D01*
X4911Y-9675D01*
X4911Y-9675D01*
X4912Y-9672D01*
X4915Y-9661D01*
X4915Y-9659D01*
X4917Y-9650D01*
X4924Y-9628D01*
X4924Y-9628D01*
X4925Y-9622D01*
X4927Y-9616D01*
X4927Y-9616D01*
X4927Y-9614D01*
X4928Y-9611D01*
X4928Y-9611D01*
X4928Y-9611D01*
X4928Y-9610D01*
X4931Y-9596D01*
X4932Y-9587D01*
X4932Y-9586D01*
X4934Y-9570D01*
X4936Y-9560D01*
Y-9560D01*
X4938Y-9548D01*
X4939Y-9539D01*
X4940Y-9509D01*
X4941Y-9505D01*
X4941Y-9500D01*
Y-9500D01*
X4941Y-9500D01*
X4941Y-9500D01*
X4941Y-9499D01*
X4941Y-9498D01*
X4941Y-9491D01*
X4943Y-9472D01*
X4943Y-9471D01*
X4943Y-9471D01*
X4944Y-9468D01*
X4943Y-9447D01*
X4944Y-9441D01*
Y-9441D01*
X4944Y-9439D01*
X4944Y-4465D01*
Y-1010D01*
X4944Y-1005D01*
X4944Y-1001D01*
X4941Y-972D01*
X4940Y-943D01*
X4940Y-943D01*
X4935Y-918D01*
X4933Y-892D01*
X4931Y-888D01*
X4931Y-884D01*
X4922Y-856D01*
X4916Y-827D01*
X4906Y-804D01*
X4898Y-779D01*
X4896Y-774D01*
X4895Y-771D01*
X4868Y-710D01*
X4851Y-623D01*
X4885Y-411D01*
X5291Y-16D01*
X5292Y-14D01*
X5301Y-6D01*
X5303Y-3D01*
X5306Y-1D01*
X5310Y3D01*
X5327Y23D01*
X5329Y25D01*
X5330Y26D01*
X5331Y27D01*
X5332Y28D01*
X5337Y35D01*
X5356Y53D01*
X5369Y70D01*
X5381Y88D01*
X5386Y93D01*
X5387Y96D01*
X5402Y113D01*
X5403Y114D01*
X5404Y116D01*
X5406Y118D01*
X5406Y119D01*
X5407Y120D01*
X5418Y141D01*
X5421Y148D01*
X5435Y168D01*
X5443Y187D01*
X5459Y216D01*
X5460Y218D01*
X5460Y218D01*
X5460Y220D01*
X5461Y222D01*
X5463Y228D01*
X5463Y228D01*
X5470Y251D01*
X5480Y273D01*
X5480Y276D01*
X5481Y276D01*
X5481Y276D01*
X5481Y278D01*
X5486Y303D01*
X5495Y330D01*
X5496Y333D01*
X5496Y337D01*
X5497Y341D01*
X5500Y363D01*
X5500Y364D01*
X5500Y366D01*
X5505Y389D01*
X5505Y389D01*
X5505Y391D01*
X5505Y392D01*
X5505Y393D01*
X5506Y394D01*
X5506Y394D01*
X5508Y412D01*
X5508Y441D01*
X5511Y470D01*
X5511Y472D01*
X5870Y787D01*
X13830D01*
Y-2167D01*
D02*
G37*
G36*
X30305Y-10522D02*
X30305D01*
Y-13612D01*
X30292Y-13780D01*
Y-15643D01*
X29471Y-16465D01*
X29143Y-16329D01*
Y-16329D01*
X26694D01*
X26387Y-15856D01*
X26387Y-15737D01*
Y-10522D01*
X26387D01*
X26474Y-9958D01*
X30219D01*
X30305Y-10522D01*
D02*
G37*
G36*
X16527Y-13468D02*
X16663Y-13539D01*
X16938Y-13717D01*
X17014Y-13806D01*
X17048Y-13862D01*
Y-16116D01*
X16835Y-16329D01*
X14943D01*
Y-18221D01*
X13876Y-19289D01*
X12001D01*
X10761Y-18048D01*
X10653Y-17956D01*
X10514Y-17745D01*
X10469Y-17398D01*
X10494Y-17233D01*
X10527Y-17135D01*
X10568Y-16929D01*
X10582Y-16720D01*
X10568Y-16511D01*
X10527Y-16305D01*
X10460Y-16106D01*
X10367Y-15918D01*
X10251Y-15744D01*
X10112Y-15586D01*
X9955Y-15448D01*
X9881Y-15399D01*
Y-15152D01*
X9870Y-15010D01*
X9837Y-14873D01*
X9783Y-14742D01*
X9709Y-14621D01*
X9617Y-14513D01*
X9253Y-14149D01*
X9483Y-13595D01*
X16009D01*
X16010Y-13595D01*
X16010Y-13595D01*
X16030Y-13595D01*
X16058Y-13592D01*
X16067Y-13592D01*
X16068Y-13592D01*
X16068Y-13592D01*
X16088Y-13592D01*
X16089Y-13592D01*
X16090Y-13592D01*
X16091D01*
X16091Y-13592D01*
X16091D01*
X16101Y-13591D01*
X16111Y-13589D01*
X16117Y-13589D01*
X16117Y-13589D01*
X16133Y-13585D01*
X16142Y-13584D01*
X16148Y-13584D01*
X16150Y-13583D01*
X16159Y-13582D01*
X16179Y-13578D01*
X16207Y-13570D01*
X16213Y-13569D01*
X16216Y-13568D01*
X16224Y-13566D01*
X16232Y-13564D01*
X16240Y-13561D01*
X16262Y-13555D01*
X16271Y-13553D01*
X16276Y-13550D01*
X16276Y-13550D01*
X16279Y-13549D01*
X16283Y-13547D01*
X16292Y-13544D01*
X16307Y-13536D01*
X16328Y-13529D01*
X16339Y-13523D01*
X16342Y-13522D01*
X16342Y-13522D01*
X16345Y-13520D01*
X16346Y-13519D01*
X16354Y-13516D01*
X16364Y-13510D01*
X16366Y-13509D01*
X16373Y-13505D01*
X16377Y-13503D01*
X16380Y-13501D01*
X16386Y-13498D01*
X16389Y-13497D01*
X16389Y-13497D01*
X16392Y-13496D01*
X16403Y-13489D01*
X16403Y-13489D01*
X16437Y-13469D01*
X16437Y-13469D01*
X16438Y-13469D01*
X16438Y-13468D01*
X16441Y-13467D01*
X16441Y-13467D01*
X16441Y-13467D01*
X16442Y-13467D01*
X16452Y-13465D01*
X16527Y-13468D01*
D02*
G37*
G36*
X-17717Y-16182D02*
X-17792Y-16250D01*
X-18315Y-16444D01*
X-18490Y-16328D01*
X-18678Y-16235D01*
X-18876Y-16168D01*
X-19082Y-16127D01*
X-19291Y-16113D01*
X-19501Y-16127D01*
X-19706Y-16168D01*
X-19905Y-16235D01*
X-20093Y-16328D01*
X-20267Y-16444D01*
X-20425Y-16583D01*
X-20563Y-16740D01*
X-20680Y-16915D01*
X-20684Y-16923D01*
X-21175Y-17077D01*
X-21393Y-17062D01*
X-22499Y-15956D01*
X-22453Y-15595D01*
X-22314Y-15292D01*
X-22221Y-15261D01*
X-22033Y-15168D01*
X-21858Y-15052D01*
X-21701Y-14913D01*
X-21563Y-14756D01*
X-21446Y-14581D01*
X-21353Y-14393D01*
X-21286Y-14195D01*
X-21246Y-13995D01*
X-17717D01*
Y-16182D01*
D02*
G37*
G36*
X-8533Y-16399D02*
X-11928Y-19794D01*
X-14942D01*
Y-18879D01*
X-14881Y-18841D01*
X-14773Y-18749D01*
X-13957Y-17933D01*
X-13865Y-17825D01*
X-13791Y-17704D01*
X-13737Y-17573D01*
X-13704Y-17436D01*
X-13693Y-17294D01*
Y-16742D01*
X-11399D01*
Y-15845D01*
X-8763D01*
X-8533Y-16399D01*
D02*
G37*
G36*
X22842Y4338D02*
X22974Y4225D01*
X23121Y4135D01*
X23281Y4069D01*
X23449Y4028D01*
X23622Y4015D01*
X26708D01*
X26762Y3961D01*
Y581D01*
X29537D01*
X29537Y581D01*
Y581D01*
X30020Y309D01*
X30305Y24D01*
Y-5226D01*
X33724D01*
X34046Y-5752D01*
X31646Y-8152D01*
X24219D01*
X24078Y-8163D01*
X23940Y-8196D01*
X23810Y-8251D01*
X23689Y-8325D01*
X23581Y-8417D01*
X21362Y-10636D01*
X21270Y-10744D01*
X21196Y-10865D01*
X21141Y-10995D01*
X21108Y-11133D01*
X21097Y-11275D01*
Y-18976D01*
X15776Y-24297D01*
X12948D01*
X12740Y-24083D01*
X12554Y-23697D01*
X12572Y-23643D01*
X12613Y-23438D01*
X12627Y-23228D01*
X12613Y-23019D01*
X12572Y-22813D01*
X12505Y-22615D01*
X12412Y-22427D01*
X12296Y-22252D01*
X12157Y-22095D01*
X12000Y-21956D01*
X11825Y-21840D01*
X11637Y-21747D01*
X11439Y-21680D01*
X11534Y-21087D01*
X11627Y-21094D01*
X14250D01*
X14391Y-21083D01*
X14529Y-21050D01*
X14660Y-20996D01*
X14780Y-20922D01*
X14888Y-20830D01*
X15826Y-19891D01*
X17718D01*
Y-18000D01*
X18740Y-16978D01*
X18832Y-16870D01*
X18906Y-16750D01*
X18960Y-16619D01*
X18993Y-16481D01*
X19004Y-16340D01*
Y-16316D01*
X19154D01*
Y-15292D01*
X20178D01*
Y-13187D01*
X20178Y-13187D01*
Y-12733D01*
X20178D01*
X20178Y-12587D01*
Y-10628D01*
X19154D01*
Y-9604D01*
X18337D01*
X15736Y-7004D01*
Y-3736D01*
X15827Y-3655D01*
X20394D01*
X20527Y-3641D01*
X20655Y-3602D01*
X20773Y-3540D01*
X20876Y-3455D01*
X20961Y-3351D01*
X21024Y-3233D01*
X21063Y-3105D01*
X21076Y-2972D01*
Y-1555D01*
X21143Y-1395D01*
X21277Y-1349D01*
X21398Y-1299D01*
X21511Y-1230D01*
X21611Y-1144D01*
X21696Y-1044D01*
X21765Y-932D01*
X21815Y-810D01*
X21846Y-682D01*
X21857Y-551D01*
Y3701D01*
X21846Y3832D01*
X21815Y3960D01*
X21765Y4082D01*
X21696Y4194D01*
X21611Y4294D01*
X21511Y4379D01*
X21398Y4448D01*
X21277Y4499D01*
X21143Y4544D01*
X21076Y4705D01*
Y5320D01*
X21630Y5550D01*
X22842Y4338D01*
D02*
G37*
G36*
X-18611Y-22398D02*
X-18840Y-22952D01*
X-21150D01*
X-23737Y-20365D01*
X-23788Y-20242D01*
X-23871Y-20107D01*
X-23973Y-19988D01*
X-24092Y-19885D01*
X-24227Y-19803D01*
X-24372Y-19743D01*
X-24525Y-19706D01*
X-24682Y-19694D01*
X-24789Y-19105D01*
X-24614Y-18989D01*
X-24457Y-18850D01*
X-24318Y-18693D01*
X-24202Y-18518D01*
X-24109Y-18330D01*
X-24042Y-18132D01*
X-24001Y-17926D01*
X-23997Y-17860D01*
X-23647Y-17659D01*
X-23392Y-17616D01*
X-18611Y-22398D01*
D02*
G37*
G36*
X26368Y-16329D02*
X26368Y-16448D01*
Y-19891D01*
X26134Y-20394D01*
X16025Y-30502D01*
X14559D01*
Y-32540D01*
X14391Y-32653D01*
X13791Y-32332D01*
Y-30502D01*
X12320D01*
Y-29680D01*
X12412Y-29542D01*
X12505Y-29354D01*
X12572Y-29155D01*
X12613Y-28949D01*
X12627Y-28740D01*
X12613Y-28531D01*
X12572Y-28325D01*
X12505Y-28126D01*
X12412Y-27938D01*
X12296Y-27764D01*
X12157Y-27606D01*
X12000Y-27468D01*
X11825Y-27351D01*
X11637Y-27259D01*
X11591Y-27243D01*
X11005Y-26657D01*
X11234Y-26103D01*
X16150D01*
X16291Y-26092D01*
X16429Y-26059D01*
X16560Y-26004D01*
X16681Y-25930D01*
X16788Y-25838D01*
X22638Y-19988D01*
X22730Y-19881D01*
X22804Y-19760D01*
X22859Y-19629D01*
X22892Y-19491D01*
X22903Y-19350D01*
Y-15856D01*
X26062D01*
X26368Y-16329D01*
D02*
G37*
%LPC*%
G36*
X-26565Y5128D02*
X-29340D01*
Y384D01*
X-26887D01*
Y-384D01*
X-32096D01*
Y-3159D01*
X-24991D01*
Y-384D01*
X-25082D01*
Y384D01*
X-22038D01*
Y3159D01*
X-25600D01*
Y2674D01*
X-26565D01*
Y5128D01*
D02*
G37*
G36*
X26387Y108D02*
X22825D01*
Y-5226D01*
X26387D01*
Y108D01*
D02*
G37*
%LPD*%
D12*
X17455Y8268D02*
X20472D01*
X23622Y5118D01*
X-33071Y8268D02*
Y11417D01*
Y8268D02*
X-32677Y7874D01*
X-33071Y11417D02*
Y14174D01*
X-31496Y15748D01*
X24606Y17323D02*
Y22048D01*
X28150Y2362D02*
Y4134D01*
X27165Y5118D02*
X28150Y4134D01*
X32087Y-2559D02*
Y-591D01*
X32283Y-394D01*
X29527Y2362D02*
X32283Y-394D01*
X28150Y2362D02*
X29527D01*
X28346Y-2559D02*
Y-1378D01*
X24606Y2362D02*
X28346Y-1378D01*
X23622Y5118D02*
X27165D01*
D14*
X14784Y-7398D02*
X18101Y-10716D01*
Y-11681D02*
X19066D01*
X14784Y-2167D02*
Y4547D01*
Y-7398D02*
Y-2167D01*
X14880Y-2264D01*
X18110D01*
X15650Y5413D02*
X18110D01*
X14784Y4547D02*
X15650Y5413D01*
X18101Y-11681D02*
Y-10716D01*
D15*
X10551Y-1634D02*
D03*
Y4783D02*
D03*
D16*
X18110Y295D02*
D03*
Y-2264D02*
D03*
Y2854D02*
D03*
Y5413D02*
D03*
X7874D02*
D03*
Y2854D02*
D03*
Y295D02*
D03*
Y-2264D02*
D03*
D17*
X18101Y-15204D02*
D03*
X15542D02*
D03*
Y-10716D02*
D03*
X18101D02*
D03*
D18*
X11627Y-11188D02*
D03*
Y-14732D02*
D03*
X-23819Y18701D02*
D03*
Y15157D02*
D03*
Y12008D02*
D03*
Y8465D02*
D03*
X-23819Y5315D02*
D03*
Y1772D02*
D03*
X-26772Y-12008D02*
D03*
Y-8465D02*
D03*
X-30315Y-5315D02*
D03*
Y-1772D02*
D03*
X-26772D02*
D03*
Y-5315D02*
D03*
X-33858D02*
D03*
Y-1772D02*
D03*
D19*
X-1378Y33071D02*
D03*
X-8858Y33071D02*
D03*
X-8858Y2756D02*
D03*
X-16339Y2756D02*
D03*
D20*
X12787Y-18110D02*
D03*
X16331D02*
D03*
X-15945Y-32283D02*
D03*
X-12402D02*
D03*
X-15945Y-28741D02*
D03*
X-12402D02*
D03*
X-16330Y-18110D02*
D03*
X-12787D02*
D03*
Y-14961D02*
D03*
X-16330D02*
D03*
X-1772Y-36221D02*
D03*
X1772D02*
D03*
X12403Y-32283D02*
D03*
X15947D02*
D03*
X27756Y-18110D02*
D03*
X24213D02*
D03*
X28150Y2362D02*
D03*
X24606D02*
D03*
X28150Y22048D02*
D03*
X24606D02*
D03*
X-13583Y9449D02*
D03*
X-17126D02*
D03*
X-13583Y12992D02*
D03*
X-17126D02*
D03*
X-7283Y12992D02*
D03*
X-10827D02*
D03*
X-27953Y15748D02*
D03*
X-31496D02*
D03*
D21*
X0Y-24016D02*
D03*
D22*
X-3937Y-16142D02*
D03*
X-1969D02*
D03*
X0D02*
D03*
X1969D02*
D03*
X3937D02*
D03*
Y-31890D02*
D03*
X1969D02*
D03*
X0D02*
D03*
X-1969D02*
D03*
X-3937D02*
D03*
D23*
X7874Y-20079D02*
D03*
Y-22047D02*
D03*
Y-24016D02*
D03*
Y-25984D02*
D03*
Y-27953D02*
D03*
X-7874D02*
D03*
Y-25984D02*
D03*
Y-24016D02*
D03*
Y-22047D02*
D03*
Y-20079D02*
D03*
D24*
X32087Y-2559D02*
D03*
X28346D02*
D03*
X24606D02*
D03*
Y-13189D02*
D03*
X32087D02*
D03*
D25*
X24606Y8661D02*
D03*
X27165D02*
D03*
X29724D02*
D03*
Y17323D02*
D03*
X24606D02*
D03*
X-33071Y2756D02*
D03*
X-30512D02*
D03*
X-27953D02*
D03*
Y11417D02*
D03*
X-33071D02*
D03*
X-30512D02*
D03*
D26*
X11024Y26713D02*
D03*
Y17382D02*
D03*
D27*
X-8858Y-5512D02*
D03*
X-20276D02*
D03*
D28*
X-738Y24764D02*
D03*
Y22953D02*
D03*
Y21142D02*
D03*
Y19331D02*
D03*
X-15010D02*
D03*
Y21142D02*
D03*
Y22953D02*
D03*
Y24764D02*
D03*
D29*
X-7874Y22047D02*
D03*
D30*
X-13780Y27559D02*
D03*
X-11811D02*
D03*
X-9843D02*
D03*
X-7874D02*
D03*
X-5906D02*
D03*
X-3937D02*
D03*
X-1969D02*
D03*
Y16535D02*
D03*
X-3937D02*
D03*
X-5906D02*
D03*
X-7874D02*
D03*
X-9843D02*
D03*
X-11811D02*
D03*
X-13780D02*
D03*
D31*
X18504Y1575D02*
D03*
D32*
X41043Y0D02*
G03*
X41043Y0I-41043J0D01*
G01*
D55*
X18101Y-14240D02*
D03*
X15542Y-11681D02*
D03*
D56*
X19066Y-14240D02*
D03*
X14578D02*
D03*
Y-11681D02*
D03*
X19066D02*
D03*
D57*
X15542Y-14240D02*
D03*
X18101Y-11681D02*
D03*
D58*
X0Y-5512D02*
D03*
Y5512D02*
D03*
D59*
X-28772Y-20697D02*
D03*
X-25055Y-25055D02*
D03*
X-20695Y-28772D02*
D03*
X-31571Y-16086D02*
D03*
D60*
X7874Y-28474D02*
Y-27953D01*
Y-28474D02*
X8400Y-29000D01*
X11417Y-31299D02*
Y-28346D01*
Y-31299D02*
X12402Y-32283D01*
X22000Y-19350D02*
Y-11275D01*
X16150Y-25200D02*
X22000Y-19350D01*
X10239Y-25200D02*
X16150D01*
X18101Y-14240D02*
X19066D01*
X9055Y-24016D02*
X10239Y-25200D01*
X9843Y-22047D02*
X11024Y-23228D01*
X22000Y-11275D02*
X24219Y-9055D01*
X-14141Y-29496D02*
X-13386Y-28741D01*
X-14141Y-31464D02*
Y-29496D01*
X-14961Y-32283D02*
X-14141Y-31464D01*
X-17291Y-22441D02*
X-11602D01*
X-26772Y-12960D02*
X-17291Y-22441D01*
X-26772Y-12960D02*
Y-12008D01*
X-17209Y-20697D02*
X-11554D01*
X-19291Y-18615D02*
X-17209Y-20697D01*
X-19291Y-18615D02*
Y-17717D01*
X-21524Y-23855D02*
X-11117D01*
X-24682Y-20697D02*
X-21524Y-23855D01*
X-13771Y-14961D02*
X-12787D01*
X-14595Y-15785D02*
X-13771Y-14961D01*
X-14595Y-17294D02*
Y-15785D01*
X-15411Y-18110D02*
X-14595Y-17294D01*
X-16330Y-18110D02*
X-15411D01*
X-25591Y-17717D02*
Y-16929D01*
X-12787Y-14961D02*
X-12768Y-14942D01*
X-6030D01*
X-4755Y-13667D01*
X-15945Y-32283D02*
X-14961D01*
X-11554Y-20697D02*
X-6999Y-16142D01*
X-3937D01*
X-25055Y-25055D02*
X-10620D01*
X-11117Y-23855D02*
X-9309Y-22047D01*
X-10620Y-25055D02*
X-9581Y-24016D01*
X-7874D01*
X-9309Y-22047D02*
X-7874D01*
X-11602Y-22441D02*
X-9239Y-20079D01*
X-9823Y-25984D02*
X-7874D01*
X-10216Y-26378D02*
X-9823Y-25984D01*
X-18301Y-26378D02*
X-10216D01*
X-11614Y-27953D02*
X-7874D01*
X-12402Y-28741D02*
X-11614Y-27953D01*
X-9239Y-20079D02*
X-7874D01*
X6278Y-12451D02*
X8979Y-15152D01*
Y-16720D02*
Y-15152D01*
X1993Y-12451D02*
X6278D01*
X4807Y-13667D02*
X6494Y-15354D01*
X2475Y-13667D02*
X4807D01*
X4595Y-16142D02*
X7140Y-18687D01*
X3937Y-16142D02*
X4595D01*
X-22047Y18110D02*
X-19291Y20866D01*
X-23228Y18110D02*
X-22047D01*
X-23819Y18701D02*
X-23228Y18110D01*
X-24409D02*
X-23819Y18701D01*
X-28832Y18110D02*
X-24409D01*
X-29809Y17134D02*
X-28832Y18110D01*
X-29809Y13892D02*
Y17134D01*
X-29528Y6299D02*
X-29134D01*
X-31890Y5906D02*
X-30512Y7283D01*
X-34646Y5906D02*
X-31890D01*
X-37420Y3131D02*
X-34646Y5906D01*
X-30512Y5315D02*
X-29528Y6299D01*
X-30512Y2756D02*
Y5315D01*
X-37420Y-6691D02*
Y3131D01*
X-30512Y7283D02*
Y11417D01*
X-14680Y7368D02*
X-10827Y11220D01*
Y12992D01*
X-27362Y15157D02*
X-23819D01*
X-27953Y15748D02*
X-27362Y15157D01*
X-19291Y20866D02*
Y24803D01*
X-14318Y29777D01*
X-11168D01*
X-9843Y28451D01*
X-11811Y24016D02*
X-11811Y24016D01*
X-11811Y24016D02*
Y27559D01*
X3937Y-31890D02*
X5443Y-30383D01*
X7086D01*
X8986Y-32283D01*
X9055D01*
X11024Y-28740D02*
Y-28740D01*
X11417Y-28346D01*
X-7504Y-32654D02*
X-5793Y-34365D01*
X-8425Y-32654D02*
X-7504D01*
X9055Y-25984D02*
X11417Y-28346D01*
X7874Y-24016D02*
X9055D01*
X7874Y-25984D02*
X9055D01*
X-4724Y-31102D02*
X-3937Y-31890D01*
X-6299Y-31102D02*
X-4724D01*
X-7087Y-30315D02*
X-6299Y-31102D01*
X-3262Y-34365D02*
X-1969Y-33071D01*
X-5793Y-34365D02*
X-3262D01*
X-9843Y27559D02*
Y28451D01*
X24219Y-9055D02*
X32020D01*
X35314Y-5761D02*
Y6418D01*
X32020Y-9055D02*
X35314Y-5761D01*
X33071Y8661D02*
X35314Y6418D01*
X0Y-14445D02*
X1993Y-12451D01*
X0Y-16142D02*
Y-14445D01*
X1969Y-14173D02*
X2475Y-13667D01*
X1969Y-16142D02*
Y-14173D01*
X-1969Y-33071D02*
Y-31890D01*
Y-16142D02*
Y-14961D01*
X-3262Y-13667D02*
X-1969Y-14961D01*
X-4755Y-13667D02*
X-3262D01*
X-37420Y-6691D02*
X-32300Y-11811D01*
X-30709D02*
X-25591Y-16929D01*
X-32300Y-11811D02*
X-30709D01*
X-11811Y15354D02*
Y16535D01*
X-9843Y13976D02*
Y16535D01*
X-10827Y12992D02*
X-9843Y13976D01*
X-13583Y13583D02*
X-11811Y15354D01*
X-13583Y12992D02*
Y13583D01*
X-14960Y12992D02*
X-13583D01*
X-15354Y12598D02*
X-14960Y12992D01*
X-15354Y9843D02*
Y12598D01*
X-15748Y9449D02*
X-15354Y9843D01*
X-17126Y9449D02*
X-15748D01*
X-23819Y12008D02*
X-23425D01*
X-18785Y7368D01*
X-14680D01*
X-30512Y13189D02*
X-29809Y13892D01*
X-30512Y11417D02*
Y13189D01*
X-27953Y9449D02*
Y11417D01*
Y9449D02*
X-26969Y8465D01*
X-23819D01*
X-23819Y8464D02*
X-23819Y8465D01*
X-23819Y5315D02*
Y8464D01*
X29724Y8661D02*
X33071D01*
X-13386Y-28741D02*
X-12402D01*
X7874Y-22047D02*
X9843D01*
X-33155Y-3459D02*
X-27643D01*
X-33858Y-2756D02*
X-33155Y-3459D01*
X-33858Y-2756D02*
Y-1772D01*
X-25984Y1772D02*
X-23819D01*
X-26969D02*
X-25984D01*
Y-984D02*
Y1772D01*
X-26772Y-1772D02*
X-25984Y-984D01*
X-27953Y2756D02*
X-26969Y1772D01*
X-30315Y-1772D02*
X-26772D01*
X-36220Y-394D02*
X-33071Y2756D01*
X-36220Y-6194D02*
Y-394D01*
X-30512Y197D02*
Y2756D01*
X-30793Y-84D02*
X-30512Y197D01*
X-33155Y-84D02*
X-30793D01*
X-33858Y-787D02*
X-33155Y-84D01*
X-33858Y-1772D02*
Y-787D01*
X-27165Y-8465D02*
X-26772D01*
X-30315Y-5315D02*
X-27165Y-8465D01*
X-33858Y-5315D02*
X-30315D01*
X-32178Y-10236D02*
X-24532D01*
X-23332Y-11436D01*
X-24409Y-8661D02*
X-22835Y-10236D01*
X-24409Y-8661D02*
Y-6693D01*
X-25787Y-5315D02*
X-24409Y-6693D01*
X-23332Y-11436D02*
X-16161D01*
X-26772Y-5315D02*
X-25787D01*
X-22835Y-10236D02*
X-16658D01*
X-15373Y-8952D01*
Y-6280D01*
X-16142Y-5512D02*
X-15373Y-6280D01*
X-20276Y-5512D02*
X-16142D01*
X-16161Y-11436D02*
X-14173Y-9449D01*
X-36220Y-6194D02*
X-32178Y-10236D01*
X-26772Y-5315D02*
Y-4331D01*
X-27643Y-3459D02*
X-26772Y-4331D01*
X-13386Y-5512D02*
X-8858D01*
X-14173Y-6299D02*
X-13386Y-5512D01*
X-14173Y-9449D02*
Y-6299D01*
X10123Y-18687D02*
X11627Y-20191D01*
X7140Y-18687D02*
X10123D01*
X16331Y-18110D02*
X18101Y-16340D01*
Y-15204D01*
Y-14240D01*
X11627Y-20191D02*
X14250D01*
X16331Y-18110D01*
D61*
X27406Y-15052D02*
X28300D01*
X24348Y-18110D02*
X27406Y-15052D01*
X24213Y-18110D02*
X24348D01*
X6299Y-34271D02*
X7471Y-35443D01*
X-28772Y-20697D02*
X-24682D01*
X-12139Y-17463D02*
X-11024D01*
X-12787Y-18110D02*
X-12139Y-17463D01*
X-16142Y-12992D02*
X-14961D01*
X-22047D02*
X-16142D01*
X-16330Y-14961D02*
Y-13180D01*
X-16142Y-12992D01*
X-20695Y-28772D02*
X-18301Y-26378D01*
X-22835Y-13780D02*
X-22047Y-12992D01*
X-13780Y-11811D02*
X-10236D01*
X6299Y-34271D02*
Y-32283D01*
X29724Y13976D02*
Y17323D01*
X28150Y18898D02*
X29724Y17323D01*
X28150Y18898D02*
Y22048D01*
X36614Y-6299D02*
Y7087D01*
X32087Y-10827D02*
X36614Y-6299D01*
X32087Y-13189D02*
Y-10827D01*
X29724Y13976D02*
X36614Y7087D01*
X-16Y-33480D02*
Y-31905D01*
X-1772Y-35236D02*
X-16Y-33480D01*
X-1772Y-36221D02*
Y-35236D01*
X-16Y-31905D02*
X0Y-31890D01*
X-14961Y16535D02*
X-13780D01*
X-17126Y14370D02*
X-14961Y16535D01*
X-17126Y12992D02*
Y14370D01*
X0Y-31890D02*
Y-24016D01*
X1772Y-36221D02*
X1969Y-36024D01*
Y-31890D01*
X-14961Y-12992D02*
X-13780Y-11811D01*
D62*
X15947Y-32283D02*
X27756Y-20474D01*
Y-18110D01*
X15945Y-33268D02*
Y-32283D01*
X14548Y-34665D02*
X15945Y-33268D01*
X6693Y-36221D02*
X7471Y-35443D01*
X1772Y-36221D02*
X6693D01*
X7471Y-35443D02*
X8249Y-34665D01*
X14548D01*
X27756Y-18110D02*
X29528D01*
X31496Y-16142D01*
Y-13780D01*
X32087Y-13189D01*
D63*
X-12402Y-32283D02*
X-11614Y-31496D01*
X-11024D01*
D64*
X8400Y-29000D02*
D03*
X0Y-11586D02*
D03*
X23540Y-21050D02*
D03*
X24409Y12598D02*
D03*
X33071Y4724D02*
D03*
X-7874Y20079D02*
D03*
X-15748Y-2756D02*
D03*
X-23622Y21260D02*
D03*
X-22641Y-20015D02*
D03*
X-23622Y-2756D02*
D03*
X17455Y8268D02*
D03*
X36742Y18922D02*
D03*
X26772Y12598D02*
D03*
X22047D02*
D03*
X26772Y17323D02*
D03*
Y14961D02*
D03*
X22047Y10236D02*
D03*
X24409Y-6299D02*
D03*
X7874Y31102D02*
D03*
X-7874Y24016D02*
D03*
X-15748Y-787D02*
D03*
X7800Y-5233D02*
D03*
Y-7200D02*
D03*
X28300Y-11300D02*
D03*
X-11771Y31700D02*
D03*
X11024Y-23228D02*
D03*
X22374Y-35015D02*
D03*
X20669Y-35999D02*
D03*
X18965Y-36983D02*
D03*
X11200Y-5177D02*
D03*
X9500Y-8200D02*
D03*
Y-6242D02*
D03*
X7800Y-9200D02*
D03*
X6100Y-10199D02*
D03*
X6095Y-8200D02*
D03*
Y-6194D02*
D03*
Y-4200D02*
D03*
X-2174Y-11668D02*
D03*
X-4353Y-11681D02*
D03*
X-20663Y-36001D02*
D03*
X-22367Y-35016D02*
D03*
X20676Y35600D02*
D03*
X22381Y34616D02*
D03*
X18971Y36584D02*
D03*
X-22374Y34617D02*
D03*
X-18965Y36586D02*
D03*
X-20669Y35602D02*
D03*
X41339Y-2167D02*
D03*
X-41339D02*
D03*
Y1770D02*
D03*
Y-199D02*
D03*
X-18958Y-36985D02*
D03*
X41339Y1770D02*
D03*
Y-199D02*
D03*
X-28591Y-16688D02*
D03*
X-43Y41296D02*
D03*
X-2011D02*
D03*
X28300Y-15052D02*
D03*
X-21025Y-15748D02*
D03*
X-19291Y-17717D02*
D03*
X-25591D02*
D03*
X-11024Y-17463D02*
D03*
Y-31496D02*
D03*
X36744Y-19001D02*
D03*
X6494Y-15354D02*
D03*
X8979Y-16720D02*
D03*
X35758Y20627D02*
D03*
X34773Y22331D02*
D03*
X-19291Y27559D02*
D03*
X-2362Y-24016D02*
D03*
X22047Y24409D02*
D03*
X20689Y-5222D02*
D03*
X22047Y14961D02*
D03*
Y17323D02*
D03*
Y19685D02*
D03*
Y22047D02*
D03*
X30709Y4724D02*
D03*
X20019Y-18000D02*
D03*
X29921Y-6299D02*
D03*
X27165D02*
D03*
X-22835Y-13780D02*
D03*
X-21654Y21260D02*
D03*
X-25591D02*
D03*
X-29134Y6299D02*
D03*
X-32677Y7874D02*
D03*
X-17323Y24016D02*
D03*
X-19291Y16142D02*
D03*
Y18110D02*
D03*
X-17323D02*
D03*
Y20079D02*
D03*
Y22047D02*
D03*
X-25984Y15157D02*
D03*
X12598Y31102D02*
D03*
X10236D02*
D03*
X5512D02*
D03*
X3150D02*
D03*
X4331Y32677D02*
D03*
X6693D02*
D03*
X1969D02*
D03*
X-5118Y33071D02*
D03*
Y31102D02*
D03*
X6299Y-32283D02*
D03*
X11024Y-28740D02*
D03*
X-8425Y-32654D02*
D03*
X9055Y-32283D02*
D03*
X-18898Y5118D02*
D03*
Y3150D02*
D03*
Y1181D02*
D03*
X-20866Y3150D02*
D03*
Y1181D02*
D03*
X-17717Y-2756D02*
D03*
X-20866Y5118D02*
D03*
X-17717Y-787D02*
D03*
X-19685D02*
D03*
X-21654D02*
D03*
X-23622Y-4724D02*
D03*
Y-787D02*
D03*
X20961Y-23702D02*
D03*
X2559Y-26969D02*
D03*
X-7087Y-30315D02*
D03*
X-5906Y22047D02*
D03*
X-9843D02*
D03*
X-11811Y20079D02*
D03*
X-3937D02*
D03*
Y24016D02*
D03*
X-11811D02*
D03*
X-21654Y23228D02*
D03*
X-20472Y26378D02*
D03*
X-21654Y25197D02*
D03*
X-26772Y20079D02*
D03*
X-24409Y22835D02*
D03*
X-23228Y24016D02*
D03*
X-26772Y6299D02*
D03*
X-23622Y-6693D02*
D03*
X-31102Y-7874D02*
D03*
X-43Y-41381D02*
D03*
X-2011D02*
D03*
X1926D02*
D03*
Y41296D02*
D03*
X-35843Y-20712D02*
D03*
X-36827Y-19007D02*
D03*
X-34859Y-22417D02*
D03*
X-36825Y18928D02*
D03*
X-34857Y22338D02*
D03*
X-35841Y20633D02*
D03*
X34775Y-22410D02*
D03*
X35759Y-20705D02*
D03*
X13903Y-15785D02*
D03*
X20734Y-8354D02*
D03*
M02*
