G04*
G04 #@! TF.GenerationSoftware,Altium Limited,Altium Designer,18.1.7 (191)*
G04*
G04 Layer_Color=8388736*
%FSLAX25Y25*%
%MOIN*%
G70*
G01*
G75*
%ADD32C,0.03347*%
G04:AMPARAMS|DCode=33|XSize=68.35mil|YSize=53.39mil|CornerRadius=4.02mil|HoleSize=0mil|Usage=FLASHONLY|Rotation=180.000|XOffset=0mil|YOffset=0mil|HoleType=Round|Shape=RoundedRectangle|*
%AMROUNDEDRECTD33*
21,1,0.06835,0.04535,0,0,180.0*
21,1,0.06032,0.05339,0,0,180.0*
1,1,0.00804,-0.03016,0.02268*
1,1,0.00804,0.03016,0.02268*
1,1,0.00804,0.03016,-0.02268*
1,1,0.00804,-0.03016,-0.02268*
%
%ADD33ROUNDEDRECTD33*%
G04:AMPARAMS|DCode=34|XSize=50.24mil|YSize=18.75mil|CornerRadius=2.29mil|HoleSize=0mil|Usage=FLASHONLY|Rotation=180.000|XOffset=0mil|YOffset=0mil|HoleType=Round|Shape=RoundedRectangle|*
%AMROUNDEDRECTD34*
21,1,0.05024,0.01417,0,0,180.0*
21,1,0.04567,0.01875,0,0,180.0*
1,1,0.00458,-0.02284,0.00709*
1,1,0.00458,0.02284,0.00709*
1,1,0.00458,0.02284,-0.00709*
1,1,0.00458,-0.02284,-0.00709*
%
%ADD34ROUNDEDRECTD34*%
%ADD35R,0.01106X0.01106*%
%ADD36R,0.01106X0.01224*%
%ADD37R,0.01224X0.01106*%
%ADD38R,0.01106X0.01106*%
%ADD39R,0.02662X0.01875*%
G04:AMPARAMS|DCode=40|XSize=81.74mil|YSize=81.74mil|CornerRadius=17.25mil|HoleSize=0mil|Usage=FLASHONLY|Rotation=0.000|XOffset=0mil|YOffset=0mil|HoleType=Round|Shape=RoundedRectangle|*
%AMROUNDEDRECTD40*
21,1,0.08174,0.04724,0,0,0.0*
21,1,0.04724,0.08174,0,0,0.0*
1,1,0.03450,0.02362,-0.02362*
1,1,0.03450,-0.02362,-0.02362*
1,1,0.03450,-0.02362,0.02362*
1,1,0.03450,0.02362,0.02362*
%
%ADD40ROUNDEDRECTD40*%
%ADD41R,0.03843X0.05418*%
%ADD42R,0.01875X0.02662*%
%ADD43C,0.05024*%
%ADD44R,0.10930X0.10930*%
%ADD45O,0.01284X0.03450*%
%ADD46O,0.03450X0.01284*%
%ADD47R,0.02662X0.04434*%
%ADD48R,0.01875X0.03843*%
G04:AMPARAMS|DCode=49|XSize=41.58mil|YSize=136.86mil|CornerRadius=3.43mil|HoleSize=0mil|Usage=FLASHONLY|Rotation=270.000|XOffset=0mil|YOffset=0mil|HoleType=Round|Shape=RoundedRectangle|*
%AMROUNDEDRECTD49*
21,1,0.04158,0.13000,0,0,270.0*
21,1,0.03472,0.13686,0,0,270.0*
1,1,0.00686,-0.06500,-0.01736*
1,1,0.00686,-0.06500,0.01736*
1,1,0.00686,0.06500,0.01736*
1,1,0.00686,0.06500,-0.01736*
%
%ADD49ROUNDEDRECTD49*%
%ADD50R,0.03843X0.06993*%
%ADD51R,0.03351X0.01087*%
%ADD52R,0.11521X0.06521*%
%ADD53O,0.01245X0.02662*%
%ADD54C,0.02300*%
G36*
X14375Y35053D02*
X14379Y35021D01*
X14384Y34971D01*
X14393Y34907D01*
X14407Y34829D01*
X14425Y34737D01*
X14452Y34636D01*
X14480Y34526D01*
X14512Y34412D01*
X14558Y34293D01*
X14604Y34173D01*
X14663Y34050D01*
X14732Y33926D01*
X14805Y33807D01*
X14888Y33697D01*
X14984Y33591D01*
X14988Y33587D01*
X15007Y33569D01*
X15044Y33541D01*
X15089Y33504D01*
X15140Y33463D01*
X15208Y33413D01*
X15286Y33362D01*
X15378Y33307D01*
X15479Y33252D01*
X15589Y33197D01*
X15712Y33147D01*
X15845Y33097D01*
X15983Y33051D01*
X16134Y33019D01*
X16294Y32987D01*
X16464Y32973D01*
X16455Y32588D01*
X16446D01*
X16413Y32583D01*
X16363Y32579D01*
X16299Y32570D01*
X16221Y32556D01*
X16134Y32542D01*
X16033Y32515D01*
X15923Y32487D01*
X15809Y32455D01*
X15689Y32409D01*
X15566Y32359D01*
X15442Y32299D01*
X15323Y32235D01*
X15199Y32157D01*
X15085Y32070D01*
X14979Y31974D01*
X14956Y31951D01*
X14929Y31914D01*
X14892Y31878D01*
X14851Y31818D01*
X14805Y31754D01*
X14755Y31676D01*
X14700Y31585D01*
X14645Y31484D01*
X14590Y31374D01*
X14544Y31255D01*
X14494Y31122D01*
X14448Y30984D01*
X14416Y30833D01*
X14384Y30673D01*
X14370Y30503D01*
X13990Y30499D01*
Y30508D01*
X13985Y30540D01*
X13980Y30590D01*
X13971Y30654D01*
X13958Y30732D01*
X13944Y30819D01*
X13916Y30920D01*
X13889Y31030D01*
X13857Y31145D01*
X13811Y31264D01*
X13760Y31387D01*
X13701Y31511D01*
X13632Y31635D01*
X13559Y31754D01*
X13472Y31869D01*
X13371Y31979D01*
X13366Y31983D01*
X13348Y32002D01*
X13311Y32029D01*
X13275Y32066D01*
X13215Y32107D01*
X13147Y32157D01*
X13069Y32208D01*
X12981Y32258D01*
X12881Y32313D01*
X12771Y32368D01*
X12647Y32419D01*
X12519Y32464D01*
X12381Y32510D01*
X12225Y32547D01*
X12070Y32574D01*
X11900Y32588D01*
X11896Y32978D01*
X11905D01*
X11937Y32982D01*
X11987Y32987D01*
X12051Y32996D01*
X12129Y33010D01*
X12216Y33023D01*
X12322Y33046D01*
X12427Y33078D01*
X12542Y33110D01*
X12665Y33152D01*
X12789Y33202D01*
X12908Y33257D01*
X13032Y33326D01*
X13151Y33399D01*
X13270Y33491D01*
X13376Y33587D01*
X13398Y33610D01*
X13426Y33647D01*
X13458Y33688D01*
X13504Y33743D01*
X13550Y33807D01*
X13600Y33885D01*
X13655Y33976D01*
X13710Y34077D01*
X13765Y34187D01*
X13815Y34311D01*
X13861Y34439D01*
X13903Y34581D01*
X13935Y34732D01*
X13967Y34893D01*
X13980Y35062D01*
X14375D01*
Y35053D01*
D02*
G37*
%LPC*%
G36*
X14177Y34105D02*
X14173Y34100D01*
X14168Y34086D01*
X14164Y34063D01*
X14150Y34031D01*
X14136Y33990D01*
X14118Y33944D01*
X14095Y33894D01*
X14067Y33839D01*
X13999Y33715D01*
X13912Y33573D01*
X13802Y33426D01*
X13669Y33285D01*
X13632Y33248D01*
X13600Y33225D01*
X13568Y33193D01*
X13527Y33161D01*
X13481Y33124D01*
X13426Y33078D01*
X13307Y32996D01*
X13169Y32913D01*
X13018Y32845D01*
X12858Y32785D01*
X12862Y32781D01*
X12876Y32776D01*
X12899Y32771D01*
X12931Y32757D01*
X12972Y32744D01*
X13018Y32726D01*
X13069Y32703D01*
X13124Y32675D01*
X13247Y32606D01*
X13385Y32524D01*
X13531Y32414D01*
X13673Y32281D01*
X13678Y32276D01*
X13692Y32263D01*
X13710Y32244D01*
X13738Y32217D01*
X13765Y32180D01*
X13802Y32134D01*
X13838Y32089D01*
X13880Y32038D01*
X13967Y31914D01*
X14049Y31777D01*
X14122Y31621D01*
X14177Y31465D01*
X14182Y31470D01*
X14187Y31484D01*
X14191Y31507D01*
X14205Y31539D01*
X14214Y31575D01*
X14237Y31617D01*
X14260Y31667D01*
X14283Y31727D01*
X14352Y31850D01*
X14443Y31988D01*
X14549Y32130D01*
X14682Y32272D01*
X14746Y32336D01*
X14782Y32364D01*
X14828Y32400D01*
X14874Y32437D01*
X14929Y32483D01*
X15048Y32565D01*
X15190Y32652D01*
X15337Y32726D01*
X15497Y32785D01*
X15493Y32790D01*
X15479Y32794D01*
X15456Y32799D01*
X15424Y32812D01*
X15382Y32826D01*
X15337Y32845D01*
X15286Y32868D01*
X15231Y32895D01*
X15108Y32964D01*
X14966Y33051D01*
X14823Y33156D01*
X14682Y33289D01*
X14677Y33294D01*
X14663Y33307D01*
X14645Y33326D01*
X14622Y33358D01*
X14590Y33390D01*
X14558Y33431D01*
X14521Y33477D01*
X14480Y33527D01*
X14393Y33651D01*
X14310Y33788D01*
X14237Y33944D01*
X14177Y34105D01*
D02*
G37*
%LPD*%
D32*
X41043Y0D02*
G03*
X41043Y0I-41043J0D01*
G01*
D33*
X10551Y-1634D02*
D03*
Y4783D02*
D03*
D34*
X18110Y295D02*
D03*
Y-2264D02*
D03*
Y2854D02*
D03*
Y5413D02*
D03*
X7874D02*
D03*
Y2854D02*
D03*
Y295D02*
D03*
Y-2264D02*
D03*
D35*
X18101Y-14240D02*
D03*
X15542Y-11681D02*
D03*
D36*
X18101Y-15204D02*
D03*
X15542D02*
D03*
Y-10716D02*
D03*
X18101D02*
D03*
D37*
X19066Y-14240D02*
D03*
X14578D02*
D03*
Y-11681D02*
D03*
X19066D02*
D03*
D38*
X15542Y-14240D02*
D03*
X18101Y-11681D02*
D03*
D39*
X11627Y-11188D02*
D03*
Y-14732D02*
D03*
X-23819Y18701D02*
D03*
Y15157D02*
D03*
Y12008D02*
D03*
Y8465D02*
D03*
X-23819Y5315D02*
D03*
Y1772D02*
D03*
X-26772Y-12008D02*
D03*
Y-8465D02*
D03*
X-30315Y-5315D02*
D03*
Y-1772D02*
D03*
X-26772D02*
D03*
Y-5315D02*
D03*
X-33858D02*
D03*
Y-1772D02*
D03*
D40*
X0Y-5512D02*
D03*
Y5512D02*
D03*
D41*
X-1378Y33071D02*
D03*
X-8858Y33071D02*
D03*
X-8858Y2756D02*
D03*
X-16339Y2756D02*
D03*
D42*
X12787Y-18110D02*
D03*
X16331D02*
D03*
X-15945Y-32283D02*
D03*
X-12402D02*
D03*
X-15945Y-28741D02*
D03*
X-12402D02*
D03*
X-16330Y-18110D02*
D03*
X-12787D02*
D03*
Y-14961D02*
D03*
X-16330D02*
D03*
X-1772Y-36221D02*
D03*
X1772D02*
D03*
X12403Y-32283D02*
D03*
X15947D02*
D03*
X27756Y-18110D02*
D03*
X24213D02*
D03*
X28150Y2362D02*
D03*
X24606D02*
D03*
X28150Y22048D02*
D03*
X24606D02*
D03*
X-13583Y9449D02*
D03*
X-17126D02*
D03*
X-13583Y12992D02*
D03*
X-17126D02*
D03*
X-7283Y12992D02*
D03*
X-10827D02*
D03*
X-27953Y15748D02*
D03*
X-31496D02*
D03*
D43*
X-28772Y-20697D02*
D03*
X-25055Y-25055D02*
D03*
X-20695Y-28772D02*
D03*
X-31571Y-16086D02*
D03*
D44*
X0Y-24016D02*
D03*
D45*
X-3937Y-16142D02*
D03*
X-1969D02*
D03*
X0D02*
D03*
X1969D02*
D03*
X3937D02*
D03*
Y-31890D02*
D03*
X1969D02*
D03*
X0D02*
D03*
X-1969D02*
D03*
X-3937D02*
D03*
D46*
X7874Y-20079D02*
D03*
Y-22047D02*
D03*
Y-24016D02*
D03*
Y-25984D02*
D03*
Y-27953D02*
D03*
X-7874D02*
D03*
Y-25984D02*
D03*
Y-24016D02*
D03*
Y-22047D02*
D03*
Y-20079D02*
D03*
D47*
X32087Y-2559D02*
D03*
X28346D02*
D03*
X24606D02*
D03*
Y-13189D02*
D03*
X32087D02*
D03*
D48*
X24606Y8661D02*
D03*
X27165D02*
D03*
X29724D02*
D03*
Y17323D02*
D03*
X24606D02*
D03*
X-33071Y2756D02*
D03*
X-30512D02*
D03*
X-27953D02*
D03*
Y11417D02*
D03*
X-33071D02*
D03*
X-30512D02*
D03*
D49*
X11024Y26713D02*
D03*
Y17382D02*
D03*
D50*
X-8858Y-5512D02*
D03*
X-20276D02*
D03*
D51*
X-738Y24764D02*
D03*
Y22953D02*
D03*
Y21142D02*
D03*
Y19331D02*
D03*
X-15010D02*
D03*
Y21142D02*
D03*
Y22953D02*
D03*
Y24764D02*
D03*
D52*
X-7874Y22047D02*
D03*
D53*
X-13780Y27559D02*
D03*
X-11811D02*
D03*
X-9843D02*
D03*
X-7874D02*
D03*
X-5906D02*
D03*
X-3937D02*
D03*
X-1969D02*
D03*
Y16535D02*
D03*
X-3937D02*
D03*
X-5906D02*
D03*
X-7874D02*
D03*
X-9843D02*
D03*
X-11811D02*
D03*
X-13780D02*
D03*
D54*
X-7874Y20079D02*
D03*
Y24016D02*
D03*
X2559Y-26969D02*
D03*
X-5906Y22047D02*
D03*
X-9843D02*
D03*
X-11811Y20079D02*
D03*
X-3937D02*
D03*
Y24016D02*
D03*
X-11811D02*
D03*
M02*
