G04*
G04 #@! TF.GenerationSoftware,Altium Limited,Altium Designer,18.1.7 (191)*
G04*
G04 Layer_Color=16711935*
%FSLAX25Y25*%
%MOIN*%
G70*
G01*
G75*
%ADD54C,0.02300*%
%ADD65C,0.03937*%
%ADD69C,0.02747*%
%ADD70C,0.02900*%
%ADD71C,0.27859*%
G36*
X-18016Y-23697D02*
X-18315D01*
X-18866Y-23925D01*
X-19288Y-24347D01*
X-19516Y-24899D01*
Y-25197D01*
Y-25495D01*
X-19288Y-26046D01*
X-18866Y-26469D01*
X-18315Y-26697D01*
X-18016D01*
D01*
X-17416D01*
X-17118D01*
X-16567Y-26469D01*
X-16145Y-26046D01*
X-15916Y-25495D01*
Y-25197D01*
Y-24899D01*
X-16145Y-24347D01*
X-16567Y-23925D01*
X-17118Y-23697D01*
X-17416D01*
D01*
X-18016D01*
D02*
G37*
G36*
Y-19366D02*
X-18315D01*
X-18866Y-19594D01*
X-19288Y-20017D01*
X-19516Y-20568D01*
Y-20866D01*
Y-21165D01*
X-19288Y-21716D01*
X-18866Y-22138D01*
X-18315Y-22366D01*
X-18016D01*
D01*
X-17416D01*
X-17118D01*
X-16567Y-22138D01*
X-16145Y-21716D01*
X-15916Y-21165D01*
Y-20866D01*
Y-20568D01*
X-16145Y-20017D01*
X-16567Y-19594D01*
X-17118Y-19366D01*
X-17416D01*
D01*
X-18016D01*
D02*
G37*
G36*
X18016Y-26697D02*
X18315D01*
X18866Y-26469D01*
X19288Y-26046D01*
X19516Y-25495D01*
Y-25197D01*
Y-24899D01*
X19288Y-24347D01*
X18866Y-23925D01*
X18315Y-23697D01*
X18016D01*
D01*
X17416D01*
X17118D01*
X16567Y-23925D01*
X16145Y-24347D01*
X15916Y-24899D01*
Y-25197D01*
Y-25495D01*
X16145Y-26046D01*
X16567Y-26469D01*
X17118Y-26697D01*
X17416D01*
D01*
X18016D01*
D02*
G37*
G36*
Y-22366D02*
X18315D01*
X18866Y-22138D01*
X19288Y-21716D01*
X19516Y-21165D01*
Y-20866D01*
Y-20568D01*
X19288Y-20017D01*
X18866Y-19594D01*
X18315Y-19366D01*
X18016D01*
D01*
X17416D01*
X17118D01*
X16567Y-19594D01*
X16145Y-20017D01*
X15916Y-20568D01*
Y-20866D01*
Y-21165D01*
X16145Y-21716D01*
X16567Y-22138D01*
X17118Y-22366D01*
X17416D01*
D01*
X18016D01*
D02*
G37*
G36*
X29280Y14077D02*
X29286Y14036D01*
X29292Y13971D01*
X29304Y13889D01*
X29321Y13789D01*
X29345Y13671D01*
X29380Y13541D01*
X29416Y13400D01*
X29457Y13253D01*
X29516Y13100D01*
X29575Y12946D01*
X29651Y12787D01*
X29740Y12628D01*
X29834Y12475D01*
X29940Y12334D01*
X30064Y12198D01*
X30070Y12192D01*
X30093Y12169D01*
X30140Y12134D01*
X30199Y12087D01*
X30264Y12033D01*
X30352Y11969D01*
X30452Y11904D01*
X30570Y11833D01*
X30700Y11762D01*
X30841Y11692D01*
X31000Y11627D01*
X31171Y11562D01*
X31348Y11503D01*
X31542Y11462D01*
X31748Y11421D01*
X31966Y11403D01*
X31954Y10908D01*
X31942D01*
X31901Y10903D01*
X31837Y10897D01*
X31754Y10885D01*
X31654Y10867D01*
X31542Y10849D01*
X31412Y10814D01*
X31271Y10779D01*
X31124Y10738D01*
X30971Y10679D01*
X30812Y10614D01*
X30653Y10537D01*
X30499Y10455D01*
X30340Y10355D01*
X30193Y10243D01*
X30058Y10119D01*
X30028Y10090D01*
X29993Y10042D01*
X29946Y9995D01*
X29893Y9919D01*
X29834Y9836D01*
X29769Y9736D01*
X29698Y9618D01*
X29628Y9489D01*
X29557Y9347D01*
X29498Y9194D01*
X29433Y9024D01*
X29374Y8847D01*
X29333Y8653D01*
X29292Y8446D01*
X29274Y8228D01*
X28785Y8223D01*
Y8234D01*
X28780Y8275D01*
X28774Y8340D01*
X28762Y8423D01*
X28744Y8523D01*
X28727Y8635D01*
X28691Y8764D01*
X28656Y8906D01*
X28615Y9053D01*
X28556Y9206D01*
X28491Y9365D01*
X28414Y9524D01*
X28326Y9683D01*
X28232Y9836D01*
X28120Y9984D01*
X27990Y10125D01*
X27984Y10131D01*
X27961Y10154D01*
X27914Y10190D01*
X27867Y10237D01*
X27790Y10290D01*
X27702Y10355D01*
X27602Y10419D01*
X27490Y10484D01*
X27360Y10555D01*
X27219Y10626D01*
X27060Y10690D01*
X26895Y10749D01*
X26718Y10808D01*
X26518Y10855D01*
X26317Y10891D01*
X26100Y10908D01*
X26094Y11409D01*
X26105D01*
X26147Y11415D01*
X26211Y11421D01*
X26294Y11433D01*
X26394Y11450D01*
X26506Y11468D01*
X26641Y11497D01*
X26777Y11539D01*
X26924Y11580D01*
X27083Y11633D01*
X27242Y11698D01*
X27395Y11768D01*
X27554Y11857D01*
X27707Y11951D01*
X27861Y12069D01*
X27996Y12192D01*
X28026Y12222D01*
X28061Y12269D01*
X28102Y12322D01*
X28161Y12393D01*
X28220Y12475D01*
X28285Y12575D01*
X28355Y12693D01*
X28426Y12823D01*
X28497Y12964D01*
X28562Y13123D01*
X28620Y13288D01*
X28673Y13471D01*
X28715Y13665D01*
X28756Y13871D01*
X28774Y14089D01*
X29280D01*
Y14077D01*
D02*
G37*
%LPC*%
G36*
X29027Y12858D02*
X29021Y12852D01*
X29015Y12834D01*
X29009Y12805D01*
X28992Y12764D01*
X28974Y12711D01*
X28950Y12652D01*
X28921Y12587D01*
X28885Y12516D01*
X28797Y12357D01*
X28685Y12175D01*
X28544Y11986D01*
X28373Y11804D01*
X28326Y11757D01*
X28285Y11727D01*
X28243Y11686D01*
X28190Y11645D01*
X28132Y11598D01*
X28061Y11539D01*
X27908Y11433D01*
X27731Y11327D01*
X27537Y11238D01*
X27330Y11162D01*
X27336Y11156D01*
X27354Y11150D01*
X27384Y11144D01*
X27425Y11126D01*
X27478Y11109D01*
X27537Y11085D01*
X27602Y11056D01*
X27672Y11020D01*
X27831Y10932D01*
X28008Y10826D01*
X28196Y10685D01*
X28379Y10514D01*
X28385Y10508D01*
X28403Y10490D01*
X28426Y10467D01*
X28461Y10431D01*
X28497Y10384D01*
X28544Y10325D01*
X28591Y10266D01*
X28644Y10202D01*
X28756Y10042D01*
X28862Y9866D01*
X28956Y9666D01*
X29027Y9465D01*
X29033Y9471D01*
X29039Y9489D01*
X29045Y9518D01*
X29062Y9560D01*
X29074Y9607D01*
X29103Y9660D01*
X29133Y9725D01*
X29162Y9801D01*
X29251Y9960D01*
X29368Y10137D01*
X29504Y10319D01*
X29675Y10502D01*
X29757Y10584D01*
X29804Y10620D01*
X29863Y10667D01*
X29922Y10714D01*
X29993Y10773D01*
X30146Y10879D01*
X30329Y10991D01*
X30517Y11085D01*
X30723Y11162D01*
X30717Y11168D01*
X30700Y11174D01*
X30670Y11179D01*
X30629Y11197D01*
X30576Y11215D01*
X30517Y11238D01*
X30452Y11268D01*
X30382Y11303D01*
X30223Y11391D01*
X30040Y11503D01*
X29857Y11639D01*
X29675Y11810D01*
X29669Y11816D01*
X29651Y11833D01*
X29628Y11857D01*
X29598Y11898D01*
X29557Y11939D01*
X29516Y11992D01*
X29469Y12051D01*
X29416Y12116D01*
X29304Y12275D01*
X29198Y12452D01*
X29103Y12652D01*
X29027Y12858D01*
D02*
G37*
%LPD*%
D54*
X-7874Y20079D02*
D03*
Y24016D02*
D03*
X2559Y-26969D02*
D03*
X-5906Y22047D02*
D03*
X-9843D02*
D03*
X-11811Y20079D02*
D03*
X-3937D02*
D03*
Y24016D02*
D03*
X-11811D02*
D03*
D65*
X37402Y0D02*
G03*
X37402Y0I-37402J0D01*
G01*
D69*
X41339D02*
G03*
X41339Y0I-41339J0D01*
G01*
D70*
X-2559Y-26969D02*
D03*
X2559D02*
D03*
X-7677Y-21063D02*
D03*
X-2559D02*
D03*
X2559D02*
D03*
X7677D02*
D03*
D71*
X0Y0D02*
D03*
M02*
