G04*
G04 #@! TF.GenerationSoftware,Altium Limited,Altium Designer,18.1.7 (191)*
G04*
G04 Layer_Color=32896*
%FSLAX25Y25*%
%MOIN*%
G70*
G01*
G75*
%ADD72C,0.00400*%
G36*
X24470Y9445D02*
X24488Y9418D01*
Y9381D01*
X24470Y9325D01*
X24451Y9261D01*
X24414Y9187D01*
X24322Y9038D01*
X24220Y8881D01*
X24174Y8807D01*
X24127Y8743D01*
X24090Y8687D01*
X24063Y8650D01*
X24044Y8622D01*
X24035Y8613D01*
X23905Y8419D01*
X23841Y8326D01*
X23794Y8252D01*
X23757Y8178D01*
X23730Y8123D01*
X23711Y8086D01*
X23702Y8077D01*
X23656Y7984D01*
X23628Y7901D01*
X23600Y7827D01*
X23591Y7771D01*
X23582Y7725D01*
X23572Y7697D01*
Y7670D01*
X23582Y7549D01*
X23591Y7429D01*
X23656Y7207D01*
X23739Y7013D01*
X23831Y6855D01*
X23924Y6717D01*
X23970Y6661D01*
X24007Y6615D01*
X24044Y6578D01*
X24072Y6550D01*
X24081Y6541D01*
X24090Y6532D01*
X24192Y6448D01*
X24294Y6374D01*
X24405Y6310D01*
X24516Y6263D01*
X24729Y6171D01*
X24932Y6115D01*
X25108Y6088D01*
X25182Y6078D01*
X25247Y6069D01*
X25302Y6060D01*
X25339D01*
X25367D01*
X25376D01*
X25829D01*
X25737Y7429D01*
X25728Y7679D01*
X25718Y7910D01*
X25709Y8113D01*
X25718Y8289D01*
Y8456D01*
X25728Y8595D01*
X25737Y8715D01*
X25755Y8826D01*
X25765Y8909D01*
X25783Y8983D01*
X25792Y9038D01*
X25811Y9085D01*
X25820Y9122D01*
X25829Y9140D01*
X25839Y9159D01*
X25885Y9214D01*
X25940Y9251D01*
X26005Y9279D01*
X26070Y9288D01*
X26153Y9297D01*
X26227Y9288D01*
X26394Y9261D01*
X26542Y9223D01*
X26616Y9196D01*
X26671Y9177D01*
X26717Y9149D01*
X26764Y9140D01*
X26782Y9122D01*
X26791D01*
X26912Y9057D01*
X27013Y8983D01*
X27115Y8900D01*
X27198Y8807D01*
X27356Y8613D01*
X27467Y8428D01*
X27559Y8252D01*
X27587Y8178D01*
X27615Y8104D01*
X27633Y8049D01*
X27652Y8012D01*
X27661Y7984D01*
Y7975D01*
X27698Y7827D01*
X27726Y7679D01*
X27735Y7531D01*
Y7392D01*
X27726Y7133D01*
X27707Y7013D01*
X27679Y6911D01*
X27661Y6809D01*
X27633Y6717D01*
X27605Y6643D01*
X27587Y6569D01*
X27559Y6522D01*
X27550Y6486D01*
X27531Y6458D01*
Y6448D01*
X27393Y6227D01*
X27245Y6041D01*
X27097Y5875D01*
X26949Y5736D01*
X26810Y5625D01*
X26708Y5551D01*
X26662Y5523D01*
X26634Y5505D01*
X26616Y5486D01*
X26606D01*
X26375Y5376D01*
X26144Y5283D01*
X25922Y5227D01*
X25718Y5181D01*
X25617Y5172D01*
X25533Y5153D01*
X25459Y5144D01*
X25395D01*
X25339Y5135D01*
X25302D01*
X25274D01*
X25265D01*
X25080Y5153D01*
X24886Y5190D01*
X24692Y5246D01*
X24507Y5311D01*
X24340Y5376D01*
X24275Y5403D01*
X24220Y5431D01*
X24164Y5459D01*
X24127Y5468D01*
X24109Y5486D01*
X24100D01*
X23859Y5625D01*
X23656Y5755D01*
X23489Y5884D01*
X23350Y5995D01*
X23239Y6097D01*
X23165Y6171D01*
X23128Y6217D01*
X23110Y6236D01*
X23027Y6356D01*
X22962Y6486D01*
X22906Y6615D01*
X22869Y6745D01*
X22842Y6874D01*
X22823Y7004D01*
X22805Y7253D01*
Y7364D01*
X22814Y7466D01*
X22823Y7568D01*
X22842Y7642D01*
X22851Y7706D01*
X22860Y7762D01*
X22869Y7790D01*
Y7799D01*
X22925Y7965D01*
X22990Y8132D01*
X23054Y8271D01*
X23138Y8410D01*
X23221Y8539D01*
X23304Y8650D01*
X23387Y8752D01*
X23471Y8844D01*
X23554Y8928D01*
X23628Y9002D01*
X23702Y9057D01*
X23767Y9112D01*
X23813Y9149D01*
X23850Y9177D01*
X23878Y9187D01*
X23887Y9196D01*
X24035Y9288D01*
X24155Y9353D01*
X24248Y9399D01*
X24322Y9427D01*
X24368Y9445D01*
X24405Y9455D01*
X24423D01*
X24433D01*
X24470Y9445D01*
D02*
G37*
G36*
X22906Y4867D02*
X22934Y4839D01*
X22971Y4793D01*
X23008Y4747D01*
X23036Y4691D01*
X23064Y4654D01*
X23082Y4617D01*
X23091Y4608D01*
X23110Y4589D01*
Y4580D01*
X23360Y4145D01*
X24969D01*
X25210D01*
X25432Y4136D01*
X25635D01*
X25820Y4127D01*
X25996Y4118D01*
X26144Y4099D01*
X26283Y4090D01*
X26412Y4081D01*
X26523Y4062D01*
X26616Y4053D01*
X26690Y4044D01*
X26754Y4025D01*
X26801Y4016D01*
X26838D01*
X26856Y4007D01*
X26865D01*
X26967Y3979D01*
X27069Y3942D01*
X27235Y3868D01*
X27365Y3785D01*
X27467Y3701D01*
X27541Y3627D01*
X27596Y3562D01*
X27624Y3525D01*
X27633Y3507D01*
X27689Y3368D01*
X27735Y3229D01*
X27753Y3091D01*
X27763Y2961D01*
Y2730D01*
X27753Y2702D01*
Y2684D01*
X27726Y2508D01*
X27670Y2341D01*
X27615Y2175D01*
X27550Y2036D01*
X27485Y1907D01*
X27430Y1814D01*
X27411Y1777D01*
X27402Y1750D01*
X27383Y1740D01*
Y1731D01*
X26995Y1120D01*
X27319Y806D01*
X27420Y677D01*
X27494Y538D01*
X27559Y390D01*
X27596Y251D01*
X27624Y131D01*
X27633Y29D01*
X27642Y-8D01*
Y-267D01*
X27615Y-452D01*
X27568Y-628D01*
X27522Y-785D01*
X27476Y-915D01*
X27430Y-1016D01*
X27411Y-1053D01*
X27393Y-1081D01*
X27383Y-1090D01*
Y-1099D01*
X27356Y-1137D01*
X27337Y-1173D01*
X27328Y-1211D01*
X27319Y-1220D01*
X27254Y-1331D01*
X27208Y-1423D01*
X27180Y-1507D01*
X27152Y-1571D01*
X27143Y-1627D01*
Y-1664D01*
X27152Y-1691D01*
X27171Y-1719D01*
X27208Y-1738D01*
X27254Y-1747D01*
X27282Y-1738D01*
X27300D01*
X27356Y-1729D01*
X27411Y-1719D01*
X27513Y-1747D01*
X27550Y-1756D01*
X27587Y-1775D01*
X27605Y-1784D01*
X27615Y-1793D01*
X27670Y-1830D01*
X27716Y-1877D01*
X27735Y-1914D01*
X27753Y-1950D01*
X27763Y-2006D01*
Y-2043D01*
X27744Y-2080D01*
X27735Y-2126D01*
X27707Y-2182D01*
X27661Y-2311D01*
X27596Y-2450D01*
X27531Y-2589D01*
X27485Y-2709D01*
X27457Y-2764D01*
X27448Y-2802D01*
X27430Y-2820D01*
Y-2829D01*
X27078Y-3551D01*
X26958Y-3134D01*
X26921Y-3033D01*
X26884Y-2950D01*
X26838Y-2894D01*
X26801Y-2839D01*
X26773Y-2811D01*
X26745Y-2792D01*
X26727Y-2774D01*
X26717D01*
X26690Y-2764D01*
X26643Y-2746D01*
X26542Y-2727D01*
X26412Y-2700D01*
X26283Y-2681D01*
X26153Y-2663D01*
X26051Y-2644D01*
X26005D01*
X25977Y-2635D01*
X25959D01*
X25950D01*
X25607Y-2616D01*
X25284Y-2607D01*
X24978Y-2616D01*
X24840D01*
X24710D01*
X24599Y-2626D01*
X24488D01*
X24396Y-2635D01*
X24312Y-2644D01*
X24248D01*
X24201Y-2654D01*
X24174D01*
X24164D01*
X24016Y-2672D01*
X23896Y-2691D01*
X23785Y-2709D01*
X23702Y-2718D01*
X23637Y-2727D01*
X23591Y-2737D01*
X23563Y-2746D01*
X23554D01*
X23424Y-2783D01*
X23332Y-2811D01*
X23304Y-2829D01*
X23276Y-2848D01*
X23267Y-2857D01*
X23258D01*
X23193Y-2912D01*
X23147Y-2977D01*
X23119Y-3033D01*
X23110Y-3042D01*
Y-3051D01*
X23064Y-3144D01*
X23027Y-3218D01*
X22999Y-3264D01*
X22971Y-3301D01*
X22943Y-3320D01*
X22925Y-3329D01*
X22916Y-3338D01*
X22897Y-3329D01*
X22869Y-3292D01*
X22860Y-3236D01*
X22842Y-3162D01*
X22832Y-3079D01*
X22814Y-2987D01*
X22805Y-2783D01*
X22795Y-2589D01*
X22786Y-2496D01*
Y-2237D01*
X22795Y-1636D01*
X22814Y-1488D01*
X22832Y-1377D01*
X22860Y-1294D01*
X22888Y-1238D01*
X22916Y-1201D01*
X22953Y-1183D01*
X22980Y-1173D01*
X23017Y-1183D01*
X23045Y-1211D01*
X23073Y-1238D01*
X23128Y-1294D01*
X23165Y-1349D01*
X23175Y-1368D01*
Y-1377D01*
X23221Y-1442D01*
X23276Y-1488D01*
X23341Y-1534D01*
X23397Y-1562D01*
X23452Y-1581D01*
X23498Y-1599D01*
X23535Y-1608D01*
X23545D01*
X23600Y-1617D01*
X23683D01*
X23767Y-1627D01*
X23868D01*
X24090Y-1636D01*
X24312D01*
X24534Y-1645D01*
X24627D01*
X24710D01*
X24784D01*
X24840D01*
X24877D01*
X24886D01*
X25108D01*
X25293D01*
X25450D01*
X25570D01*
X25672D01*
X25737D01*
X25774D01*
X25783D01*
X25968Y-1636D01*
X26051Y-1627D01*
X26125Y-1617D01*
X26181Y-1608D01*
X26227D01*
X26255Y-1599D01*
X26264D01*
X26338Y-1581D01*
X26403Y-1562D01*
X26449Y-1543D01*
X26486Y-1534D01*
X26514Y-1516D01*
X26532Y-1507D01*
X26542Y-1497D01*
X26597Y-1442D01*
X26653Y-1377D01*
X26699Y-1321D01*
X26708Y-1303D01*
X26717Y-1294D01*
X26801Y-1173D01*
X26865Y-1053D01*
X26912Y-942D01*
X26939Y-840D01*
X26958Y-748D01*
X26967Y-683D01*
X26976Y-637D01*
Y-618D01*
X26967Y-480D01*
X26949Y-359D01*
X26912Y-249D01*
X26865Y-147D01*
X26819Y-64D01*
X26782Y-8D01*
X26754Y38D01*
X26745Y48D01*
X26671Y112D01*
X26597Y168D01*
X26523Y205D01*
X26449Y233D01*
X26394Y260D01*
X26338Y270D01*
X26301Y279D01*
X26292D01*
X26227Y288D01*
X26153Y297D01*
X26061D01*
X25959Y307D01*
X25728Y316D01*
X25496D01*
X25274Y325D01*
X25173D01*
X25080D01*
X25006D01*
X24951D01*
X24914D01*
X24904D01*
X23323D01*
X23147Y20D01*
X23064Y-128D01*
X22999Y-258D01*
X22934Y-369D01*
X22888Y-461D01*
X22860Y-517D01*
X22851Y-526D01*
Y-535D01*
X22814Y649D01*
X22805Y880D01*
Y1398D01*
X22814Y1509D01*
Y1602D01*
X22823Y1648D01*
Y1666D01*
X22832Y1750D01*
X22851Y1823D01*
X22860Y1870D01*
X22879Y1907D01*
X22888Y1925D01*
X22906Y1944D01*
X22916D01*
X22934Y1935D01*
X22962Y1907D01*
X22980Y1870D01*
X22990Y1842D01*
X22999Y1823D01*
X23054Y1703D01*
X23128Y1602D01*
X23193Y1518D01*
X23267Y1453D01*
X23323Y1407D01*
X23378Y1379D01*
X23415Y1361D01*
X23424Y1352D01*
X23489Y1333D01*
X23563Y1315D01*
X23646Y1296D01*
X23748Y1278D01*
X23952Y1241D01*
X24164Y1222D01*
X24368Y1194D01*
X24460Y1185D01*
X24534Y1176D01*
X24599D01*
X24645Y1167D01*
X24682D01*
X24692D01*
X24867Y1158D01*
X25025D01*
X25163Y1148D01*
X25293D01*
X25404Y1139D01*
X25496D01*
X25589D01*
X25654D01*
X25718D01*
X25765D01*
X25802D01*
X25839Y1148D01*
X25876D01*
X25885D01*
X25968Y1176D01*
X26051Y1213D01*
X26125Y1259D01*
X26199Y1315D01*
X26264Y1370D01*
X26310Y1407D01*
X26347Y1444D01*
X26357Y1453D01*
X26486Y1592D01*
X26588Y1731D01*
X26680Y1870D01*
X26745Y1999D01*
X26801Y2120D01*
X26838Y2203D01*
X26847Y2240D01*
X26856Y2268D01*
X26865Y2277D01*
Y2286D01*
X26884Y2388D01*
X26902Y2471D01*
Y2628D01*
X26884Y2758D01*
X26856Y2860D01*
X26810Y2933D01*
X26773Y2989D01*
X26736Y3017D01*
X26727Y3026D01*
X26662Y3063D01*
X26588Y3091D01*
X26505Y3128D01*
X26403Y3156D01*
X26190Y3202D01*
X25959Y3239D01*
X25746Y3266D01*
X25654Y3276D01*
X25570Y3285D01*
X25506Y3294D01*
X25450Y3303D01*
X25413D01*
X25404D01*
X25210Y3322D01*
X25025Y3331D01*
X24858D01*
X24701Y3340D01*
X24553D01*
X24423D01*
X24312Y3331D01*
X24211D01*
X24118Y3322D01*
X24044D01*
X23979Y3313D01*
X23924Y3303D01*
X23887D01*
X23850Y3294D01*
X23841D01*
X23831D01*
X23665Y3257D01*
X23526Y3193D01*
X23415Y3128D01*
X23323Y3063D01*
X23258Y2998D01*
X23212Y2943D01*
X23184Y2906D01*
X23175Y2887D01*
X23138Y2822D01*
X23101Y2767D01*
X23045Y2684D01*
X22999Y2637D01*
X22990Y2619D01*
X22934Y2582D01*
X22897Y2573D01*
X22860Y2591D01*
X22832Y2628D01*
X22805Y2693D01*
X22786Y2767D01*
X22777Y2860D01*
X22768Y2952D01*
X22758Y3156D01*
X22749Y3248D01*
Y3331D01*
X22758Y3405D01*
Y3692D01*
X22768Y3895D01*
X22777Y4081D01*
X22786Y4238D01*
X22805Y4367D01*
X22814Y4487D01*
X22823Y4580D01*
X22832Y4654D01*
X22842Y4719D01*
X22851Y4774D01*
X22860Y4811D01*
Y4839D01*
X22869Y4857D01*
X22879Y4876D01*
X22906Y4867D01*
D02*
G37*
G36*
X23480Y-3828D02*
X23526Y-3875D01*
X23572Y-3921D01*
X23609Y-3967D01*
X23646Y-4013D01*
X23665Y-4050D01*
X23674Y-4059D01*
X23739Y-4134D01*
X23822Y-4189D01*
X23878Y-4217D01*
X23896Y-4226D01*
X23905D01*
X23970Y-4245D01*
X24053Y-4254D01*
X24220Y-4272D01*
X24303Y-4281D01*
X24368Y-4291D01*
X24405D01*
X24423D01*
X24497D01*
X24581Y-4300D01*
X24784D01*
X24997D01*
X25210Y-4309D01*
X25404D01*
X25487D01*
X25561D01*
X25626D01*
X25672D01*
X25700D01*
X25709D01*
X25885D01*
X26042D01*
X26199D01*
X26338Y-4318D01*
X26597Y-4328D01*
X26819Y-4337D01*
X27013Y-4346D01*
X27180Y-4365D01*
X27319Y-4374D01*
X27439Y-4392D01*
X27522Y-4411D01*
X27596Y-4420D01*
X27652Y-4439D01*
X27689Y-4448D01*
X27716Y-4457D01*
X27735Y-4467D01*
X27744Y-4476D01*
X27763Y-4504D01*
X27781Y-4541D01*
X27800Y-4596D01*
X27818Y-4651D01*
X27846Y-4781D01*
X27864Y-4920D01*
X27883Y-5049D01*
X27892Y-5160D01*
X27901Y-5206D01*
Y-5271D01*
X27911Y-5392D01*
Y-5595D01*
X27901Y-5678D01*
Y-5752D01*
X27892Y-5817D01*
X27883Y-5919D01*
X27864Y-5993D01*
X27846Y-6039D01*
X27837Y-6058D01*
X27827Y-6067D01*
X27809Y-6076D01*
X27781D01*
X27735Y-6048D01*
X27670Y-5993D01*
X27615Y-5919D01*
X27559Y-5854D01*
X27513Y-5789D01*
X27476Y-5743D01*
X27467Y-5725D01*
X27171Y-5308D01*
X25737Y-5280D01*
X25580D01*
X25441D01*
X25311D01*
X25191D01*
X25080D01*
X24978D01*
X24886Y-5290D01*
X24812D01*
X24738Y-5299D01*
X24682D01*
X24627Y-5308D01*
X24590D01*
X24553D01*
X24534Y-5317D01*
X24516D01*
X24386Y-5345D01*
X24275Y-5373D01*
X24183Y-5419D01*
X24100Y-5456D01*
X24035Y-5493D01*
X23989Y-5521D01*
X23961Y-5539D01*
X23952Y-5549D01*
X23878Y-5623D01*
X23804Y-5715D01*
X23739Y-5817D01*
X23683Y-5919D01*
X23637Y-6002D01*
X23600Y-6076D01*
X23582Y-6132D01*
X23572Y-6141D01*
Y-6150D01*
X23526Y-6270D01*
X23508Y-6381D01*
X23498Y-6483D01*
X23508Y-6585D01*
X23517Y-6668D01*
X23545Y-6742D01*
X23619Y-6871D01*
X23711Y-6964D01*
X23794Y-7029D01*
X23822Y-7057D01*
X23850Y-7075D01*
X23868Y-7084D01*
X23878D01*
X23998Y-7130D01*
X24146Y-7168D01*
X24312Y-7204D01*
X24488Y-7232D01*
X24682Y-7260D01*
X24877Y-7278D01*
X25265Y-7306D01*
X25450Y-7325D01*
X25635D01*
X25792Y-7334D01*
X25931Y-7343D01*
X26051D01*
X26144D01*
X26199D01*
X26209D01*
X26218D01*
X26412D01*
X26588D01*
X26745D01*
X26893Y-7352D01*
X27013D01*
X27124Y-7362D01*
X27217D01*
X27291D01*
X27356Y-7371D01*
X27411D01*
X27457Y-7380D01*
X27485D01*
X27531Y-7389D01*
X27541D01*
X27624Y-7408D01*
X27679Y-7445D01*
X27735Y-7482D01*
X27772Y-7519D01*
X27800Y-7565D01*
X27818Y-7593D01*
X27827Y-7621D01*
Y-7630D01*
X27874Y-7870D01*
X27892Y-8000D01*
Y-8111D01*
X27901Y-8203D01*
Y-8352D01*
X27892Y-8490D01*
X27883Y-8601D01*
X27864Y-8703D01*
X27846Y-8777D01*
X27827Y-8833D01*
X27809Y-8869D01*
X27800Y-8888D01*
X27790Y-8897D01*
X27772Y-8934D01*
X27763Y-8944D01*
Y-8953D01*
X27744Y-8971D01*
X27716D01*
X27670Y-8953D01*
X27624Y-8916D01*
X27578Y-8851D01*
X27531Y-8795D01*
X27494Y-8731D01*
X27476Y-8694D01*
X27467Y-8675D01*
X27235Y-8259D01*
X25533D01*
X25330D01*
X25154D01*
X24997D01*
X24867Y-8250D01*
X24766D01*
X24692D01*
X24645D01*
X24627D01*
X24497Y-8241D01*
X24377D01*
X24275Y-8231D01*
X24174Y-8222D01*
X24090Y-8213D01*
X24035D01*
X23998Y-8203D01*
X23979D01*
X23878Y-8185D01*
X23785Y-8176D01*
X23702Y-8157D01*
X23646Y-8139D01*
X23591Y-8120D01*
X23554Y-8111D01*
X23535Y-8102D01*
X23526D01*
X23415Y-8046D01*
X23332Y-7982D01*
X23295Y-7954D01*
X23267Y-7935D01*
X23249Y-7926D01*
X23239Y-7917D01*
X23156Y-7824D01*
X23091Y-7741D01*
X23073Y-7704D01*
X23054Y-7685D01*
X23045Y-7667D01*
Y-7658D01*
X22999Y-7537D01*
X22962Y-7417D01*
X22943Y-7371D01*
X22925Y-7325D01*
X22916Y-7297D01*
Y-7288D01*
X22879Y-7121D01*
X22860Y-6955D01*
X22851Y-6788D01*
Y-6640D01*
X22860Y-6520D01*
X22869Y-6418D01*
Y-6381D01*
X22879Y-6353D01*
Y-6335D01*
X22916Y-6159D01*
X22962Y-6021D01*
X23008Y-5909D01*
X23064Y-5826D01*
X23110Y-5762D01*
X23147Y-5725D01*
X23175Y-5706D01*
X23184Y-5697D01*
X23239Y-5660D01*
X23276Y-5613D01*
X23295Y-5576D01*
X23304Y-5549D01*
Y-5503D01*
X23295Y-5484D01*
X23267Y-5447D01*
X23230Y-5419D01*
X23138Y-5382D01*
X23101D01*
X23064Y-5373D01*
X23036D01*
X23027D01*
X22980D01*
X22934Y-5364D01*
X22879Y-5345D01*
X22842Y-5327D01*
X22832Y-5317D01*
X22823Y-5262D01*
X22832Y-5206D01*
X22842Y-5151D01*
X22851Y-5142D01*
Y-5133D01*
X22888Y-5031D01*
X22934Y-4910D01*
X22980Y-4772D01*
X23027Y-4642D01*
X23073Y-4522D01*
X23110Y-4430D01*
X23119Y-4392D01*
X23128Y-4365D01*
X23138Y-4346D01*
Y-4337D01*
X23165Y-4254D01*
X23193Y-4180D01*
X23249Y-4059D01*
X23295Y-3967D01*
X23332Y-3902D01*
X23360Y-3865D01*
X23378Y-3838D01*
X23397Y-3819D01*
X23434Y-3810D01*
X23480Y-3828D01*
D02*
G37*
G36*
X23027Y-9545D02*
X23147Y-9693D01*
X23249Y-9822D01*
X23332Y-9933D01*
X23397Y-10026D01*
X23434Y-10081D01*
X23452Y-10091D01*
Y-10100D01*
X26662D01*
X26949D01*
X27226D01*
X27476D01*
X27716D01*
X27938Y-10109D01*
X28151D01*
X28345D01*
X28530D01*
X28697Y-10118D01*
X28854D01*
X28993D01*
X29132Y-10127D01*
X29252D01*
X29363Y-10137D01*
X29465D01*
X29548D01*
X29631Y-10146D01*
X29705D01*
X29825Y-10155D01*
X29918Y-10165D01*
X29983Y-10174D01*
X30020D01*
X30047Y-10183D01*
X30066D01*
X30131Y-10211D01*
X30168Y-10257D01*
X30205Y-10303D01*
X30223Y-10350D01*
X30232Y-10396D01*
X30242Y-10433D01*
Y-10470D01*
X30232Y-10562D01*
X30214Y-10683D01*
X30177Y-10812D01*
X30140Y-10942D01*
X30103Y-11062D01*
X30066Y-11154D01*
X30057Y-11191D01*
X30047Y-11219D01*
X30038Y-11237D01*
Y-11247D01*
X30001Y-11330D01*
X29964Y-11413D01*
X29899Y-11543D01*
X29835Y-11635D01*
X29779Y-11700D01*
X29733Y-11746D01*
X29696Y-11774D01*
X29677Y-11793D01*
X29668D01*
X29640D01*
X29613Y-11783D01*
X29566Y-11746D01*
X29529Y-11691D01*
X29502Y-11626D01*
X29483Y-11561D01*
X29474Y-11496D01*
X29465Y-11460D01*
Y-11423D01*
X29455Y-11376D01*
X29446Y-11339D01*
Y-11321D01*
X29437Y-11265D01*
X29418Y-11228D01*
X29354Y-11163D01*
X29289Y-11127D01*
X29270Y-11117D01*
X29261D01*
X29224Y-11108D01*
X29178D01*
X29113Y-11099D01*
X29030Y-11090D01*
X28947Y-11080D01*
X28836D01*
X28725Y-11071D01*
X28604Y-11062D01*
X28336Y-11052D01*
X28040Y-11034D01*
X27726Y-11025D01*
X27411Y-11006D01*
X27097Y-10997D01*
X26801Y-10988D01*
X26523Y-10978D01*
X26394Y-10969D01*
X26273D01*
X26162Y-10960D01*
X26061D01*
X25977D01*
X25903Y-10951D01*
X25848D01*
X25802D01*
X25774D01*
X25765D01*
X23563Y-10904D01*
X23295Y-11349D01*
X23239Y-11423D01*
X23193Y-11496D01*
X23156Y-11552D01*
X23110Y-11598D01*
X23045Y-11663D01*
X22990Y-11700D01*
X22953Y-11728D01*
X22925D01*
X22916D01*
X22906D01*
X22888Y-11700D01*
X22869Y-11654D01*
X22851Y-11580D01*
X22842Y-11496D01*
X22823Y-11395D01*
X22814Y-11293D01*
X22805Y-11062D01*
X22795Y-10840D01*
X22786Y-10729D01*
Y-9240D01*
X23027Y-9545D01*
D02*
G37*
%LPC*%
G36*
X26569Y8252D02*
X26505D01*
X26458D01*
X26431Y8243D01*
X26421D01*
X26375Y8224D01*
X26338Y8187D01*
X26283Y8104D01*
X26264Y8058D01*
X26255Y8021D01*
X26246Y7993D01*
Y7984D01*
X26236Y7938D01*
Y7882D01*
X26227Y7753D01*
X26218Y7605D01*
Y7466D01*
X26209Y7327D01*
Y6051D01*
X26606Y6245D01*
X26699Y6301D01*
X26782Y6356D01*
X26921Y6476D01*
X27023Y6606D01*
X27106Y6735D01*
X27161Y6846D01*
X27189Y6939D01*
X27208Y6976D01*
Y7004D01*
X27217Y7013D01*
Y7022D01*
X27235Y7114D01*
Y7216D01*
X27217Y7392D01*
X27180Y7549D01*
X27124Y7697D01*
X27069Y7808D01*
X27013Y7901D01*
X26976Y7956D01*
X26958Y7965D01*
Y7975D01*
X26902Y8039D01*
X26838Y8095D01*
X26791Y8141D01*
X26736Y8169D01*
X26643Y8224D01*
X26569Y8252D01*
D02*
G37*
%LPD*%
D72*
X16100Y-9600D02*
X18099D01*
Y-8600D01*
X17766Y-8267D01*
X17100D01*
X16767Y-8600D01*
Y-9600D01*
Y-8934D02*
X16100Y-8267D01*
X18099Y-6268D02*
Y-7601D01*
X16100D01*
Y-6268D01*
X17100Y-7601D02*
Y-6934D01*
X18099Y-5601D02*
X16767D01*
X16100Y-4935D01*
X16767Y-4268D01*
X18099D01*
Y-1603D02*
X16100D01*
Y-603D01*
X16433Y-270D01*
X16767D01*
X17100Y-603D01*
Y-1603D01*
Y-603D01*
X17433Y-270D01*
X17766D01*
X18099Y-603D01*
Y-1603D01*
X17766Y2396D02*
X18099Y2729D01*
Y3396D01*
X17766Y3729D01*
X16433D01*
X16100Y3396D01*
Y2729D01*
X16433Y2396D01*
X17766D01*
X18099Y5728D02*
X17766Y5062D01*
X17100Y4395D01*
X16433D01*
X16100Y4729D01*
Y5395D01*
X16433Y5728D01*
X16767D01*
X17100Y5395D01*
Y4395D01*
X16100Y6395D02*
X17433Y7728D01*
X16100Y9727D02*
Y8394D01*
X17433Y9727D01*
X17766D01*
X18099Y9394D01*
Y8727D01*
X17766Y8394D01*
Y10394D02*
X18099Y10727D01*
Y11393D01*
X17766Y11726D01*
X16433D01*
X16100Y11393D01*
Y10727D01*
X16433Y10394D01*
X17766D01*
X19291Y-11024D02*
Y-10224D01*
Y-10624D01*
X21691D01*
Y-11024D01*
X19291Y-8624D02*
Y-7825D01*
X19691Y-7425D01*
X20491D01*
X20891Y-7825D01*
Y-8624D01*
X20491Y-9024D01*
X19691D01*
X19291Y-8624D01*
Y-6625D02*
X20891D01*
Y-5425D01*
X20491Y-5026D01*
X19291D01*
Y-3026D02*
Y-3826D01*
X19691Y-4226D01*
X20491D01*
X20891Y-3826D01*
Y-3026D01*
X20491Y-2626D01*
X20091D01*
Y-4226D01*
X19291Y-1427D02*
Y-627D01*
X19691Y-227D01*
X20491D01*
X20891Y-627D01*
Y-1427D01*
X20491Y-1827D01*
X19691D01*
X19291Y-1427D01*
X20891Y2172D02*
Y972D01*
X20491Y573D01*
X19691D01*
X19291Y972D01*
Y2172D01*
Y4171D02*
Y3372D01*
X19691Y2972D01*
X20491D01*
X20891Y3372D01*
Y4171D01*
X20491Y4571D01*
X20091D01*
Y2972D01*
X20891Y5771D02*
Y6571D01*
X20491Y6971D01*
X19291D01*
Y5771D01*
X19691Y5371D01*
X20091Y5771D01*
Y6971D01*
X19291Y7770D02*
X20891D01*
Y8970D01*
X20491Y9370D01*
X19291D01*
Y10170D02*
Y11369D01*
X19691Y11769D01*
X20091Y11369D01*
Y10569D01*
X20491Y10170D01*
X20891Y10569D01*
Y11769D01*
X6400Y-16535D02*
Y-18935D01*
X7200Y-18135D01*
X7999Y-18935D01*
Y-16535D01*
X9999Y-18935D02*
X9199D01*
X8799Y-18535D01*
Y-16935D01*
X9199Y-16535D01*
X9999D01*
X10399Y-16935D01*
Y-18535D01*
X9999Y-18935D01*
X1100Y-16535D02*
Y-18935D01*
X1900Y-18135D01*
X2699Y-18935D01*
Y-16535D01*
X3499Y-18935D02*
X4299D01*
X3899D01*
Y-16535D01*
X3499D01*
X4299D01*
X-3125Y-18535D02*
X-3525Y-18935D01*
X-4324D01*
X-4724Y-18535D01*
Y-18135D01*
X-4324Y-17735D01*
X-3525D01*
X-3125Y-17335D01*
Y-16935D01*
X-3525Y-16535D01*
X-4324D01*
X-4724Y-16935D01*
X-726Y-18535D02*
X-1126Y-18935D01*
X-1925D01*
X-2325Y-18535D01*
Y-16935D01*
X-1925Y-16535D01*
X-1126D01*
X-726Y-16935D01*
X-8661Y-18935D02*
Y-17335D01*
X-7862Y-16535D01*
X-7062Y-17335D01*
Y-18935D01*
X2387Y-31133D02*
X1987Y-31533D01*
X1187D01*
X787Y-31133D01*
Y-29534D01*
X1187Y-29134D01*
X1987D01*
X2387Y-29534D01*
Y-30334D01*
X1587D01*
X3187Y-31533D02*
Y-29134D01*
X4386D01*
X4786Y-29534D01*
Y-31133D01*
X4386Y-31533D01*
X3187D01*
X-4724Y-29134D02*
Y-31533D01*
X-3525D01*
X-3125Y-31133D01*
Y-30334D01*
X-3525Y-29934D01*
X-4724D01*
X-3925D02*
X-3125Y-29134D01*
X-726Y-31133D02*
X-1126Y-31533D01*
X-1925D01*
X-2325Y-31133D01*
Y-30733D01*
X-1925Y-30334D01*
X-1126D01*
X-726Y-29934D01*
Y-29534D01*
X-1126Y-29134D01*
X-1925D01*
X-2325Y-29534D01*
X-15354Y-22084D02*
X-13755Y-19685D01*
Y-22084D02*
X-15354Y-19685D01*
X-12955D02*
X-12155D01*
X-12555D01*
Y-22084D01*
X-12955Y-21684D01*
X-15354Y-26415D02*
X-13755Y-24016D01*
Y-26415D02*
X-15354Y-24016D01*
X-11356D02*
X-12955D01*
X-11356Y-25615D01*
Y-26015D01*
X-11755Y-26415D01*
X-12555D01*
X-12955Y-26015D01*
X11417Y-26415D02*
X13017Y-24016D01*
Y-26415D02*
X11417Y-24016D01*
X13816Y-26015D02*
X14216Y-26415D01*
X15016D01*
X15416Y-26015D01*
Y-25615D01*
X15016Y-25215D01*
X14616D01*
X15016D01*
X15416Y-24815D01*
Y-24416D01*
X15016Y-24016D01*
X14216D01*
X13816Y-24416D01*
X11417Y-22084D02*
X13017Y-19685D01*
Y-22084D02*
X11417Y-19685D01*
X15016D02*
Y-22084D01*
X13816Y-20885D01*
X15416D01*
M02*
