M48
;Layer_Color=9474304
;FILE_FORMAT=2:5
INCH,LZ
;TYPE=PLATED
T1F00S00C0.01000
%
T01
X-0022367Y-0035016
X-0020663Y-0036001
X-0018958Y-0036985
X-0002011Y-0041381
X-0000043
X0001926
X0018965Y-0036983
X0020669Y-0035999
X0022374Y-0035015
X0020961Y-0023702
X002354Y-002105
X0020019Y-0018
X0013903Y-0015785
X0008979Y-001672
X0006494Y-0015354
X00061Y-0010199
X0006095Y-00082
Y-0006194
Y-00042
X00078Y-0005233
Y-00072
Y-00092
X00095Y-00082
Y-0006242
X00112Y-0005177
X0020689Y-0005222
X0020734Y-0008354
X0024409Y-0006299
X0027165
X00283Y-00113
Y-0015052
X0011024Y-0023228
Y-002874
X00084Y-0029
X0009055Y-0032283
X0006299Y-0032283
X0002559Y-0026969
X-0002362Y-0024016
X-0007087Y-0030315
X-0008425Y-0032654
X-0011024Y-0031496
Y-0017463
X-0019291Y-0017717
X-0021025Y-0015748
X-0022835Y-001378
X-0022641Y-0020015
X-0025591Y-0017717
X-0028591Y-0016688
X-0036827Y-0019007
X-0035843Y-0020712
X-0034859Y-0022417
X-0031102Y-0007874
X-0023622Y-0006693
Y-0004724
Y-0002756
Y-0000787
X-0021654
X-0019685
X-0017717
X-0015748
Y-0002756
X-0017717
X-0018898Y0001181
X-0020866
Y000315
X-0018898
Y0005118
X-0020866
X-0026772Y0006299
X-0029134
X-0032677Y0007874
X-0025984Y0015157
X-0026772Y0020079
X-0025591Y002126
X-0023622
X-0021654
Y0023228
Y0025197
X-0020472Y0026378
X-0019291Y0027559
X-0017323Y0024016
Y0022047
Y0020079
Y001811
X-0019291
Y0016142
X-0011811Y0020079
Y0024016
X-0007874
Y0020079
X-0005906Y0022047
X-0009843
X-0003937Y0020079
Y0024016
X-0005118Y0031102
Y0033071
X0001969Y0032677
X0004331
X0006693
X0005512Y0031102
X000315
X0007874
X0010236
X0012598
X0018971Y0036584
X0020676Y00356
X0022381Y0034616
X0022047Y0024409
Y0022047
Y0019685
Y0017323
Y0014961
Y0012598
X0024409
X0026772
Y0014961
Y0017323
X0022047Y0010236
X0017455Y0008268
X0Y-0011586
X-0002174Y-0011668
X-0004353Y-0011681
X-0041339Y-0002167
Y-0000199
Y000177
X-0036825Y0018928
X-0035841Y0020633
X-0034857Y0022338
X-0024409Y0022835
X-0023228Y0024016
X-0022374Y0034617
X-0020669Y0035602
X-0018965Y0036586
X-0011771Y00317
X-0002011Y0041296
X-0000043
X0001926
X0034773Y0022331
X0035758Y0020627
X0036742Y0018922
X0033071Y0004724
X0030709
X0029921Y-0006299
X0041339Y-0002167
Y-0000199
Y000177
X0036744Y-0019001
X0035759Y-0020705
X0034775Y-002241
M30
